<svg xmlns="http://www.w3.org/2000/svg" xmlns:xlink="http://www.w3.org/1999/xlink" width="500" zoomAndPan="magnify" viewBox="0 0 375 374.999991" height="500" preserveAspectRatio="xMidYMid meet" version="1.2"><defs><clipPath id="3a52bada3d"><path d="M 86 41 L 158 41 L 158 168 L 86 168 Z M 86 41 "/></clipPath><clipPath id="694b9b6f37"><path d="M 186.804688 115.414062 L 101.972656 190.4375 L 24.957031 103.359375 L 109.792969 28.332031 Z M 186.804688 115.414062 "/></clipPath><clipPath id="0c91d815b8"><path d="M 186.804688 115.414062 L 101.972656 190.4375 L 24.957031 103.359375 L 109.792969 28.332031 Z M 186.804688 115.414062 "/></clipPath></defs><g id="5db69b4247"><g clip-rule="nonzero" clip-path="url(#3a52bada3d)"><g clip-rule="nonzero" clip-path="url(#694b9b6f37)"><g clip-rule="nonzero" clip-path="url(#0c91d815b8)"><path style=" stroke:none;fill-rule:nonzero;fill:#9b5f99;fill-opacity:1;" d="M 94.679688 44.488281 C 97.78125 39.449219 103.328125 41.425781 108.421875 43.363281 C 127.191406 51.042969 146.144531 69.4375 154.300781 88.996094 C 161.382812 105.683594 157.515625 124.636719 148.839844 140.140625 C 143.640625 149.621094 136.402344 159.949219 127.949219 164.660156 C 95.796875 183.085938 88.9375 113.355469 87.429688 93.105469 C 86.410156 77.304688 85.523438 57.109375 94.671875 44.5 Z M 94.679688 44.488281 "/></g></g></g><path style=" stroke:none;fill-rule:nonzero;fill:#d6bed5;fill-opacity:1;" d="M 47.265625 181.609375 C 46.675781 174.675781 49.757812 167.097656 52.308594 160.332031 C 54.769531 153.984375 57.054688 147.753906 59.332031 141.53125 C 61.046875 136.796875 62.675781 132.273438 64.242188 127.566406 C 65.460938 124.003906 66.632812 119.800781 67.945312 116.660156 C 70.0625 111.113281 74.234375 109.449219 79.660156 110.433594 C 86.855469 111.738281 93.476562 115.277344 99.9375 119.113281 C 116.710938 129.542969 138.703125 146.941406 131.6875 167.191406 C 127.667969 178.394531 117.054688 185.507812 106.1875 190.113281 C 93.960938 195.285156 78.152344 198.335938 65.828125 196.523438 C 55.675781 194.832031 48.410156 190.976562 47.273438 181.671875 Z M 47.265625 181.609375 "/><g style="fill:#3b0039;fill-opacity:1;"><g transform="translate(130.619307, 240.512826)"><path style="stroke:none" d="M 100.90625 -68.4375 C 101.070312 -65.753906 100.9375 -62.242188 100.503906 -57.898438 C 100.078125 -53.621094 99.457031 -48.773438 98.632812 -43.359375 C 97.8125 -37.957031 96.859375 -32.253906 95.773438 -26.246094 L 92.488281 -8.152344 L 90.191406 4.785156 C 89.402344 9.183594 88.679688 13.398438 88.019531 17.429688 C 87.363281 21.441406 86.851562 24.980469 86.488281 28.042969 C 86.128906 31.039062 85.972656 33.257812 86.023438 34.695312 L 84.242188 34.757812 L 82.695312 33.875 C 82.917969 33.484375 83.167969 33.066406 83.445312 32.625 L 84.957031 33.570312 L 83.410156 32.6875 C 83.867188 31.886719 84.53125 31.371094 85.40625 31.136719 C 86.273438 30.90625 87.105469 31.015625 87.898438 31.46875 C 88.699219 31.925781 89.214844 32.59375 89.449219 33.46875 C 89.679688 34.335938 89.566406 35.164062 89.113281 35.957031 C 88.417969 37.121094 87.667969 38.171875 86.867188 39.117188 C 86.277344 39.8125 85.601562 40.28125 84.84375 40.523438 C 84.046875 40.777344 83.222656 40.765625 82.359375 40.496094 L 82.257812 40.460938 L 82.160156 40.417969 C 81.105469 39.941406 80.355469 39.019531 79.898438 37.65625 C 79.542969 36.582031 79.40625 34.945312 79.492188 32.746094 C 79.574219 30.710938 79.855469 27.910156 80.339844 24.34375 C 80.816406 20.816406 81.519531 16.296875 82.445312 10.789062 C 83.371094 5.289062 84.574219 -1.398438 86.054688 -9.277344 L 89.140625 -26.832031 C 90.191406 -32.734375 91.140625 -38.371094 91.984375 -43.742188 C 92.824219 -49.097656 93.464844 -53.898438 93.910156 -58.140625 C 94.351562 -62.316406 94.492188 -65.597656 94.339844 -67.976562 C 94.25 -69.292969 94.089844 -70.210938 93.859375 -70.730469 C 93.765625 -70.941406 93.691406 -71.074219 93.636719 -71.140625 C 93.761719 -70.992188 93.964844 -70.894531 94.242188 -70.847656 L 94.535156 -72.605469 L 94.535156 -70.824219 L 94.457031 -70.824219 C 94.523438 -70.824219 94.582031 -70.828125 94.632812 -70.839844 L 94.636719 -70.839844 C 94.550781 -70.804688 94.441406 -70.746094 94.300781 -70.660156 C 93.917969 -70.425781 93.433594 -70.054688 92.847656 -69.550781 C 91.644531 -68.519531 90.101562 -66.613281 88.207031 -63.839844 C 86.273438 -61.003906 83.976562 -56.953125 81.320312 -51.691406 C 78.597656 -46.25 75.214844 -38.472656 71.171875 -28.355469 C 67.128906 -18.25 62.820312 -5.257812 58.242188 10.628906 C 57.988281 11.542969 57.507812 12.21875 56.804688 12.644531 C 56.09375 13.078125 55.265625 13.191406 54.324219 12.980469 C 53.390625 12.773438 52.691406 12.332031 52.230469 11.652344 C 51.761719 10.96875 51.609375 10.152344 51.765625 9.207031 C 55.445312 -12.457031 57.417969 -28.710938 57.679688 -39.550781 C 57.78125 -42.855469 57.734375 -45.429688 57.53125 -47.273438 C 57.335938 -49.054688 57.105469 -50.316406 56.835938 -51.054688 C 56.703125 -51.425781 56.578125 -51.71875 56.472656 -51.933594 C 56.433594 -52.011719 56.398438 -52.074219 56.371094 -52.117188 L 56.367188 -52.125 C 56.378906 -52.105469 56.398438 -52.085938 56.417969 -52.066406 L 55.984375 -52.5 L 57.242188 -53.761719 L 57.242188 -51.980469 C 57.382812 -51.980469 57.507812 -51.992188 57.617188 -52.019531 C 57.609375 -52.019531 57.585938 -52.011719 57.554688 -52 C 57.445312 -51.96875 57.289062 -51.914062 57.085938 -51.84375 C 56.875 -51.769531 56.382812 -51.367188 55.617188 -50.644531 C 54.761719 -49.835938 53.617188 -48.375 52.1875 -46.265625 C 50.722656 -44.109375 48.949219 -41.027344 46.871094 -37.023438 C 44.777344 -32.996094 42.3125 -27.75 39.476562 -21.292969 C 36.589844 -14.625 33.683594 -7.40625 30.765625 0.351562 C 27.84375 8.113281 25.042969 16.074219 22.355469 24.230469 C 19.671875 32.386719 17.226562 40.386719 15.015625 48.226562 L 13.300781 47.742188 L 15.082031 47.742188 L 15.082031 48.15625 L 14.960938 48.46875 C 14.566406 49.484375 14.152344 50.394531 13.722656 51.195312 C 12.992188 52.5625 11.953125 53.246094 10.609375 53.246094 C 10.304688 53.246094 9.976562 53.203125 9.625 53.113281 L 9.539062 53.09375 L 9.457031 53.0625 C 8.71875 52.800781 8.144531 52.363281 7.738281 51.757812 C 7.355469 51.1875 7.148438 50.515625 7.125 49.738281 C 7.097656 48.761719 7.222656 47.300781 7.5 45.351562 C 7.875 42.839844 8.511719 39.25 9.414062 34.578125 C 11 26.589844 13.328125 15.648438 16.390625 1.753906 C 17.761719 -4.632812 19.148438 -10.929688 20.550781 -17.136719 L 24.46875 -34.398438 L 27.636719 -48.066406 L 29.539062 -56.070312 C 30.355469 -59.582031 30.773438 -62.214844 30.800781 -63.960938 C 30.820312 -65.5625 30.71875 -66.609375 30.488281 -67.101562 C 30.347656 -67.410156 30.226562 -67.644531 30.125 -67.808594 C 30.09375 -67.855469 30.070312 -67.890625 30.058594 -67.910156 C 30.089844 -67.871094 30.140625 -67.824219 30.207031 -67.773438 L 31.273438 -69.199219 L 30.316406 -67.695312 C 30.351562 -67.675781 30.382812 -67.660156 30.40625 -67.65625 C 30.382812 -67.660156 30.339844 -67.660156 30.28125 -67.660156 C 30.03125 -67.644531 29.699219 -67.554688 29.285156 -67.386719 C 28.246094 -66.972656 27.023438 -66.230469 25.621094 -65.167969 C 23.667969 -63.664062 21.648438 -61.691406 19.566406 -59.253906 C 17.453125 -56.78125 15.457031 -54.078125 13.574219 -51.136719 C 11.699219 -48.207031 10.105469 -45.242188 8.796875 -42.242188 C 7.507812 -39.28125 6.625 -36.449219 6.148438 -33.738281 C 5.699219 -31.1875 5.796875 -28.976562 6.4375 -27.097656 C 7.699219 -23.351562 11.527344 -21.429688 17.917969 -21.335938 C 18.847656 -21.339844 19.632812 -20.988281 20.277344 -20.285156 C 20.878906 -19.628906 21.179688 -18.855469 21.179688 -17.972656 C 21.179688 -17.027344 20.828125 -16.234375 20.125 -15.589844 C 19.46875 -14.988281 18.726562 -14.6875 17.894531 -14.6875 L 17.765625 -14.6875 C 15.695312 -14.742188 13.515625 -15.035156 11.238281 -15.5625 C 8.835938 -16.121094 6.652344 -17.117188 4.6875 -18.554688 C 2.621094 -20.066406 1.105469 -22.210938 0.136719 -24.988281 C -0.574219 -27.179688 -0.855469 -29.46875 -0.710938 -31.859375 C -0.570312 -34.15625 -0.164062 -36.441406 0.507812 -38.707031 C 1.164062 -40.917969 1.914062 -42.992188 2.761719 -44.933594 C 3.597656 -46.851562 4.398438 -48.519531 5.160156 -49.933594 C 7.378906 -53.988281 9.941406 -57.851562 12.855469 -61.519531 C 15.796875 -65.222656 18.722656 -68.199219 21.632812 -70.449219 C 24.609375 -72.726562 27.085938 -73.941406 29.074219 -74.101562 C 31.101562 -74.265625 32.703125 -73.980469 33.882812 -73.242188 C 35.921875 -71.941406 37.070312 -69.597656 37.328125 -66.207031 C 37.550781 -63.222656 37.089844 -59.332031 35.9375 -54.53125 L 33.683594 -44.921875 L 30.597656 -31.429688 L 26.996094 -15.558594 L 23.234375 1.222656 L 19.675781 17.523438 C 18.542969 22.757812 17.554688 27.535156 16.710938 31.851562 L 14.964844 31.511719 L 13.265625 30.976562 C 15.277344 24.574219 17.390625 18.171875 19.613281 11.765625 C 21.839844 5.359375 24.117188 -0.859375 26.445312 -6.894531 C 28.777344 -12.9375 31.109375 -18.636719 33.441406 -23.988281 C 36.523438 -31.050781 39.234375 -36.78125 41.578125 -41.179688 C 43.941406 -45.605469 45.988281 -49.015625 47.726562 -51.402344 C 49.515625 -53.863281 51.058594 -55.59375 52.355469 -56.59375 C 53.761719 -57.683594 54.972656 -58.300781 55.992188 -58.453125 C 56.9375 -58.59375 57.738281 -58.582031 58.386719 -58.417969 L 57.957031 -56.691406 L 58.328125 -58.433594 C 59.457031 -58.191406 60.496094 -57.523438 61.441406 -56.429688 C 62.316406 -55.421875 63.011719 -53.835938 63.527344 -51.679688 C 64.007812 -49.683594 64.289062 -46.921875 64.371094 -43.390625 C 64.449219 -39.921875 64.261719 -35.492188 63.808594 -30.09375 C 63.359375 -24.734375 62.601562 -18.160156 61.542969 -10.371094 L 59.777344 -10.609375 L 58.085938 -11.167969 C 61.320312 -20.972656 64.59375 -29.917969 67.90625 -38.007812 C 71.230469 -46.113281 74.464844 -53.085938 77.605469 -58.921875 C 80.785156 -64.820312 83.765625 -69.351562 86.546875 -72.511719 C 89.644531 -76.035156 92.5 -77.660156 95.117188 -77.382812 C 96.960938 -77.1875 98.382812 -76.222656 99.386719 -74.484375 C 100.222656 -73.03125 100.726562 -71.019531 100.90625 -68.449219 Z M 97.351562 -68.207031 C 97.101562 -71.804688 96.234375 -73.683594 94.746094 -73.839844 C 94.140625 -73.90625 93.421875 -73.683594 92.589844 -73.179688 C 91.570312 -72.5625 90.449219 -71.554688 89.222656 -70.160156 C 86.621094 -67.199219 83.792969 -62.890625 80.742188 -57.230469 C 77.660156 -51.503906 74.480469 -44.648438 71.203125 -36.65625 C 67.921875 -28.644531 64.675781 -19.777344 61.46875 -10.050781 L 58.011719 -10.851562 C 59.0625 -18.578125 59.8125 -25.09375 60.257812 -30.394531 C 60.703125 -35.660156 60.886719 -39.964844 60.808594 -43.308594 C 60.730469 -46.585938 60.484375 -49.101562 60.0625 -50.851562 C 59.683594 -52.441406 59.242188 -53.523438 58.746094 -54.097656 C 58.320312 -54.589844 57.933594 -54.871094 57.582031 -54.949219 L 57.554688 -54.953125 L 57.523438 -54.960938 C 57.332031 -55.007812 56.996094 -55 56.515625 -54.925781 C 56.109375 -54.867188 55.449219 -54.484375 54.53125 -53.777344 C 53.507812 -52.980469 52.199219 -51.492188 50.609375 -49.308594 C 48.96875 -47.050781 47.007812 -43.785156 44.722656 -39.5 C 42.421875 -35.1875 39.75 -29.542969 36.707031 -22.566406 C 34.394531 -17.257812 32.082031 -11.605469 29.769531 -5.613281 C 27.453125 0.386719 25.191406 6.566406 22.980469 12.9375 C 20.769531 19.304688 18.664062 25.675781 16.664062 32.046875 L 13.214844 31.171875 C 14.0625 26.832031 15.054688 22.027344 16.191406 16.761719 L 19.757812 0.441406 L 23.519531 -16.347656 L 27.121094 -32.226562 L 30.210938 -45.734375 L 32.472656 -55.363281 C 33.535156 -59.800781 33.96875 -63.324219 33.773438 -65.9375 C 33.605469 -68.144531 33.011719 -69.570312 31.992188 -70.222656 C 31.480469 -70.542969 30.605469 -70.652344 29.359375 -70.550781 C 28.070312 -70.445312 26.222656 -69.472656 23.8125 -67.632812 C 21.128906 -65.554688 18.40625 -62.78125 15.648438 -59.304688 C 12.859375 -55.792969 10.410156 -52.105469 8.296875 -48.242188 C 7.582031 -46.914062 6.824219 -45.335938 6.027344 -43.507812 C 5.238281 -41.699219 4.539062 -39.761719 3.925781 -37.695312 C 3.332031 -35.6875 2.972656 -33.667969 2.847656 -31.640625 C 2.730469 -29.703125 2.949219 -27.875 3.503906 -26.160156 C 4.226562 -24.082031 5.324219 -22.503906 6.792969 -21.429688 C 8.363281 -20.28125 10.113281 -19.480469 12.039062 -19.035156 C 14.089844 -18.5625 16.027344 -18.300781 17.863281 -18.25 L 17.816406 -16.46875 L 17.816406 -18.25 L 17.894531 -18.25 C 17.835938 -18.25 17.785156 -18.238281 17.734375 -18.21875 L 17.71875 -18.21875 C 17.652344 -18.15625 17.617188 -18.074219 17.617188 -17.972656 C 17.617188 -17.933594 17.628906 -17.902344 17.648438 -17.878906 C 17.710938 -17.808594 17.785156 -17.773438 17.867188 -17.773438 C 13.964844 -17.832031 10.792969 -18.507812 8.351562 -19.804688 C 5.742188 -21.1875 3.980469 -23.234375 3.066406 -25.949219 C 2.226562 -28.402344 2.085938 -31.203125 2.640625 -34.355469 C 3.164062 -37.34375 4.128906 -40.445312 5.53125 -43.664062 C 6.914062 -46.839844 8.597656 -49.96875 10.574219 -53.058594 C 12.542969 -56.136719 14.636719 -58.972656 16.855469 -61.566406 C 19.101562 -64.195312 21.304688 -66.34375 23.46875 -68.007812 C 25.125 -69.265625 26.625 -70.160156 27.960938 -70.695312 C 29.714844 -71.394531 31.136719 -71.398438 32.230469 -70.703125 L 32.289062 -70.664062 L 32.34375 -70.625 C 32.792969 -70.289062 33.253906 -69.613281 33.722656 -68.605469 C 34.179688 -67.617188 34.390625 -66.054688 34.363281 -63.910156 C 34.332031 -61.90625 33.882812 -59.019531 33.007812 -55.25 L 31.109375 -47.261719 L 27.945312 -33.613281 L 24.027344 -16.355469 C 22.628906 -10.15625 21.242188 -3.867188 19.871094 2.519531 C 16.8125 16.390625 14.492188 27.300781 12.914062 35.253906 C 12.019531 39.875 11.390625 43.410156 11.027344 45.855469 C 10.777344 47.601562 10.664062 48.859375 10.6875 49.628906 C 10.691406 49.699219 10.695312 49.753906 10.707031 49.792969 C 10.707031 49.789062 10.703125 49.78125 10.691406 49.765625 C 10.671875 49.738281 10.652344 49.714844 10.628906 49.699219 C 10.625 49.695312 10.621094 49.695312 10.621094 49.691406 C 10.628906 49.695312 10.640625 49.703125 10.65625 49.707031 L 10.054688 51.386719 L 10.488281 49.65625 C 10.558594 49.671875 10.597656 49.683594 10.609375 49.683594 C 10.542969 49.683594 10.484375 49.703125 10.429688 49.738281 C 10.464844 49.714844 10.515625 49.640625 10.582031 49.515625 C 10.945312 48.839844 11.296875 48.058594 11.640625 47.175781 L 13.300781 47.820312 L 11.519531 47.820312 L 11.519531 47.496094 L 11.585938 47.257812 C 13.808594 39.371094 16.273438 31.324219 18.972656 23.117188 C 21.671875 14.910156 24.492188 6.90625 27.429688 -0.90625 C 30.371094 -8.71875 33.296875 -15.992188 36.214844 -22.726562 C 39.082031 -29.253906 41.578125 -34.570312 43.707031 -38.667969 C 45.851562 -42.792969 47.695312 -45.992188 49.238281 -48.269531 C 50.816406 -50.59375 52.125 -52.246094 53.171875 -53.234375 C 54.304688 -54.304688 55.210938 -54.960938 55.898438 -55.203125 C 56.539062 -55.429688 56.988281 -55.542969 57.242188 -55.542969 L 57.980469 -55.542969 L 58.9375 -54.585938 C 59.363281 -54.160156 59.777344 -53.390625 60.183594 -52.269531 C 60.550781 -51.265625 60.847656 -49.730469 61.074219 -47.660156 C 61.292969 -45.648438 61.351562 -42.917969 61.242188 -39.464844 C 60.976562 -28.453125 58.988281 -12.035156 55.28125 9.792969 C 55.273438 9.828125 55.269531 9.859375 55.269531 9.882812 L 55.269531 9.871094 C 55.257812 9.796875 55.226562 9.722656 55.171875 9.644531 C 55.121094 9.570312 55.066406 9.515625 55.003906 9.480469 L 55.003906 9.476562 C 55.027344 9.488281 55.058594 9.496094 55.097656 9.503906 C 55.132812 9.511719 55.164062 9.515625 55.1875 9.519531 L 55.179688 9.519531 C 55.105469 9.527344 55.03125 9.554688 54.953125 9.601562 C 54.875 9.648438 54.820312 9.699219 54.78125 9.757812 C 54.789062 9.746094 54.800781 9.710938 54.820312 9.640625 C 59.429688 -6.355469 63.777344 -19.464844 67.863281 -29.679688 C 71.945312 -39.886719 75.371094 -47.757812 78.140625 -53.296875 C 80.867188 -58.695312 83.242188 -62.882812 85.265625 -65.847656 C 87.332031 -68.878906 89.085938 -71.015625 90.523438 -72.253906 C 91.253906 -72.882812 91.890625 -73.363281 92.433594 -73.695312 C 93.183594 -74.15625 93.855469 -74.386719 94.457031 -74.386719 L 94.683594 -74.386719 L 94.828125 -74.359375 C 95.777344 -74.203125 96.539062 -73.476562 97.113281 -72.179688 C 97.515625 -71.273438 97.777344 -69.949219 97.898438 -68.203125 C 98.0625 -65.625 97.914062 -62.144531 97.457031 -57.769531 C 97.003906 -53.464844 96.351562 -48.605469 95.503906 -43.191406 C 94.65625 -37.796875 93.707031 -32.136719 92.648438 -26.214844 L 89.554688 -8.617188 C 88.082031 -0.765625 86.882812 5.902344 85.960938 11.378906 C 85.039062 16.851562 84.34375 21.332031 83.871094 24.824219 C 83.402344 28.277344 83.128906 30.964844 83.054688 32.890625 C 82.984375 34.652344 83.058594 35.867188 83.28125 36.53125 C 83.40625 36.910156 83.523438 37.125 83.632812 37.175781 L 82.898438 38.796875 L 83.433594 37.097656 C 83.574219 37.140625 83.683594 37.152344 83.761719 37.128906 C 83.871094 37.09375 84.003906 36.988281 84.152344 36.8125 C 84.828125 36.015625 85.449219 35.140625 86.019531 34.191406 C 85.988281 34.246094 85.984375 34.308594 86.003906 34.386719 C 86.027344 34.46875 86.070312 34.527344 86.128906 34.5625 C 86.183594 34.59375 86.25 34.597656 86.324219 34.578125 C 86.40625 34.558594 86.46875 34.515625 86.503906 34.453125 L 86.464844 34.515625 C 86.214844 34.917969 85.988281 35.292969 85.789062 35.640625 L 82.679688 41.085938 L 82.460938 34.820312 C 82.40625 33.199219 82.570312 30.796875 82.949219 27.617188 C 83.320312 24.503906 83.839844 20.917969 84.503906 16.855469 C 85.164062 12.808594 85.890625 8.578125 86.683594 4.164062 L 88.980469 -8.789062 L 92.269531 -26.878906 C 93.347656 -32.855469 94.292969 -38.527344 95.109375 -43.894531 C 95.921875 -49.246094 96.539062 -54.03125 96.957031 -58.25 C 97.371094 -62.40625 97.5 -65.726562 97.347656 -68.21875 Z M 97.351562 -68.207031 "/></g></g><g style="fill:#3b0039;fill-opacity:1;"><g transform="translate(242.721334, 240.512826)"><path style="stroke:none" d="M 33.875 -19.214844 C 34.734375 -18.847656 35.316406 -18.210938 35.617188 -17.308594 C 35.890625 -16.484375 35.859375 -15.679688 35.523438 -14.894531 L 35.507812 -14.855469 L 35.488281 -14.816406 C 34.46875 -12.722656 33.351562 -10.625 32.144531 -8.53125 C 30.921875 -6.410156 29.640625 -4.460938 28.304688 -2.6875 C 26.910156 -0.839844 25.457031 0.652344 23.949219 1.78125 C 22.261719 3.046875 20.53125 3.683594 18.765625 3.683594 C 18.402344 3.683594 18.015625 3.648438 17.601562 3.578125 L 17.554688 3.570312 C 15.1875 3.109375 13.332031 1.417969 11.980469 -1.511719 C 10.800781 -4.070312 9.988281 -7.652344 9.546875 -12.261719 L 11.320312 -12.429688 L 12.753906 -11.371094 C 11.847656 -10.140625 10.792969 -8.769531 9.59375 -7.25 C 8.382812 -5.714844 7.105469 -4.199219 5.761719 -2.691406 L 5.730469 -2.65625 L 5.695312 -2.621094 C 5.46875 -2.398438 5.117188 -2.054688 4.628906 -1.59375 C 3.996094 -0.996094 3.261719 -0.523438 2.425781 -0.175781 C 1.292969 0.296875 0.164062 0.253906 -0.957031 -0.308594 L -0.160156 -1.898438 L -0.785156 -0.230469 C -2.839844 -1.003906 -3.832031 -2.945312 -3.761719 -6.058594 L -1.980469 -6.015625 L -3.761719 -6.015625 C -3.761719 -7.488281 -3.492188 -9.269531 -2.953125 -11.371094 C -2.425781 -13.429688 -1.675781 -15.5 -0.703125 -17.578125 C 0.28125 -19.691406 1.441406 -21.566406 2.773438 -23.210938 C 4.226562 -25.007812 5.878906 -26.222656 7.734375 -26.863281 L 8.3125 -25.179688 L 7.667969 -26.839844 C 8.925781 -27.328125 10.402344 -27.425781 12.101562 -27.132812 C 13.898438 -26.820312 15.675781 -25.628906 17.429688 -23.558594 C 18.003906 -22.871094 18.261719 -22.082031 18.207031 -21.1875 C 18.148438 -20.253906 17.765625 -19.492188 17.054688 -18.898438 C 16.375 -18.332031 15.589844 -18.078125 14.695312 -18.132812 C 13.761719 -18.191406 13 -18.578125 12.40625 -19.285156 C 11.898438 -19.878906 11.445312 -20.304688 11.046875 -20.558594 C 10.839844 -20.691406 10.703125 -20.753906 10.644531 -20.75 C 10.058594 -20.699219 9.585938 -20.539062 9.222656 -20.269531 C 8.246094 -19.554688 7.339844 -18.511719 6.515625 -17.136719 C 5.625 -15.648438 4.882812 -14.089844 4.289062 -12.457031 C 3.6875 -10.8125 3.265625 -9.289062 3.023438 -7.886719 C 2.792969 -6.574219 2.714844 -5.671875 2.789062 -5.179688 L 1.027344 -4.910156 L 0.0390625 -6.390625 C 0.140625 -6.457031 0.253906 -6.546875 0.382812 -6.65625 C 0.484375 -6.742188 0.605469 -6.875 0.746094 -7.050781 L 0.78125 -7.09375 L 0.820312 -7.136719 C 2.371094 -8.84375 3.789062 -10.535156 5.082031 -12.210938 C 6.386719 -13.910156 7.511719 -15.414062 8.449219 -16.71875 C 8.707031 -17.078125 8.953125 -17.421875 9.183594 -17.757812 C 9.445312 -18.136719 9.695312 -18.472656 9.929688 -18.769531 C 10.378906 -19.328125 10.921875 -19.699219 11.566406 -19.882812 C 12.179688 -20.058594 12.828125 -20.042969 13.507812 -19.835938 L 12.984375 -18.132812 L 13.386719 -19.867188 C 14.121094 -19.699219 14.710938 -19.34375 15.152344 -18.808594 C 15.578125 -18.292969 15.816406 -17.660156 15.871094 -16.914062 L 15.871094 -16.867188 C 16.027344 -13.519531 16.292969 -10.847656 16.675781 -8.84375 C 17.042969 -6.902344 17.433594 -5.484375 17.847656 -4.585938 C 18.21875 -3.785156 18.519531 -3.285156 18.75 -3.082031 C 18.875 -2.972656 18.96875 -2.898438 19.027344 -2.863281 C 18.910156 -2.933594 18.742188 -2.96875 18.527344 -2.96875 L 18.710938 -2.96875 L 18.894531 -2.929688 C 18.847656 -2.941406 18.808594 -2.945312 18.78125 -2.941406 C 18.792969 -2.941406 18.820312 -2.949219 18.859375 -2.960938 C 19.035156 -3.015625 19.257812 -3.128906 19.527344 -3.300781 C 20.21875 -3.742188 21.070312 -4.484375 22.082031 -5.519531 C 24.164062 -7.652344 26.640625 -11.691406 29.511719 -17.640625 C 29.949219 -18.515625 30.601562 -19.097656 31.464844 -19.386719 C 32.363281 -19.6875 33.226562 -19.597656 34.058594 -19.125 L 33.175781 -17.578125 Z M 32.472656 -15.9375 L 32.378906 -15.980469 L 32.289062 -16.03125 C 32.382812 -15.976562 32.480469 -15.96875 32.589844 -16.003906 C 32.632812 -16.019531 32.667969 -16.042969 32.703125 -16.074219 L 32.71875 -16.089844 C 29.679688 -9.792969 26.984375 -5.4375 24.632812 -3.03125 C 23.425781 -1.796875 22.367188 -0.886719 21.445312 -0.300781 C 20.230469 0.476562 19.136719 0.761719 18.160156 0.554688 L 18.527344 -1.1875 L 18.527344 0.59375 C 17.871094 0.59375 17.160156 0.261719 16.402344 -0.402344 C 15.792969 -0.9375 15.195312 -1.835938 14.613281 -3.09375 C 14.078125 -4.253906 13.597656 -5.949219 13.175781 -8.179688 C 12.761719 -10.347656 12.476562 -13.1875 12.3125 -16.703125 L 14.09375 -16.785156 L 12.316406 -16.660156 C 12.316406 -16.675781 12.3125 -16.691406 12.3125 -16.703125 C 12.3125 -16.699219 12.3125 -16.695312 12.316406 -16.6875 C 12.332031 -16.640625 12.359375 -16.59375 12.402344 -16.542969 C 12.472656 -16.457031 12.535156 -16.40625 12.585938 -16.394531 L 12.523438 -16.410156 L 12.460938 -16.429688 C 12.433594 -16.4375 12.421875 -16.441406 12.417969 -16.441406 C 12.457031 -16.4375 12.496094 -16.445312 12.542969 -16.457031 C 12.632812 -16.484375 12.6875 -16.511719 12.714844 -16.542969 C 12.527344 -16.3125 12.328125 -16.039062 12.113281 -15.730469 C 11.871094 -15.382812 11.613281 -15.015625 11.34375 -14.636719 C 10.382812 -13.300781 9.234375 -11.769531 7.90625 -10.039062 C 6.554688 -8.285156 5.074219 -6.519531 3.457031 -4.738281 L 2.136719 -5.9375 L 3.527344 -4.824219 C 3.25 -4.472656 2.972656 -4.183594 2.703125 -3.953125 C 2.464844 -3.746094 2.234375 -3.570312 2.015625 -3.425781 L -0.308594 -1.875 L -0.730469 -4.636719 C -0.867188 -5.515625 -0.785156 -6.804688 -0.488281 -8.503906 C -0.207031 -10.109375 0.269531 -11.832031 0.9375 -13.671875 C 1.609375 -15.523438 2.453125 -17.289062 3.460938 -18.96875 C 4.535156 -20.757812 5.742188 -22.144531 7.085938 -23.121094 C 7.992188 -23.796875 9.074219 -24.191406 10.339844 -24.300781 C 11.871094 -24.433594 13.472656 -23.519531 15.144531 -21.566406 C 15.082031 -21.644531 15.003906 -21.683594 14.917969 -21.691406 C 14.867188 -21.695312 14.820312 -21.675781 14.773438 -21.636719 C 14.699219 -21.574219 14.65625 -21.496094 14.652344 -21.410156 C 14.648438 -21.359375 14.667969 -21.308594 14.714844 -21.253906 C 13.515625 -22.667969 12.441406 -23.457031 11.492188 -23.621094 C 10.445312 -23.800781 9.601562 -23.765625 8.960938 -23.515625 L 8.925781 -23.503906 L 8.894531 -23.492188 C 7.683594 -23.078125 6.566406 -22.234375 5.539062 -20.96875 C 4.390625 -19.550781 3.386719 -17.917969 2.523438 -16.070312 C 1.648438 -14.191406 0.972656 -12.328125 0.5 -10.484375 C 0.0351562 -8.675781 -0.199219 -7.1875 -0.199219 -6.015625 L -0.199219 -5.976562 C -0.230469 -4.550781 -0.0078125 -3.746094 0.46875 -3.570312 L 0.554688 -3.535156 L 0.636719 -3.492188 C 0.785156 -3.421875 0.925781 -3.410156 1.054688 -3.464844 C 1.488281 -3.644531 1.863281 -3.886719 2.179688 -4.183594 C 2.644531 -4.621094 2.976562 -4.941406 3.175781 -5.140625 L 4.433594 -3.878906 L 3.105469 -5.066406 C 4.402344 -6.515625 5.632812 -7.980469 6.796875 -9.457031 C 7.972656 -10.945312 9.003906 -12.289062 9.890625 -13.488281 L 12.652344 -17.226562 L 13.09375 -12.601562 C 13.5 -8.394531 14.207031 -5.195312 15.214844 -3.003906 C 16.058594 -1.179688 17.0625 -0.15625 18.234375 0.0703125 L 17.894531 1.820312 L 18.1875 0.0625 C 18.40625 0.101562 18.597656 0.117188 18.765625 0.117188 C 19.742188 0.117188 20.757812 -0.277344 21.8125 -1.070312 C 23.050781 -1.996094 24.265625 -3.253906 25.457031 -4.832031 C 26.707031 -6.492188 27.90625 -8.316406 29.058594 -10.3125 C 30.226562 -12.335938 31.300781 -14.355469 32.285156 -16.378906 L 33.886719 -15.597656 L 32.25 -16.300781 C 32.230469 -16.253906 32.226562 -16.214844 32.238281 -16.183594 C 32.273438 -16.070312 32.351562 -15.992188 32.472656 -15.9375 Z M 32.472656 -15.9375 "/></g></g><g style="fill:#3b0039;fill-opacity:1;"><g transform="translate(283.969511, 240.512826)"><path style="stroke:none" d="M 34.796875 -67.59375 C 35.261719 -67.285156 35.640625 -66.757812 35.9375 -66.019531 C 36.179688 -65.414062 36.300781 -64.507812 36.300781 -63.300781 C 36.300781 -62.191406 36.078125 -60.636719 35.625 -58.632812 C 35.191406 -56.707031 34.464844 -54.164062 33.445312 -50.996094 L 33.433594 -50.957031 L 33.417969 -50.917969 C 33.273438 -50.535156 33.144531 -50.140625 33.023438 -49.734375 C 32.878906 -49.242188 32.71875 -48.769531 32.546875 -48.304688 L 30.878906 -48.929688 L 32.574219 -48.386719 C 31.355469 -44.5625 29.867188 -40.277344 28.117188 -35.527344 C 26.347656 -30.730469 23.964844 -25.496094 20.972656 -19.832031 L 19.398438 -20.664062 L 21.144531 -20.316406 C 20.460938 -16.890625 19.75 -13.238281 19.011719 -9.367188 C 18.273438 -5.496094 17.535156 -1.40625 16.800781 2.914062 C 15.851562 8.753906 15.101562 13.566406 14.550781 17.359375 C 14 21.128906 13.621094 24.121094 13.414062 26.335938 C 13.203125 28.550781 13.074219 30.222656 13.023438 31.355469 L 11.242188 31.273438 L 10.617188 29.605469 C 11.457031 29.292969 12.296875 29.292969 13.136719 29.605469 L 13.269531 29.65625 L 13.394531 29.726562 C 14.15625 30.164062 14.675781 30.796875 14.953125 31.621094 C 15.226562 32.445312 15.195312 33.25 14.859375 34.035156 C 14.546875 34.726562 14.125 35.46875 13.597656 36.261719 C 12.769531 37.503906 11.695312 38.125 10.371094 38.125 C 10.015625 38.125 9.660156 38.078125 9.304688 37.992188 L 9.226562 37.96875 C 8.171875 37.652344 7.402344 36.9375 6.917969 35.824219 C 6.550781 34.980469 6.382812 33.574219 6.414062 31.601562 C 6.441406 29.824219 6.667969 27.164062 7.097656 23.617188 C 7.734375 18.105469 8.792969 10.851562 10.277344 1.847656 C 11.125 -3.082031 12 -7.875 12.898438 -12.53125 L 14.648438 -12.191406 L 16.160156 -11.25 C 15.359375 -9.96875 14.519531 -8.664062 13.640625 -7.332031 C 12.761719 -6 11.84375 -4.644531 10.886719 -3.261719 C 9.359375 -0.996094 7.933594 0.632812 6.609375 1.625 C 5.164062 2.707031 3.828125 3.289062 2.601562 3.363281 C 1.390625 3.433594 0.34375 3.230469 -0.535156 2.75 L -0.5625 2.738281 L -0.589844 2.722656 C -2.21875 1.757812 -3.238281 0.140625 -3.652344 -2.136719 C -4.007812 -4.089844 -3.96875 -6.265625 -3.535156 -8.667969 C -3.113281 -11.003906 -2.425781 -13.238281 -1.46875 -15.375 C 0.53125 -19.601562 2.867188 -22.609375 5.539062 -24.402344 C 8.398438 -26.316406 10.933594 -26.960938 13.152344 -26.339844 L 13.261719 -26.308594 L 13.371094 -26.261719 C 13.851562 -26.054688 14.539062 -25.640625 15.429688 -25.015625 C 16.667969 -24.148438 17.394531 -22.679688 17.605469 -20.609375 L 15.835938 -20.425781 L 14.324219 -21.371094 C 14.558594 -21.746094 14.769531 -22.117188 14.953125 -22.492188 L 16.546875 -21.695312 L 14.804688 -22.070312 C 16.769531 -31.1875 18.703125 -39.054688 20.617188 -45.664062 C 22.539062 -52.320312 24.351562 -57.519531 26.050781 -61.265625 C 26.925781 -63.199219 27.75 -64.714844 28.519531 -65.816406 C 29.453125 -67.15625 30.402344 -67.976562 31.367188 -68.285156 L 31.90625 -66.585938 L 31.308594 -68.265625 C 32.015625 -68.515625 32.703125 -68.5625 33.367188 -68.394531 C 34.035156 -68.226562 34.621094 -67.867188 35.125 -67.308594 L 33.808594 -66.113281 Z M 32.820312 -64.628906 L 32.636719 -64.75 L 32.488281 -64.914062 C 32.464844 -64.941406 32.445312 -64.957031 32.4375 -64.964844 C 32.453125 -64.953125 32.476562 -64.945312 32.503906 -64.9375 C 32.535156 -64.929688 32.558594 -64.925781 32.578125 -64.929688 C 32.566406 -64.929688 32.542969 -64.921875 32.507812 -64.910156 L 32.476562 -64.898438 L 32.449219 -64.890625 C 32.410156 -64.878906 32.328125 -64.8125 32.203125 -64.695312 C 31.972656 -64.480469 31.71875 -64.175781 31.4375 -63.773438 C 30.792969 -62.855469 30.082031 -61.527344 29.292969 -59.792969 C 27.667969 -56.203125 25.914062 -51.164062 24.039062 -44.675781 C 22.148438 -38.144531 20.234375 -30.359375 18.289062 -21.320312 L 18.242188 -21.097656 L 18.140625 -20.898438 C 17.90625 -20.425781 17.640625 -19.953125 17.347656 -19.484375 L 14.597656 -15.085938 L 14.0625 -20.242188 C 13.960938 -21.234375 13.734375 -21.851562 13.386719 -22.09375 C 12.695312 -22.578125 12.222656 -22.875 11.964844 -22.984375 L 12.667969 -24.625 L 12.1875 -22.910156 C 11.023438 -23.234375 9.46875 -22.746094 7.523438 -21.441406 C 5.394531 -20.015625 3.480469 -17.507812 1.785156 -13.917969 C 0.945312 -12.046875 0.34375 -10.085938 -0.0273438 -8.035156 C -0.386719 -6.058594 -0.425781 -4.304688 -0.148438 -2.773438 C 0.0742188 -1.566406 0.527344 -0.757812 1.222656 -0.347656 L 0.316406 1.1875 L 1.167969 -0.375 C 1.449219 -0.222656 1.855469 -0.164062 2.386719 -0.195312 C 2.902344 -0.226562 3.597656 -0.570312 4.472656 -1.226562 C 5.472656 -1.976562 6.636719 -3.332031 7.957031 -5.289062 C 8.898438 -6.652344 9.804688 -7.984375 10.667969 -9.292969 C 11.527344 -10.601562 12.351562 -11.882812 13.136719 -13.136719 L 16.398438 -11.855469 C 15.5 -7.222656 14.632812 -2.460938 13.792969 2.425781 C 12.320312 11.371094 11.265625 18.578125 10.636719 24.046875 C 10.222656 27.46875 10 30.003906 9.976562 31.65625 C 9.953125 33.117188 10.023438 34.03125 10.183594 34.402344 C 10.222656 34.492188 10.253906 34.546875 10.285156 34.574219 C 10.273438 34.566406 10.261719 34.558594 10.25 34.554688 L 9.738281 36.261719 L 10.171875 34.535156 C 10.238281 34.550781 10.308594 34.558594 10.371094 34.558594 C 10.421875 34.558594 10.507812 34.46875 10.632812 34.285156 C 11.054688 33.652344 11.371094 33.101562 11.585938 32.632812 C 11.566406 32.675781 11.5625 32.714844 11.570312 32.75 C 11.582031 32.78125 11.601562 32.808594 11.625 32.820312 L 12.507812 31.273438 L 11.882812 32.941406 C 11.878906 32.941406 11.875 32.941406 11.867188 32.941406 L 9.339844 33.890625 L 9.464844 31.195312 C 9.515625 30.003906 9.652344 28.273438 9.863281 26 C 10.078125 23.726562 10.464844 20.675781 11.023438 16.84375 C 11.578125 13.035156 12.332031 8.191406 13.289062 2.3125 C 14.027344 -2.027344 14.769531 -6.140625 15.511719 -10.03125 C 16.25 -13.917969 16.964844 -17.578125 17.652344 -21.015625 L 17.703125 -21.269531 L 17.824219 -21.496094 C 20.742188 -27.023438 23.058594 -32.109375 24.773438 -36.761719 C 26.503906 -41.460938 27.976562 -45.695312 29.179688 -49.472656 L 29.195312 -49.515625 L 29.210938 -49.554688 C 29.351562 -49.9375 29.484375 -50.332031 29.605469 -50.738281 C 29.75 -51.230469 29.90625 -51.707031 30.082031 -52.167969 L 31.75 -51.542969 L 30.054688 -52.089844 C 31.039062 -55.152344 31.738281 -57.59375 32.148438 -59.417969 C 32.542969 -61.160156 32.738281 -62.457031 32.738281 -63.300781 C 32.738281 -64.046875 32.703125 -64.515625 32.628906 -64.699219 C 32.589844 -64.792969 32.558594 -64.859375 32.539062 -64.894531 C 32.59375 -64.804688 32.6875 -64.714844 32.820312 -64.628906 Z M 5.5 -7.023438 C 6.753906 -8.855469 7.941406 -10.65625 9.0625 -12.433594 C 10.1875 -14.207031 11.242188 -15.953125 12.234375 -17.675781 L 13.777344 -16.785156 L 13.214844 -15.09375 C 12.402344 -15.367188 11.800781 -15.820312 11.417969 -16.460938 C 11.023438 -17.121094 10.910156 -17.871094 11.078125 -18.71875 L 12.828125 -18.367188 L 11.042969 -18.367188 C 11.042969 -18.71875 11.03125 -19.292969 11.007812 -20.09375 C 11.003906 -20.160156 11 -20.210938 10.988281 -20.246094 C 10.992188 -20.234375 11.003906 -20.214844 11.019531 -20.1875 C 11.082031 -20.09375 11.152344 -20.03125 11.234375 -20.003906 L 11.113281 -20.042969 L 11 -20.101562 C 11.105469 -20.046875 11.210938 -20.011719 11.304688 -19.996094 L 11.320312 -19.992188 C 11.113281 -19.992188 10.8125 -19.886719 10.417969 -19.679688 C 9.882812 -19.398438 9.261719 -18.960938 8.558594 -18.359375 C 7.144531 -17.152344 5.804688 -15.210938 4.539062 -12.539062 C 3.714844 -10.796875 3.1875 -9.152344 2.949219 -7.605469 C 2.710938 -6.0625 2.660156 -4.792969 2.792969 -3.804688 C 2.851562 -3.378906 2.921875 -3.070312 3.007812 -2.871094 L 3.003906 -2.859375 C 2.929688 -2.953125 2.828125 -3.03125 2.695312 -3.097656 L 2.796875 -3.046875 L 2.886719 -2.988281 C 2.5625 -3.203125 2.222656 -3.289062 1.871094 -3.25 C 1.828125 -3.242188 1.789062 -3.238281 1.757812 -3.226562 C 1.757812 -3.226562 1.765625 -3.230469 1.777344 -3.234375 C 1.941406 -3.296875 2.191406 -3.421875 2.53125 -3.613281 C 3.144531 -3.957031 4.136719 -5.101562 5.511719 -7.046875 Z M 8.421875 -4.988281 C 6.738281 -2.605469 5.355469 -1.113281 4.277344 -0.503906 C 3.773438 -0.222656 3.351562 -0.015625 3.011719 0.109375 C 2.195312 0.410156 1.492188 0.367188 0.910156 -0.0234375 L 1.898438 -1.503906 L 1.101562 0.0898438 C 0.121094 -0.402344 -0.492188 -1.539062 -0.734375 -3.320312 C -0.917969 -4.652344 -0.863281 -6.261719 -0.574219 -8.148438 C -0.28125 -10.035156 0.347656 -12.007812 1.320312 -14.0625 C 2.800781 -17.195312 4.441406 -19.53125 6.246094 -21.070312 C 8.191406 -22.726562 9.882812 -23.554688 11.320312 -23.554688 C 11.8125 -23.554688 12.238281 -23.464844 12.59375 -23.289062 L 11.796875 -21.695312 L 12.359375 -23.382812 C 13.074219 -23.144531 13.628906 -22.722656 14.019531 -22.109375 C 14.359375 -21.578125 14.542969 -20.945312 14.566406 -20.207031 C 14.59375 -19.371094 14.609375 -18.757812 14.609375 -18.367188 L 14.609375 -18.191406 L 14.574219 -18.019531 L 14.566406 -18.035156 C 14.554688 -18.125 14.523438 -18.210938 14.472656 -18.296875 C 14.425781 -18.375 14.371094 -18.4375 14.308594 -18.480469 C 14.296875 -18.488281 14.289062 -18.496094 14.285156 -18.496094 C 14.296875 -18.488281 14.316406 -18.484375 14.339844 -18.476562 L 16.410156 -17.785156 L 15.320312 -15.894531 C 14.304688 -14.132812 13.222656 -12.34375 12.074219 -10.527344 C 10.929688 -8.714844 9.714844 -6.875 8.4375 -5.011719 Z M 27.132812 -53.070312 C 27.753906 -54.875 28.226562 -56.425781 28.558594 -57.722656 C 28.898438 -59.050781 29.167969 -60.183594 29.375 -61.113281 L 31.117188 -60.726562 L 32.71875 -59.949219 C 31.746094 -57.953125 30.5625 -54.910156 29.160156 -50.808594 C 27.75 -46.683594 26.207031 -41.367188 24.527344 -34.867188 L 22.800781 -35.3125 L 21.15625 -35.992188 C 22.25 -38.648438 23.199219 -41.171875 24.003906 -43.5625 C 24.820312 -45.984375 25.570312 -48.246094 26.253906 -50.351562 C 26.410156 -50.816406 26.550781 -51.261719 26.675781 -51.691406 C 26.820312 -52.179688 26.976562 -52.65625 27.152344 -53.117188 L 28.820312 -52.492188 Z M 30.503906 -51.914062 L 30.488281 -51.867188 C 30.34375 -51.484375 30.214844 -51.089844 30.09375 -50.683594 C 29.957031 -50.214844 29.804688 -49.738281 29.644531 -49.25 C 28.957031 -47.132812 28.199219 -44.859375 27.378906 -42.421875 C 26.550781 -39.957031 25.574219 -37.363281 24.449219 -34.632812 L 21.078125 -35.757812 C 22.777344 -42.347656 24.347656 -47.746094 25.789062 -51.960938 C 27.238281 -56.199219 28.480469 -59.382812 29.515625 -61.507812 L 32.855469 -60.339844 C 32.640625 -59.371094 32.359375 -58.207031 32.011719 -56.84375 C 31.65625 -55.449219 31.152344 -53.808594 30.503906 -51.914062 Z M 30.503906 -51.914062 "/></g></g><g style="fill:#3b0039;fill-opacity:1;"><g transform="translate(320.546882, 240.512826)"><path style="stroke:none" d="M 27.644531 -19.203125 C 28.53125 -18.695312 29.035156 -17.9375 29.164062 -16.925781 C 29.269531 -16.066406 29.097656 -15.292969 28.640625 -14.609375 L 28.621094 -14.582031 L 28.601562 -14.558594 C 25.449219 -10.171875 22.554688 -6.542969 19.921875 -3.664062 C 17.25 -0.75 14.570312 1.667969 11.882812 3.585938 C 9.613281 5.179688 7.34375 5.976562 5.066406 5.976562 C 3.207031 5.976562 1.570312 5.472656 0.152344 4.457031 C -0.816406 3.769531 -1.71875 2.625 -2.5625 1.03125 C -3.410156 -0.5625 -3.859375 -2.78125 -3.917969 -5.625 C -3.976562 -8.378906 -3.316406 -11.9375 -1.9375 -16.292969 L -0.238281 -15.757812 L -2.019531 -15.757812 L -2.019531 -16.105469 L -1.9375 -16.367188 C -0.289062 -21.648438 1.675781 -25.707031 3.953125 -28.550781 C 6.433594 -31.640625 8.710938 -33.222656 10.785156 -33.292969 C 11.769531 -33.335938 12.621094 -33.117188 13.339844 -32.636719 C 14.074219 -32.148438 14.597656 -31.433594 14.914062 -30.492188 L 13.222656 -29.929688 L 14.886719 -30.558594 C 15.691406 -28.445312 14.9375 -25.71875 12.628906 -22.382812 C 10.582031 -19.425781 7.597656 -16.3125 3.675781 -13.042969 L 2.535156 -14.410156 L 4.234375 -13.875 C 3.132812 -10.371094 2.605469 -7.671875 2.652344 -5.785156 C 2.695312 -4 2.910156 -2.773438 3.289062 -2.109375 C 3.710938 -1.375 3.996094 -0.941406 4.148438 -0.816406 L 3.007812 0.554688 L 4.0625 -0.882812 C 4.949219 -0.234375 6.28125 -0.550781 8.0625 -1.839844 C 10.398438 -3.464844 12.761719 -5.589844 15.152344 -8.207031 C 17.585938 -10.871094 20.257812 -14.257812 23.171875 -18.371094 L 23.210938 -18.425781 L 23.253906 -18.480469 C 23.792969 -19.125 24.480469 -19.527344 25.324219 -19.683594 C 26.296875 -19.867188 27.15625 -19.648438 27.902344 -19.023438 L 26.761719 -17.65625 Z M 25.878906 -16.109375 L 25.742188 -16.1875 L 25.621094 -16.289062 C 25.734375 -16.191406 25.855469 -16.160156 25.980469 -16.183594 L 25.96875 -16.183594 C 25.980469 -16.1875 25.988281 -16.195312 25.992188 -16.199219 L 24.625 -17.339844 L 26.078125 -16.308594 C 23.078125 -12.078125 20.316406 -8.578125 17.785156 -5.804688 C 15.214844 -2.988281 12.667969 -0.703125 10.148438 1.046875 C 8.679688 2.113281 7.292969 2.746094 5.996094 2.949219 C 4.492188 3.183594 3.144531 2.863281 1.957031 1.992188 L 1.910156 1.957031 L 1.867188 1.921875 C 1.386719 1.523438 0.828125 0.765625 0.195312 -0.34375 C -0.480469 -1.527344 -0.851562 -3.3125 -0.910156 -5.695312 C -0.96875 -7.976562 -0.386719 -11.0625 0.832031 -14.945312 L 0.992188 -15.445312 L 1.394531 -15.777344 C 5.070312 -18.84375 7.835938 -21.71875 9.699219 -24.410156 C 10.574219 -25.675781 11.15625 -26.765625 11.445312 -27.683594 C 11.664062 -28.378906 11.699219 -28.917969 11.554688 -29.296875 L 11.542969 -29.332031 L 11.53125 -29.363281 C 11.476562 -29.53125 11.417969 -29.636719 11.363281 -29.671875 C 11.289062 -29.722656 11.136719 -29.742188 10.910156 -29.730469 C 10.511719 -29.71875 10.003906 -29.480469 9.382812 -29.019531 C 8.589844 -28.433594 7.707031 -27.53125 6.734375 -26.320312 C 4.738281 -23.828125 2.980469 -20.15625 1.464844 -15.304688 L -0.238281 -15.835938 L 1.542969 -15.835938 L 1.542969 -15.480469 L 1.460938 -15.21875 C 0.199219 -11.234375 -0.40625 -8.0625 -0.355469 -5.699219 C -0.308594 -3.417969 0.00390625 -1.730469 0.585938 -0.636719 C 1.167969 0.460938 1.710938 1.195312 2.222656 1.558594 C 3.023438 2.128906 3.96875 2.414062 5.066406 2.414062 C 6.59375 2.414062 8.171875 1.839844 9.8125 0.6875 C 12.296875 -1.085938 14.789062 -3.339844 17.292969 -6.074219 C 19.832031 -8.84375 22.636719 -12.367188 25.710938 -16.636719 L 27.15625 -15.597656 L 25.675781 -16.585938 C 25.65625 -16.554688 25.640625 -16.523438 25.632812 -16.484375 L 25.625 -16.484375 C 25.648438 -16.316406 25.730469 -16.191406 25.878906 -16.109375 Z M 11.25 -26.683594 C 10.820312 -26.410156 10.164062 -25.75 9.277344 -24.703125 C 8.378906 -23.636719 7.433594 -22.039062 6.445312 -19.914062 L 4.828125 -20.664062 L 3.585938 -21.941406 C 5.382812 -23.6875 6.632812 -25.140625 7.347656 -26.304688 C 8.050781 -27.453125 8.460938 -28.238281 8.574219 -28.65625 L 10.292969 -28.1875 Z M 9.335938 -29.691406 L 13.222656 -32.164062 L 12.011719 -27.71875 C 11.808594 -26.972656 11.265625 -25.882812 10.386719 -24.445312 C 9.515625 -23.023438 8.078125 -21.339844 6.070312 -19.386719 L 3.214844 -21.417969 C 4.335938 -23.828125 5.449219 -25.691406 6.554688 -27 C 7.675781 -28.328125 8.601562 -29.222656 9.335938 -29.691406 Z M 9.335938 -29.691406 "/></g></g><g style="fill:#3b0039;fill-opacity:1;"><g transform="translate(130.619307, 240.512826)"><path style="stroke:none" d="M 99.125 -68.328125 C 99.28125 -65.742188 99.144531 -62.328125 98.71875 -58.078125 C 98.300781 -53.828125 97.679688 -49.007812 96.859375 -43.625 C 96.046875 -38.238281 95.097656 -32.550781 94.015625 -26.5625 C 92.929688 -20.570312 91.835938 -14.539062 90.734375 -8.46875 C 89.992188 -4.25 89.226562 0.0625 88.4375 4.46875 C 87.644531 8.875 86.914062 13.097656 86.25 17.140625 C 85.59375 21.179688 85.078125 24.742188 84.703125 27.828125 C 84.335938 30.910156 84.179688 33.21875 84.234375 34.75 C 84.453125 34.382812 84.691406 33.988281 84.953125 33.5625 C 85.160156 33.195312 85.460938 32.960938 85.859375 32.859375 C 86.253906 32.753906 86.640625 32.804688 87.015625 33.015625 C 87.378906 33.222656 87.613281 33.523438 87.71875 33.921875 C 87.820312 34.316406 87.769531 34.703125 87.5625 35.078125 C 86.925781 36.128906 86.238281 37.085938 85.5 37.953125 C 84.757812 38.828125 83.890625 39.109375 82.890625 38.796875 C 82.304688 38.523438 81.867188 37.953125 81.578125 37.078125 C 81.296875 36.210938 81.191406 34.789062 81.265625 32.8125 C 81.347656 30.832031 81.625 28.085938 82.09375 24.578125 C 82.570312 21.066406 83.269531 16.566406 84.1875 11.078125 C 85.113281 5.585938 86.316406 -1.085938 87.796875 -8.953125 C 88.804688 -14.753906 89.835938 -20.609375 90.890625 -26.515625 C 91.941406 -32.429688 92.890625 -38.082031 93.734375 -43.46875 C 94.578125 -48.851562 95.222656 -53.679688 95.671875 -57.953125 C 96.128906 -62.222656 96.273438 -65.601562 96.109375 -68.09375 C 96.003906 -69.625 95.789062 -70.742188 95.46875 -71.453125 C 95.15625 -72.160156 94.84375 -72.539062 94.53125 -72.59375 C 94.53125 -72.59375 94.503906 -72.59375 94.453125 -72.59375 C 93.921875 -72.59375 92.992188 -72.023438 91.671875 -70.890625 C 90.359375 -69.765625 88.710938 -67.75 86.734375 -64.84375 C 84.753906 -61.9375 82.414062 -57.816406 79.71875 -52.484375 C 76.976562 -46.992188 73.578125 -39.171875 69.515625 -29.015625 C 65.453125 -18.859375 61.125 -5.804688 56.53125 10.140625 C 56.269531 11.085938 55.660156 11.457031 54.703125 11.25 C 53.753906 11.03125 53.359375 10.445312 53.515625 9.5 C 57.210938 -12.25 59.191406 -28.582031 59.453125 -39.5 C 59.554688 -42.882812 59.503906 -45.539062 59.296875 -47.46875 C 59.085938 -49.394531 58.820312 -50.789062 58.5 -51.65625 C 58.1875 -52.53125 57.910156 -53.082031 57.671875 -53.3125 C 57.441406 -53.550781 57.296875 -53.695312 57.234375 -53.75 C 57.179688 -53.75 56.929688 -53.671875 56.484375 -53.515625 C 56.035156 -53.359375 55.335938 -52.832031 54.390625 -51.9375 C 53.441406 -51.039062 52.210938 -49.484375 50.703125 -47.265625 C 49.203125 -45.046875 47.394531 -41.90625 45.28125 -37.84375 C 43.175781 -33.78125 40.695312 -28.503906 37.84375 -22.015625 C 34.9375 -15.304688 32.019531 -8.054688 29.09375 -0.265625 C 26.164062 7.515625 23.351562 15.492188 20.65625 23.671875 C 17.96875 31.847656 15.515625 39.867188 13.296875 47.734375 C 13.296875 47.734375 13.296875 47.757812 13.296875 47.8125 C 12.929688 48.769531 12.550781 49.617188 12.15625 50.359375 C 11.757812 51.097656 11.242188 51.46875 10.609375 51.46875 C 10.453125 51.46875 10.269531 51.4375 10.0625 51.375 C 9.320312 51.113281 8.9375 50.546875 8.90625 49.671875 C 8.882812 48.804688 9.003906 47.453125 9.265625 45.609375 C 9.628906 43.117188 10.257812 39.554688 11.15625 34.921875 C 12.738281 26.941406 15.0625 16.015625 18.125 2.140625 C 19.5 -4.242188 20.882812 -10.535156 22.28125 -16.734375 C 23.6875 -22.941406 24.992188 -28.695312 26.203125 -34 C 27.421875 -39.3125 28.476562 -43.863281 29.375 -47.65625 C 30.269531 -51.457031 30.898438 -54.125 31.265625 -55.65625 C 32.117188 -59.300781 32.554688 -62.054688 32.578125 -63.921875 C 32.609375 -65.796875 32.453125 -67.101562 32.109375 -67.84375 C 31.765625 -68.582031 31.484375 -69.035156 31.265625 -69.203125 C 30.691406 -69.566406 29.8125 -69.507812 28.625 -69.03125 C 27.4375 -68.5625 26.078125 -67.742188 24.546875 -66.578125 C 22.484375 -64.992188 20.367188 -62.9375 18.203125 -60.40625 C 16.046875 -57.875 14.003906 -55.101562 12.078125 -52.09375 C 10.148438 -49.082031 8.507812 -46.03125 7.15625 -42.9375 C 5.8125 -39.851562 4.890625 -36.882812 4.390625 -34.03125 C 3.890625 -31.1875 4.007812 -28.679688 4.75 -26.515625 C 6.28125 -21.984375 10.660156 -19.664062 17.890625 -19.5625 C 18.316406 -19.5625 18.671875 -19.398438 18.953125 -19.078125 C 19.242188 -18.765625 19.390625 -18.394531 19.390625 -17.96875 C 19.390625 -17.550781 19.234375 -17.195312 18.921875 -16.90625 C 18.609375 -16.613281 18.265625 -16.46875 17.890625 -16.46875 C 17.890625 -16.46875 17.875 -16.46875 17.84375 -16.46875 C 17.820312 -16.46875 17.8125 -16.46875 17.8125 -16.46875 C 15.863281 -16.519531 13.804688 -16.796875 11.640625 -17.296875 C 9.472656 -17.796875 7.503906 -18.691406 5.734375 -19.984375 C 3.972656 -21.285156 2.671875 -23.148438 1.828125 -25.578125 C 1.191406 -27.523438 0.9375 -29.582031 1.0625 -31.75 C 1.195312 -33.914062 1.582031 -36.066406 2.21875 -38.203125 C 2.851562 -40.335938 3.578125 -42.34375 4.390625 -44.21875 C 5.210938 -46.09375 5.992188 -47.71875 6.734375 -49.09375 C 8.890625 -53.050781 11.394531 -56.820312 14.25 -60.40625 C 17.101562 -64 19.925781 -66.875 22.71875 -69.03125 C 25.414062 -71.09375 27.582031 -72.1875 29.21875 -72.3125 C 30.851562 -72.445312 32.09375 -72.253906 32.9375 -71.734375 C 36 -69.773438 36.421875 -64.175781 34.203125 -54.9375 C 33.617188 -52.507812 32.863281 -49.300781 31.9375 -45.3125 C 31.019531 -41.332031 29.992188 -36.835938 28.859375 -31.828125 C 27.722656 -26.816406 26.519531 -21.523438 25.25 -15.953125 C 23.988281 -10.378906 22.738281 -4.785156 21.5 0.828125 C 20.257812 6.453125 19.070312 11.890625 17.9375 17.140625 C 16.800781 22.390625 15.8125 27.179688 14.96875 31.515625 C 16.96875 25.128906 19.078125 18.738281 21.296875 12.34375 C 23.515625 5.957031 25.785156 -0.238281 28.109375 -6.25 C 30.429688 -12.269531 32.753906 -17.945312 35.078125 -23.28125 C 38.140625 -30.300781 40.828125 -35.988281 43.140625 -40.34375 C 45.460938 -44.695312 47.46875 -48.035156 49.15625 -50.359375 C 50.851562 -52.679688 52.28125 -54.289062 53.4375 -55.1875 C 54.601562 -56.082031 55.539062 -56.582031 56.25 -56.6875 C 56.96875 -56.789062 57.535156 -56.789062 57.953125 -56.6875 C 58.691406 -56.53125 59.40625 -56.054688 60.09375 -55.265625 C 60.78125 -54.472656 61.347656 -53.140625 61.796875 -51.265625 C 62.242188 -49.390625 62.503906 -46.75 62.578125 -43.34375 C 62.660156 -39.9375 62.476562 -35.566406 62.03125 -30.234375 C 61.582031 -24.910156 60.832031 -18.367188 59.78125 -10.609375 C 63 -20.367188 66.253906 -29.273438 69.546875 -37.328125 C 72.847656 -45.378906 76.054688 -52.289062 79.171875 -58.0625 C 82.285156 -63.84375 85.1875 -68.265625 87.875 -71.328125 C 90.570312 -74.390625 92.921875 -75.816406 94.921875 -75.609375 C 97.398438 -75.347656 98.800781 -72.921875 99.125 -68.328125 Z M 99.125 -68.328125 "/></g></g><g style="fill:#3b0039;fill-opacity:1;"><g transform="translate(242.721334, 240.512826)"><path style="stroke:none" d="M 33.171875 -17.578125 C 33.546875 -17.421875 33.796875 -17.144531 33.921875 -16.75 C 34.054688 -16.351562 34.046875 -15.96875 33.890625 -15.59375 C 32.878906 -13.539062 31.78125 -11.484375 30.59375 -9.421875 C 29.40625 -7.359375 28.164062 -5.46875 26.875 -3.75 C 25.582031 -2.039062 24.25 -0.671875 22.875 0.359375 C 21.507812 1.390625 20.140625 1.90625 18.765625 1.90625 C 18.503906 1.90625 18.210938 1.878906 17.890625 1.828125 C 14.359375 1.140625 12.171875 -3.613281 11.328125 -12.4375 C 10.421875 -11.21875 9.375 -9.851562 8.1875 -8.34375 C 7 -6.84375 5.75 -5.351562 4.4375 -3.875 C 4.21875 -3.664062 3.867188 -3.335938 3.390625 -2.890625 C 2.921875 -2.441406 2.367188 -2.082031 1.734375 -1.8125 C 1.109375 -1.550781 0.476562 -1.582031 -0.15625 -1.90625 C -1.425781 -2.375 -2.035156 -3.742188 -1.984375 -6.015625 C -1.984375 -7.335938 -1.726562 -8.972656 -1.21875 -10.921875 C -0.71875 -12.878906 -0.0078125 -14.847656 0.90625 -16.828125 C 1.832031 -18.804688 2.914062 -20.5625 4.15625 -22.09375 C 5.394531 -23.625 6.78125 -24.648438 8.3125 -25.171875 C 9.257812 -25.546875 10.421875 -25.613281 11.796875 -25.375 C 13.171875 -25.132812 14.597656 -24.144531 16.078125 -22.40625 C 16.335938 -22.09375 16.453125 -21.722656 16.421875 -21.296875 C 16.398438 -20.867188 16.226562 -20.523438 15.90625 -20.265625 C 15.59375 -20.003906 15.222656 -19.882812 14.796875 -19.90625 C 14.378906 -19.9375 14.039062 -20.109375 13.78125 -20.421875 C 12.507812 -21.898438 11.410156 -22.597656 10.484375 -22.515625 C 9.566406 -22.441406 8.789062 -22.164062 8.15625 -21.6875 C 6.988281 -20.84375 5.929688 -19.628906 4.984375 -18.046875 C 4.035156 -16.460938 3.242188 -14.800781 2.609375 -13.0625 C 1.972656 -11.320312 1.523438 -9.695312 1.265625 -8.1875 C 1.003906 -6.6875 0.925781 -5.59375 1.03125 -4.90625 C 1.1875 -5.007812 1.359375 -5.140625 1.546875 -5.296875 C 1.734375 -5.460938 1.929688 -5.675781 2.140625 -5.9375 C 3.722656 -7.675781 5.171875 -9.40625 6.484375 -11.125 C 7.804688 -12.84375 8.941406 -14.359375 9.890625 -15.671875 C 10.160156 -16.046875 10.410156 -16.40625 10.640625 -16.75 C 10.878906 -17.09375 11.109375 -17.394531 11.328125 -17.65625 C 11.742188 -18.1875 12.296875 -18.34375 12.984375 -18.125 C 13.671875 -17.96875 14.039062 -17.519531 14.09375 -16.78125 C 14.25 -13.351562 14.523438 -10.597656 14.921875 -8.515625 C 15.316406 -6.429688 15.75 -4.875 16.21875 -3.84375 C 16.695312 -2.8125 17.144531 -2.109375 17.5625 -1.734375 C 17.988281 -1.367188 18.3125 -1.1875 18.53125 -1.1875 C 19.53125 -0.976562 21.140625 -2.003906 23.359375 -4.265625 C 25.578125 -6.535156 28.160156 -10.734375 31.109375 -16.859375 C 31.328125 -17.285156 31.632812 -17.5625 32.03125 -17.6875 C 32.425781 -17.820312 32.804688 -17.785156 33.171875 -17.578125 Z M 33.171875 -17.578125 "/></g></g><g style="fill:#3b0039;fill-opacity:1;"><g transform="translate(283.969511, 240.512826)"><path style="stroke:none" d="M 33.8125 -66.109375 C 33.96875 -66.003906 34.125 -65.753906 34.28125 -65.359375 C 34.4375 -64.960938 34.515625 -64.273438 34.515625 -63.296875 C 34.515625 -62.316406 34.300781 -60.890625 33.875 -59.015625 C 33.457031 -57.148438 32.75 -54.660156 31.75 -51.546875 C 31.59375 -51.117188 31.445312 -50.679688 31.3125 -50.234375 C 31.175781 -49.785156 31.03125 -49.347656 30.875 -48.921875 C 29.664062 -45.128906 28.1875 -40.867188 26.4375 -36.140625 C 24.695312 -31.421875 22.347656 -26.257812 19.390625 -20.65625 C 18.710938 -17.226562 18.003906 -13.570312 17.265625 -9.6875 C 16.523438 -5.8125 15.785156 -1.710938 15.046875 2.609375 C 14.097656 8.472656 13.34375 13.300781 12.78125 17.09375 C 12.226562 20.894531 11.847656 23.914062 11.640625 26.15625 C 11.429688 28.40625 11.300781 30.109375 11.25 31.265625 C 11.664062 31.109375 12.085938 31.109375 12.515625 31.265625 C 12.878906 31.484375 13.125 31.789062 13.25 32.1875 C 13.382812 32.582031 13.375 32.960938 13.21875 33.328125 C 12.957031 33.910156 12.585938 34.554688 12.109375 35.265625 C 11.640625 35.984375 11.0625 36.34375 10.375 36.34375 C 10.164062 36.34375 9.953125 36.316406 9.734375 36.265625 C 9.210938 36.097656 8.816406 35.710938 8.546875 35.109375 C 8.285156 34.503906 8.164062 33.34375 8.1875 31.625 C 8.21875 29.914062 8.445312 27.316406 8.875 23.828125 C 9.5 18.335938 10.550781 11.109375 12.03125 2.140625 C 12.875 -2.765625 13.742188 -7.539062 14.640625 -12.1875 C 13.847656 -10.925781 13.015625 -9.632812 12.140625 -8.3125 C 11.273438 -6.988281 10.367188 -5.644531 9.421875 -4.28125 C 7.992188 -2.164062 6.695312 -0.675781 5.53125 0.1875 C 4.375 1.0625 3.359375 1.523438 2.484375 1.578125 C 1.617188 1.628906 0.894531 1.5 0.3125 1.1875 C -0.84375 0.5 -1.578125 -0.710938 -1.890625 -2.453125 C -2.210938 -4.191406 -2.175781 -6.15625 -1.78125 -8.34375 C -1.382812 -10.539062 -0.738281 -12.640625 0.15625 -14.640625 C 2 -18.546875 4.125 -21.300781 6.53125 -22.90625 C 8.9375 -24.519531 10.984375 -25.09375 12.671875 -24.625 C 13.035156 -24.46875 13.613281 -24.109375 14.40625 -23.546875 C 15.195312 -22.992188 15.671875 -21.953125 15.828125 -20.421875 C 16.097656 -20.847656 16.335938 -21.269531 16.546875 -21.6875 C 18.492188 -30.769531 20.414062 -38.597656 22.3125 -45.171875 C 24.21875 -51.742188 26.003906 -56.863281 27.671875 -60.53125 C 29.335938 -64.195312 30.75 -66.210938 31.90625 -66.578125 C 32.644531 -66.847656 33.28125 -66.691406 33.8125 -66.109375 Z M 6.96875 -6.015625 C 8.238281 -7.859375 9.4375 -9.675781 10.5625 -11.46875 C 11.695312 -13.269531 12.769531 -15.039062 13.78125 -16.78125 C 12.988281 -17.050781 12.671875 -17.582031 12.828125 -18.375 C 12.828125 -18.738281 12.8125 -19.328125 12.78125 -20.140625 C 12.757812 -20.960938 12.429688 -21.476562 11.796875 -21.6875 C 11.691406 -21.738281 11.535156 -21.765625 11.328125 -21.765625 C 10.316406 -21.765625 9.003906 -21.078125 7.390625 -19.703125 C 5.785156 -18.335938 4.296875 -16.203125 2.921875 -13.296875 C 2.023438 -11.398438 1.445312 -9.59375 1.1875 -7.875 C 0.925781 -6.15625 0.875 -4.71875 1.03125 -3.5625 C 1.1875 -2.40625 1.476562 -1.71875 1.90625 -1.5 C 2.0625 -1.394531 2.5625 -1.578125 3.40625 -2.046875 C 4.25 -2.523438 5.4375 -3.847656 6.96875 -6.015625 Z M 28.8125 -52.484375 C 29.445312 -54.335938 29.9375 -55.9375 30.28125 -57.28125 C 30.625 -58.625 30.898438 -59.769531 31.109375 -60.71875 C 30.109375 -58.664062 28.894531 -55.550781 27.46875 -51.375 C 26.039062 -47.207031 24.484375 -41.851562 22.796875 -35.3125 C 23.910156 -38 24.875 -40.554688 25.6875 -42.984375 C 26.507812 -45.410156 27.265625 -47.679688 27.953125 -49.796875 C 28.109375 -50.273438 28.25 -50.738281 28.375 -51.1875 C 28.507812 -51.632812 28.65625 -52.066406 28.8125 -52.484375 Z M 28.8125 -52.484375 "/></g></g><g style="fill:#3b0039;fill-opacity:1;"><g transform="translate(320.546882, 240.512826)"><path style="stroke:none" d="M 26.765625 -17.65625 C 27.128906 -17.445312 27.335938 -17.128906 27.390625 -16.703125 C 27.441406 -16.285156 27.363281 -15.914062 27.15625 -15.59375 C 24.039062 -11.269531 21.1875 -7.695312 18.59375 -4.875 C 16.007812 -2.050781 13.425781 0.285156 10.84375 2.140625 C 8.894531 3.515625 6.96875 4.203125 5.0625 4.203125 C 3.582031 4.203125 2.289062 3.804688 1.1875 3.015625 C 0.445312 2.484375 -0.273438 1.539062 -0.984375 0.1875 C -1.703125 -1.15625 -2.085938 -3.101562 -2.140625 -5.65625 C -2.191406 -8.21875 -1.554688 -11.582031 -0.234375 -15.75 C -0.234375 -15.75 -0.234375 -15.773438 -0.234375 -15.828125 C 1.347656 -20.898438 3.207031 -24.769531 5.34375 -27.4375 C 7.476562 -30.101562 9.3125 -31.460938 10.84375 -31.515625 C 12.0625 -31.566406 12.851562 -31.035156 13.21875 -29.921875 C 13.800781 -28.390625 13.113281 -26.210938 11.15625 -23.390625 C 9.207031 -20.566406 6.332031 -17.570312 2.53125 -14.40625 C 1.375 -10.71875 0.820312 -7.828125 0.875 -5.734375 C 0.925781 -3.648438 1.210938 -2.144531 1.734375 -1.21875 C 2.265625 -0.300781 2.691406 0.285156 3.015625 0.546875 C 4.597656 1.710938 6.628906 1.398438 9.109375 -0.390625 C 11.535156 -2.078125 13.988281 -4.28125 16.46875 -7 C 18.945312 -9.71875 21.664062 -13.164062 24.625 -17.34375 C 24.882812 -17.65625 25.222656 -17.847656 25.640625 -17.921875 C 26.066406 -18.003906 26.441406 -17.914062 26.765625 -17.65625 Z M 10.296875 -28.1875 C 9.710938 -27.8125 8.914062 -27.03125 7.90625 -25.84375 C 6.90625 -24.65625 5.878906 -22.925781 4.828125 -20.65625 C 6.722656 -22.507812 8.066406 -24.082031 8.859375 -25.375 C 9.660156 -26.664062 10.140625 -27.601562 10.296875 -28.1875 Z M 10.296875 -28.1875 "/></g></g><path style=" stroke:none;fill-rule:nonzero;fill:#3b0039;fill-opacity:1;" d="M 195.097656 118.316406 C 195.742188 122.566406 196.148438 117.019531 197.847656 113.9375 C 199.027344 111.792969 199.753906 110.25 202.671875 108.308594 C 215.433594 101.621094 205.589844 116.691406 201.578125 118.636719 C 188.167969 128.925781 172.25 135.488281 160.742188 148.292969 C 163.863281 138.890625 172.328125 127.710938 179.742188 119.648438 C 204.65625 94.894531 174.269531 93.355469 173.21875 116.972656 C 173.824219 117.824219 174.355469 117.90625 174.109375 117.054688 C 173.300781 114.582031 174.800781 111.464844 175.972656 109.359375 C 177.554688 106.445312 179.457031 103.972656 182.613281 102.675781 C 183.871094 102.1875 185.410156 101.785156 186.746094 101.742188 C 187.4375 101.742188 188.125 102.027344 188.328125 102.71875 C 188.574219 103.566406 188.167969 104.578125 187.839844 105.351562 C 187.3125 106.6875 186.546875 107.984375 185.777344 109.199219 C 180.1875 118.152344 167.34375 132.332031 165.765625 135.25 C 161.878906 141.53125 159.082031 149.023438 155.597656 155.992188 C 154.183594 155.628906 153.328125 155.386719 153.328125 155.386719 C 170.949219 63.539062 75.257812 24.246094 103.132812 80.921875 C 83.96875 78.9375 100.902344 97.898438 98.835938 105.59375 C 95.554688 110.621094 79.550781 109.363281 73.761719 113.980469 C 72.582031 114.914062 71.65625 116.328125 71.371094 117.785156 C 71.125 119.328125 71.488281 120.742188 72.261719 122.363281 C 73.761719 125.648438 77.566406 128.6875 83.363281 129.414062 C 71.453125 133.300781 37.90625 153.152344 63.390625 161.621094 C 14.773438 199.214844 112.8125 212.988281 133.882812 162.226562 C 137.203125 154.203125 137.769531 144.640625 137.203125 133.175781 C 136.839844 126.367188 137.003906 118.796875 135.992188 111.097656 C 133.15625 89.582031 125.375 67.0625 109.859375 57.257812 C 119.667969 59.039062 127.445312 65.4375 133.84375 73.339844 C 151.058594 94.570312 156.613281 131.519531 151.75 155.054688 C 146.035156 153.230469 139.636719 157.285156 144.660156 163.5625 C 120.273438 178.554688 102.40625 215.175781 103.015625 235.597656 C 83.039062 243.742188 55.285156 254.4375 35.878906 258.042969 C 59.457031 255.449219 80.363281 245.726562 103.132812 237.097656 C 107.871094 259.179688 141.089844 266.226562 161.0625 258.285156 C 181.804688 250.0625 169.976562 230.535156 152.234375 227.535156 C 133.394531 224.335938 120.066406 228.832031 104.832031 234.625 C 107.710938 186.253906 136.878906 193.101562 149.195312 165.027344 C 132.015625 155.261719 161.753906 153.359375 158.386719 162.636719 C 157.050781 164.664062 156.117188 165.347656 153.042969 166.566406 C 156.527344 168.550781 164.546875 158.339844 156.972656 156.515625 C 167.183594 137.761719 186.222656 132.371094 202.429688 119.730469 C 222.359375 103.449219 198.742188 99.113281 195.097656 118.316406 Z M 110.75 59.734375 C 126.183594 72.496094 132.464844 94.738281 134.410156 116.085938 C 135.585938 128.886719 136.917969 141.324219 135.140625 151.128906 C 133.398438 160.769531 130.359375 168.066406 124.324219 174.261719 C 98.472656 200.800781 32.722656 200.597656 57.269531 169.039062 C 60.753906 164.542969 65.738281 162.195312 65.738281 162.195312 C 65.738281 162.195312 75.746094 163.8125 76.152344 160.492188 C 76.515625 157.859375 66.46875 160.046875 66.144531 160.453125 C 37.984375 154.863281 75.378906 133.996094 84.820312 130.308594 C 85.066406 130.46875 88.347656 130.796875 91.21875 130.390625 C 93.730469 130.027344 95.917969 129.136719 95.554688 127.152344 C 94.585938 124.398438 92.070312 125.085938 89.316406 126.179688 C 87.53125 126.949219 84.214844 128.285156 84.214844 128.285156 C 84.214844 128.285156 82.269531 128.082031 81.578125 127.71875 C 79.105469 126.988281 76.394531 125.371094 74.695312 123.183594 C 73.597656 121.726562 72.628906 119.984375 73.195312 118.199219 C 73.640625 116.785156 74.855469 115.851562 75.949219 115.042969 C 82.3125 110.34375 93.734375 113.136719 99.769531 107.667969 C 105.039062 103.128906 91.058594 86.074219 96.976562 82.996094 C 99.039062 81.941406 101.429688 82.105469 103.253906 82.507812 C 103.984375 84.046875 104.796875 85.789062 105.484375 86.761719 C 109.9375 92.957031 113.425781 88.34375 108.96875 83.722656 C 107.1875 81.9375 104.390625 80.84375 104.390625 80.84375 C 104.390625 80.84375 102.933594 78.292969 101.796875 75.332031 C 98.433594 66.660156 96.160156 52.039062 110.75 59.734375 Z M 68.25 160.894531 C 68.492188 160.609375 74.648438 159.800781 75.058594 160.691406 C 74.855469 161.625 67.800781 161.21875 68.25 160.894531 Z M 86.808594 128.972656 C 86.808594 128.972656 93.613281 125.769531 93.855469 127.554688 C 94.140625 129.578125 86.808594 128.972656 86.808594 128.972656 Z M 105.480469 83.394531 C 106.007812 82.789062 110.828125 87.242188 109.453125 88.21875 C 108.113281 88.214844 105.523438 84.324219 105.480469 83.394531 Z M 119.050781 231.628906 C 126.625 229.441406 133.351562 228.269531 139.875 228.269531 C 159.238281 228.269531 170.585938 237.058594 170.5 245.566406 C 170.460938 252.578125 160.089844 260.070312 138.453125 259.707031 C 128.246094 259.546875 107.015625 250.953125 104.867188 236.414062 C 104.875 236.410156 109.371094 234.464844 119.050781 231.628906 Z M 145.882812 168.339844 C 141.921875 176.6875 127.359375 186.710938 120.097656 192.152344 C 118.195312 190.855469 148.480469 156.265625 145.882812 168.339844 Z M 145.882812 168.339844 "/><g style="fill:#9b5f99;fill-opacity:1;"><g transform="translate(34.699622, 307.201033)"><path style="stroke:none" d="M 6.328125 0 L 7.21875 -4.640625 C 7.3125 -5.085938 7.441406 -5.648438 7.609375 -6.328125 L 7.25 -5.53125 C 6.96875 -4.925781 6.769531 -4.507812 6.65625 -4.28125 L 4.484375 0 L 3.390625 0 L 2.90625 -4.296875 C 2.789062 -5.304688 2.71875 -5.984375 2.6875 -6.328125 C 2.59375 -5.472656 2.519531 -4.914062 2.46875 -4.65625 L 1.5625 0 L 0.1875 0 L 1.625 -7.390625 L 3.6875 -7.390625 L 4.15625 -3.25 L 4.28125 -1.8125 C 4.40625 -2.09375 4.519531 -2.34375 4.625 -2.5625 C 4.738281 -2.789062 5.554688 -4.398438 7.078125 -7.390625 L 9.125 -7.390625 L 7.6875 0 Z M 6.328125 0 "/></g></g><g style="fill:#9b5f99;fill-opacity:1;"><g transform="translate(45.199621, 307.201033)"><path style="stroke:none" d="M 0.328125 0 L 1.765625 -7.390625 L 7.265625 -7.390625 L 7.109375 -6.5625 L 2.609375 -6.5625 L 2.140625 -4.203125 L 6.328125 -4.203125 L 6.171875 -3.390625 L 1.984375 -3.390625 L 1.484375 -0.8125 L 6.203125 -0.8125 L 6.046875 0 Z M 0.328125 0 "/></g></g><g style="fill:#9b5f99;fill-opacity:1;"><g transform="translate(53.906801, 307.201033)"><path style="stroke:none" d="M 5.5625 0 L 5.171875 -2.15625 L 1.8125 -2.15625 L 0.5625 0 L -0.53125 0 L 3.921875 -7.390625 L 5.046875 -7.390625 L 6.578125 0 Z M 4.34375 -6.625 C 4.300781 -6.539062 4.238281 -6.421875 4.15625 -6.265625 C 4.070312 -6.117188 3.441406 -5.007812 2.265625 -2.9375 L 5.015625 -2.9375 L 4.484375 -5.84375 Z M 4.34375 -6.625 "/></g></g><g style="fill:#9b5f99;fill-opacity:1;"><g transform="translate(62.61398, 307.201033)"><path style="stroke:none" d="M 5.171875 0 L 2.390625 -6.34375 C 2.316406 -5.75 2.242188 -5.28125 2.171875 -4.9375 L 1.21875 0 L 0.328125 0 L 1.765625 -7.390625 L 2.875 -7.390625 L 5.671875 -1.015625 C 5.765625 -1.671875 5.84375 -2.164062 5.90625 -2.5 L 6.859375 -7.390625 L 7.75 -7.390625 L 6.328125 0 Z M 5.171875 0 "/></g></g><g style="fill:#9b5f99;fill-opacity:1;"><g transform="translate(71.913437, 307.201033)"><path style="stroke:none" d="M 4.5 -6.5625 L 3.21875 0 L 2.21875 0 L 3.5 -6.5625 L 0.96875 -6.5625 L 1.125 -7.390625 L 7.1875 -7.390625 L 7.03125 -6.5625 Z M 4.5 -6.5625 "/></g></g><g style="fill:#9b5f99;fill-opacity:1;"><g transform="translate(80.017856, 307.201033)"><path style="stroke:none" d=""/></g></g><g style="fill:#9b5f99;fill-opacity:1;"><g transform="translate(84.547645, 307.201033)"><path style="stroke:none" d="M 4.5 -6.5625 L 3.21875 0 L 2.21875 0 L 3.5 -6.5625 L 0.96875 -6.5625 L 1.125 -7.390625 L 7.1875 -7.390625 L 7.03125 -6.5625 Z M 4.5 -6.5625 "/></g></g><g style="fill:#9b5f99;fill-opacity:1;"><g transform="translate(92.652064, 307.201033)"><path style="stroke:none" d="M 4.921875 -7.5 C 5.890625 -7.5 6.648438 -7.222656 7.203125 -6.671875 C 7.765625 -6.117188 8.046875 -5.378906 8.046875 -4.453125 C 8.035156 -3.523438 7.84375 -2.71875 7.46875 -2.03125 C 7.09375 -1.34375 6.578125 -0.8125 5.921875 -0.4375 C 5.273438 -0.0703125 4.539062 0.109375 3.71875 0.109375 C 2.726562 0.109375 1.957031 -0.164062 1.40625 -0.71875 C 0.851562 -1.269531 0.578125 -2.03125 0.578125 -3 C 0.578125 -3.832031 0.757812 -4.597656 1.125 -5.296875 C 1.5 -6.003906 2.015625 -6.546875 2.671875 -6.921875 C 3.335938 -7.304688 4.085938 -7.5 4.921875 -7.5 Z M 4.875 -6.6875 C 4.175781 -6.6875 3.582031 -6.53125 3.09375 -6.21875 C 2.601562 -5.90625 2.226562 -5.441406 1.96875 -4.828125 C 1.707031 -4.210938 1.578125 -3.585938 1.578125 -2.953125 C 1.578125 -2.222656 1.765625 -1.664062 2.140625 -1.28125 C 2.515625 -0.894531 3.054688 -0.703125 3.765625 -0.703125 C 4.453125 -0.703125 5.035156 -0.851562 5.515625 -1.15625 C 6.003906 -1.457031 6.378906 -1.910156 6.640625 -2.515625 C 6.910156 -3.117188 7.046875 -3.757812 7.046875 -4.4375 C 7.046875 -5.164062 6.851562 -5.722656 6.46875 -6.109375 C 6.09375 -6.492188 5.5625 -6.6875 4.875 -6.6875 Z M 4.875 -6.6875 "/></g></g><g style="fill:#9b5f99;fill-opacity:1;"><g transform="translate(102.54904, 307.201033)"><path style="stroke:none" d=""/></g></g><g style="fill:#9b5f99;fill-opacity:1;"><g transform="translate(107.086336, 307.201033)"><path style="stroke:none" d="M 5.453125 0 L 5.15625 -1.890625 L 2.34375 -1.890625 L 1.328125 0 L -0.21875 0 L 3.90625 -7.390625 L 5.734375 -7.390625 L 6.96875 0 Z M 4.59375 -6.25 C 4.519531 -6.019531 4.347656 -5.648438 4.078125 -5.140625 L 2.96875 -3.046875 L 5.03125 -3.046875 L 4.6875 -5.421875 C 4.625 -5.890625 4.59375 -6.164062 4.59375 -6.25 Z M 4.59375 -6.25 "/></g></g><g style="fill:#9b5f99;fill-opacity:1;"><g transform="translate(116.391023, 307.201033)"><path style="stroke:none" d="M 7.125 -1.765625 C 6.675781 -1.109375 6.171875 -0.628906 5.609375 -0.328125 C 5.054688 -0.0351562 4.410156 0.109375 3.671875 0.109375 C 3.035156 0.109375 2.484375 -0.015625 2.015625 -0.265625 C 1.554688 -0.523438 1.203125 -0.890625 0.953125 -1.359375 C 0.710938 -1.828125 0.59375 -2.367188 0.59375 -2.984375 C 0.59375 -3.835938 0.773438 -4.613281 1.140625 -5.3125 C 1.503906 -6.007812 2.007812 -6.546875 2.65625 -6.921875 C 3.3125 -7.304688 4.046875 -7.5 4.859375 -7.5 C 5.609375 -7.5 6.242188 -7.335938 6.765625 -7.015625 C 7.296875 -6.703125 7.644531 -6.257812 7.8125 -5.6875 L 6.859375 -5.40625 C 6.734375 -5.789062 6.488281 -6.097656 6.125 -6.328125 C 5.769531 -6.554688 5.328125 -6.671875 4.796875 -6.671875 C 4.160156 -6.671875 3.597656 -6.515625 3.109375 -6.203125 C 2.617188 -5.898438 2.238281 -5.46875 1.96875 -4.90625 C 1.707031 -4.34375 1.578125 -3.695312 1.578125 -2.96875 C 1.578125 -2.269531 1.765625 -1.71875 2.140625 -1.3125 C 2.523438 -0.90625 3.054688 -0.703125 3.734375 -0.703125 C 4.253906 -0.703125 4.738281 -0.832031 5.1875 -1.09375 C 5.632812 -1.351562 6.03125 -1.734375 6.375 -2.234375 Z M 7.125 -1.765625 "/></g></g><g style="fill:#9b5f99;fill-opacity:1;"><g transform="translate(125.69048, 307.201033)"><path style="stroke:none" d="M 5.34375 0 L 6.015625 -3.421875 L 2 -3.421875 L 1.328125 0 L 0.328125 0 L 1.765625 -7.390625 L 2.765625 -7.390625 L 2.15625 -4.265625 L 6.171875 -4.265625 L 6.78125 -7.390625 L 7.765625 -7.390625 L 6.328125 0 Z M 5.34375 0 "/></g></g><g style="fill:#9b5f99;fill-opacity:1;"><g transform="translate(134.989937, 307.201033)"><path style="stroke:none" d="M 0.421875 0 L 1.859375 -7.390625 L 2.859375 -7.390625 L 1.421875 0 Z M 0.421875 0 "/></g></g><g style="fill:#9b5f99;fill-opacity:1;"><g transform="translate(139.519725, 307.201033)"><path style="stroke:none" d="M 0.328125 0 L 1.765625 -7.390625 L 7.265625 -7.390625 L 7.109375 -6.5625 L 2.609375 -6.5625 L 2.140625 -4.203125 L 6.328125 -4.203125 L 6.171875 -3.390625 L 1.984375 -3.390625 L 1.484375 -0.8125 L 6.203125 -0.8125 L 6.046875 0 Z M 0.328125 0 "/></g></g><g style="fill:#9b5f99;fill-opacity:1;"><g transform="translate(148.226905, 307.201033)"><path style="stroke:none" d="M 3.546875 0 L 2.515625 0 L 0.921875 -7.390625 L 1.9375 -7.390625 L 2.984375 -2.1875 L 3.171875 -0.875 L 3.859375 -2.1875 L 6.90625 -7.390625 L 8 -7.390625 Z M 3.546875 0 "/></g></g><g style="fill:#9b5f99;fill-opacity:1;"><g transform="translate(156.934084, 307.201033)"><path style="stroke:none" d="M 0.328125 0 L 1.765625 -7.390625 L 7.265625 -7.390625 L 7.109375 -6.5625 L 2.609375 -6.5625 L 2.140625 -4.203125 L 6.328125 -4.203125 L 6.171875 -3.390625 L 1.984375 -3.390625 L 1.484375 -0.8125 L 6.203125 -0.8125 L 6.046875 0 Z M 0.328125 0 "/></g></g><g style="fill:#9b5f99;fill-opacity:1;"><g transform="translate(165.641264, 307.201033)"><path style="stroke:none" d="M 0.421875 0 L 0.640625 -1.140625 L 1.671875 -1.140625 L 1.4375 0 Z M 0.421875 0 "/></g></g><g style="fill:#9b5f99;fill-opacity:1;"><g transform="translate(170.171052, 307.201033)"><path style="stroke:none" d=""/></g></g><g style="fill:#9b5f99;fill-opacity:1;"><g transform="translate(174.703523, 307.201033)"><path style="stroke:none" d="M 3.84375 -7.390625 C 5.007812 -7.390625 5.898438 -7.117188 6.515625 -6.578125 C 7.140625 -6.035156 7.453125 -5.253906 7.453125 -4.234375 C 7.453125 -3.410156 7.273438 -2.679688 6.921875 -2.046875 C 6.578125 -1.410156 6.078125 -0.910156 5.421875 -0.546875 C 4.765625 -0.179688 4.03125 0 3.21875 0 L 0.1875 0 L 1.625 -7.390625 Z M 1.96875 -1.1875 L 3.171875 -1.1875 C 3.734375 -1.1875 4.226562 -1.304688 4.65625 -1.546875 C 5.082031 -1.785156 5.410156 -2.128906 5.640625 -2.578125 C 5.878906 -3.035156 6 -3.5625 6 -4.15625 C 6 -4.820312 5.8125 -5.328125 5.4375 -5.671875 C 5.070312 -6.015625 4.546875 -6.1875 3.859375 -6.1875 L 2.9375 -6.1875 Z M 1.96875 -1.1875 "/></g></g><g style="fill:#9b5f99;fill-opacity:1;"><g transform="translate(184.00821, 307.201033)"><path style="stroke:none" d="M 0.328125 0 L 1.765625 -7.390625 L 7.265625 -7.390625 L 7.109375 -6.5625 L 2.609375 -6.5625 L 2.140625 -4.203125 L 6.328125 -4.203125 L 6.171875 -3.390625 L 1.984375 -3.390625 L 1.484375 -0.8125 L 6.203125 -0.8125 L 6.046875 0 Z M 0.328125 0 "/></g></g><g style="fill:#9b5f99;fill-opacity:1;"><g transform="translate(192.715389, 307.201033)"><path style="stroke:none" d="M 3.234375 0.109375 C 2.359375 0.109375 1.679688 -0.046875 1.203125 -0.359375 C 0.722656 -0.671875 0.421875 -1.140625 0.296875 -1.765625 L 1.234375 -1.96875 C 1.328125 -1.519531 1.535156 -1.191406 1.859375 -0.984375 C 2.179688 -0.785156 2.660156 -0.6875 3.296875 -0.6875 C 4.066406 -0.6875 4.628906 -0.800781 4.984375 -1.03125 C 5.335938 -1.257812 5.515625 -1.609375 5.515625 -2.078125 C 5.515625 -2.304688 5.460938 -2.488281 5.359375 -2.625 C 5.253906 -2.769531 5.078125 -2.898438 4.828125 -3.015625 C 4.585938 -3.128906 4.171875 -3.269531 3.578125 -3.4375 C 2.972656 -3.601562 2.523438 -3.769531 2.234375 -3.9375 C 1.941406 -4.113281 1.71875 -4.320312 1.5625 -4.5625 C 1.414062 -4.8125 1.34375 -5.109375 1.34375 -5.453125 C 1.34375 -6.085938 1.609375 -6.585938 2.140625 -6.953125 C 2.679688 -7.316406 3.40625 -7.5 4.3125 -7.5 C 5.082031 -7.5 5.695312 -7.363281 6.15625 -7.09375 C 6.625 -6.832031 6.921875 -6.445312 7.046875 -5.9375 L 6.140625 -5.671875 C 6.023438 -6.035156 5.816406 -6.300781 5.515625 -6.46875 C 5.210938 -6.644531 4.8125 -6.734375 4.3125 -6.734375 C 3 -6.734375 2.34375 -6.320312 2.34375 -5.5 C 2.34375 -5.289062 2.382812 -5.117188 2.46875 -4.984375 C 2.5625 -4.859375 2.707031 -4.742188 2.90625 -4.640625 C 3.113281 -4.535156 3.523438 -4.40625 4.140625 -4.25 C 4.816406 -4.0625 5.300781 -3.878906 5.59375 -3.703125 C 5.894531 -3.523438 6.125 -3.3125 6.28125 -3.0625 C 6.445312 -2.8125 6.53125 -2.503906 6.53125 -2.140625 C 6.53125 -1.421875 6.257812 -0.863281 5.71875 -0.46875 C 5.175781 -0.0820312 4.347656 0.109375 3.234375 0.109375 Z M 3.234375 0.109375 "/></g></g><g style="fill:#9b5f99;fill-opacity:1;"><g transform="translate(201.422569, 307.201033)"><path style="stroke:none" d="M 4.5 -6.5625 L 3.21875 0 L 2.21875 0 L 3.5 -6.5625 L 0.96875 -6.5625 L 1.125 -7.390625 L 7.1875 -7.390625 L 7.03125 -6.5625 Z M 4.5 -6.5625 "/></g></g><g style="fill:#9b5f99;fill-opacity:1;"><g transform="translate(209.526988, 307.201033)"><path style="stroke:none" d="M 0.421875 0 L 1.859375 -7.390625 L 2.859375 -7.390625 L 1.421875 0 Z M 0.421875 0 "/></g></g><g style="fill:#9b5f99;fill-opacity:1;"><g transform="translate(214.056776, 307.201033)"><path style="stroke:none" d="M 5.171875 0 L 2.390625 -6.34375 C 2.316406 -5.75 2.242188 -5.28125 2.171875 -4.9375 L 1.21875 0 L 0.328125 0 L 1.765625 -7.390625 L 2.875 -7.390625 L 5.671875 -1.015625 C 5.765625 -1.671875 5.84375 -2.164062 5.90625 -2.5 L 6.859375 -7.390625 L 7.75 -7.390625 L 6.328125 0 Z M 5.171875 0 "/></g></g><g style="fill:#9b5f99;fill-opacity:1;"><g transform="translate(223.356233, 307.201033)"><path style="stroke:none" d="M 0.328125 0 L 1.765625 -7.390625 L 7.265625 -7.390625 L 7.109375 -6.5625 L 2.609375 -6.5625 L 2.140625 -4.203125 L 6.328125 -4.203125 L 6.171875 -3.390625 L 1.984375 -3.390625 L 1.484375 -0.8125 L 6.203125 -0.8125 L 6.046875 0 Z M 0.328125 0 "/></g></g><g style="fill:#9b5f99;fill-opacity:1;"><g transform="translate(232.063413, 307.201033)"><path style="stroke:none" d="M 3.90625 -7.390625 C 4.988281 -7.390625 5.84375 -7.097656 6.46875 -6.515625 C 7.09375 -5.941406 7.40625 -5.148438 7.40625 -4.140625 C 7.40625 -3.316406 7.222656 -2.59375 6.859375 -1.96875 C 6.503906 -1.351562 5.988281 -0.867188 5.3125 -0.515625 C 4.632812 -0.171875 3.867188 0 3.015625 0 L 0.328125 0 L 1.765625 -7.390625 Z M 1.484375 -0.796875 L 2.96875 -0.796875 C 3.65625 -0.796875 4.257812 -0.929688 4.78125 -1.203125 C 5.300781 -1.472656 5.695312 -1.863281 5.96875 -2.375 C 6.25 -2.882812 6.390625 -3.476562 6.390625 -4.15625 C 6.390625 -4.914062 6.164062 -5.507812 5.71875 -5.9375 C 5.28125 -6.363281 4.664062 -6.578125 3.875 -6.578125 L 2.609375 -6.578125 Z M 1.484375 -0.796875 "/></g></g><g style="fill:#9b5f99;fill-opacity:1;"><g transform="translate(241.36287, 307.201033)"><path style="stroke:none" d=""/></g></g><g style="fill:#9b5f99;fill-opacity:1;"><g transform="translate(245.892658, 307.201033)"><path style="stroke:none" d="M 4.5 -6.5625 L 3.21875 0 L 2.21875 0 L 3.5 -6.5625 L 0.96875 -6.5625 L 1.125 -7.390625 L 7.1875 -7.390625 L 7.03125 -6.5625 Z M 4.5 -6.5625 "/></g></g><g style="fill:#9b5f99;fill-opacity:1;"><g transform="translate(253.997077, 307.201033)"><path style="stroke:none" d="M 4.921875 -7.5 C 5.890625 -7.5 6.648438 -7.222656 7.203125 -6.671875 C 7.765625 -6.117188 8.046875 -5.378906 8.046875 -4.453125 C 8.035156 -3.523438 7.84375 -2.71875 7.46875 -2.03125 C 7.09375 -1.34375 6.578125 -0.8125 5.921875 -0.4375 C 5.273438 -0.0703125 4.539062 0.109375 3.71875 0.109375 C 2.726562 0.109375 1.957031 -0.164062 1.40625 -0.71875 C 0.851562 -1.269531 0.578125 -2.03125 0.578125 -3 C 0.578125 -3.832031 0.757812 -4.597656 1.125 -5.296875 C 1.5 -6.003906 2.015625 -6.546875 2.671875 -6.921875 C 3.335938 -7.304688 4.085938 -7.5 4.921875 -7.5 Z M 4.875 -6.6875 C 4.175781 -6.6875 3.582031 -6.53125 3.09375 -6.21875 C 2.601562 -5.90625 2.226562 -5.441406 1.96875 -4.828125 C 1.707031 -4.210938 1.578125 -3.585938 1.578125 -2.953125 C 1.578125 -2.222656 1.765625 -1.664062 2.140625 -1.28125 C 2.515625 -0.894531 3.054688 -0.703125 3.765625 -0.703125 C 4.453125 -0.703125 5.035156 -0.851562 5.515625 -1.15625 C 6.003906 -1.457031 6.378906 -1.910156 6.640625 -2.515625 C 6.910156 -3.117188 7.046875 -3.757812 7.046875 -4.4375 C 7.046875 -5.164062 6.851562 -5.722656 6.46875 -6.109375 C 6.09375 -6.492188 5.5625 -6.6875 4.875 -6.6875 Z M 4.875 -6.6875 "/></g></g><g style="fill:#9b5f99;fill-opacity:1;"><g transform="translate(263.894053, 307.201033)"><path style="stroke:none" d=""/></g></g><g style="fill:#9b5f99;fill-opacity:1;"><g transform="translate(268.430079, 307.201033)"><path style="stroke:none" d="M 0.1875 0 L 1.625 -7.390625 L 7.421875 -7.390625 L 7.203125 -6.1875 L 2.9375 -6.1875 L 2.578125 -4.328125 L 6.515625 -4.328125 L 6.28125 -3.140625 L 2.34375 -3.140625 L 1.96875 -1.1875 L 6.4375 -1.1875 L 6.203125 0 Z M 0.1875 0 "/></g></g><g style="fill:#9b5f99;fill-opacity:1;"><g transform="translate(277.148828, 307.201033)"><path style="stroke:none" d="M 6.609375 0 L 7.546875 -4.859375 C 7.671875 -5.503906 7.785156 -6.03125 7.890625 -6.4375 C 7.578125 -5.78125 7.328125 -5.289062 7.140625 -4.96875 L 4.265625 0 L 3.609375 0 L 2.640625 -4.96875 C 2.617188 -5.070312 2.546875 -5.5625 2.421875 -6.4375 C 2.390625 -6.226562 2.335938 -5.898438 2.265625 -5.453125 C 2.191406 -5.003906 1.84375 -3.1875 1.21875 0 L 0.328125 0 L 1.765625 -7.390625 L 3 -7.390625 L 3.984375 -2.265625 C 4.015625 -2.128906 4.070312 -1.769531 4.15625 -1.1875 L 4.703125 -2.3125 L 7.59375 -7.390625 L 8.9375 -7.390625 L 7.515625 0 Z M 6.609375 0 "/></g></g><g style="fill:#9b5f99;fill-opacity:1;"><g transform="translate(287.638082, 307.201033)"><path style="stroke:none" d="M 4.46875 -7.390625 C 5.269531 -7.390625 5.90625 -7.207031 6.375 -6.84375 C 6.851562 -6.476562 7.09375 -5.976562 7.09375 -5.34375 C 7.09375 -4.570312 6.828125 -3.96875 6.296875 -3.53125 C 5.765625 -3.09375 5.035156 -2.875 4.109375 -2.875 L 1.890625 -2.875 L 1.328125 0 L 0.328125 0 L 1.765625 -7.390625 Z M 2.046875 -3.671875 L 4.078125 -3.671875 C 5.410156 -3.671875 6.078125 -4.210938 6.078125 -5.296875 C 6.078125 -5.710938 5.9375 -6.03125 5.65625 -6.25 C 5.382812 -6.46875 4.976562 -6.578125 4.4375 -6.578125 L 2.609375 -6.578125 Z M 2.046875 -3.671875 "/></g></g><g style="fill:#9b5f99;fill-opacity:1;"><g transform="translate(296.345261, 307.201033)"><path style="stroke:none" d="M 4.921875 -7.5 C 5.890625 -7.5 6.648438 -7.222656 7.203125 -6.671875 C 7.765625 -6.117188 8.046875 -5.378906 8.046875 -4.453125 C 8.035156 -3.523438 7.84375 -2.71875 7.46875 -2.03125 C 7.09375 -1.34375 6.578125 -0.8125 5.921875 -0.4375 C 5.273438 -0.0703125 4.539062 0.109375 3.71875 0.109375 C 2.726562 0.109375 1.957031 -0.164062 1.40625 -0.71875 C 0.851562 -1.269531 0.578125 -2.03125 0.578125 -3 C 0.578125 -3.832031 0.757812 -4.597656 1.125 -5.296875 C 1.5 -6.003906 2.015625 -6.546875 2.671875 -6.921875 C 3.335938 -7.304688 4.085938 -7.5 4.921875 -7.5 Z M 4.875 -6.6875 C 4.175781 -6.6875 3.582031 -6.53125 3.09375 -6.21875 C 2.601562 -5.90625 2.226562 -5.441406 1.96875 -4.828125 C 1.707031 -4.210938 1.578125 -3.585938 1.578125 -2.953125 C 1.578125 -2.222656 1.765625 -1.664062 2.140625 -1.28125 C 2.515625 -0.894531 3.054688 -0.703125 3.765625 -0.703125 C 4.453125 -0.703125 5.035156 -0.851562 5.515625 -1.15625 C 6.003906 -1.457031 6.378906 -1.910156 6.640625 -2.515625 C 6.910156 -3.117188 7.046875 -3.757812 7.046875 -4.4375 C 7.046875 -5.164062 6.851562 -5.722656 6.46875 -6.109375 C 6.09375 -6.492188 5.5625 -6.6875 4.875 -6.6875 Z M 4.875 -6.6875 "/></g></g><g style="fill:#9b5f99;fill-opacity:1;"><g transform="translate(306.242237, 307.201033)"><path style="stroke:none" d="M 7.375 0 L 6.203125 0 L 5.828125 -4.6875 C 5.773438 -5.644531 5.75 -6.210938 5.75 -6.390625 C 5.476562 -5.691406 5.238281 -5.125 5.03125 -4.6875 L 2.84375 0 L 1.671875 0 L 0.921875 -7.390625 L 1.953125 -7.390625 L 2.375 -2.6875 C 2.414062 -2.144531 2.441406 -1.539062 2.453125 -0.875 C 2.734375 -1.53125 2.960938 -2.054688 3.140625 -2.453125 C 3.316406 -2.859375 4.09375 -4.503906 5.46875 -7.390625 L 6.421875 -7.390625 L 6.8125 -2.78125 C 6.863281 -2.25 6.894531 -1.613281 6.90625 -0.875 L 6.984375 -1.0625 C 7.160156 -1.46875 7.300781 -1.789062 7.40625 -2.03125 C 7.507812 -2.269531 8.347656 -4.054688 9.921875 -7.390625 L 10.96875 -7.390625 Z M 7.375 0 "/></g></g><g style="fill:#9b5f99;fill-opacity:1;"><g transform="translate(317.921287, 307.201033)"><path style="stroke:none" d="M 0.328125 0 L 1.765625 -7.390625 L 7.265625 -7.390625 L 7.109375 -6.5625 L 2.609375 -6.5625 L 2.140625 -4.203125 L 6.328125 -4.203125 L 6.171875 -3.390625 L 1.984375 -3.390625 L 1.484375 -0.8125 L 6.203125 -0.8125 L 6.046875 0 Z M 0.328125 0 "/></g></g><g style="fill:#9b5f99;fill-opacity:1;"><g transform="translate(326.628466, 307.201033)"><path style="stroke:none" d="M 5.515625 0 L 4.234375 -3.0625 L 1.921875 -3.0625 L 1.328125 0 L 0.328125 0 L 1.765625 -7.390625 L 4.96875 -7.390625 C 5.71875 -7.390625 6.3125 -7.207031 6.75 -6.84375 C 7.195312 -6.488281 7.421875 -6.023438 7.421875 -5.453125 C 7.421875 -4.785156 7.234375 -4.257812 6.859375 -3.875 C 6.484375 -3.5 5.925781 -3.257812 5.1875 -3.15625 L 6.59375 0 Z M 4.484375 -3.859375 C 5.117188 -3.859375 5.597656 -3.988281 5.921875 -4.25 C 6.242188 -4.519531 6.40625 -4.894531 6.40625 -5.375 C 6.40625 -5.757812 6.273438 -6.054688 6.015625 -6.265625 C 5.753906 -6.472656 5.363281 -6.578125 4.84375 -6.578125 L 2.609375 -6.578125 L 2.078125 -3.859375 Z M 4.484375 -3.859375 "/></g></g><g style="fill:#9b5f99;fill-opacity:1;"><g transform="translate(335.927923, 307.201033)"><path style="stroke:none" d="M 0.421875 0 L 0.640625 -1.140625 L 1.671875 -1.140625 L 1.4375 0 Z M 0.421875 0 "/></g></g></g></svg>