<svg xmlns="http://www.w3.org/2000/svg" xmlns:xlink="http://www.w3.org/1999/xlink" width="500" zoomAndPan="magnify" viewBox="0 0 375 374.999991" height="500" preserveAspectRatio="xMidYMid meet" version="1.2"><defs><clipPath id="2bdfa19988"><path d="M 37.5 36.382812 L 338.617188 36.382812 L 338.617188 337.5 L 37.5 337.5 Z M 37.5 36.382812 "/></clipPath><clipPath id="86fd1f93ba"><path d="M 188.058594 36.382812 C 104.90625 36.382812 37.5 103.789062 37.5 186.941406 C 37.5 270.09375 104.90625 337.5 188.058594 337.5 C 271.210938 337.5 338.617188 270.09375 338.617188 186.941406 C 338.617188 103.789062 271.210938 36.382812 188.058594 36.382812 Z M 188.058594 36.382812 "/></clipPath><clipPath id="d9ee165b6f"><path d="M 37.5 36.382812 L 338.25 36.382812 L 338.25 337.132812 L 37.5 337.132812 Z M 37.5 36.382812 "/></clipPath><clipPath id="12f937c05f"><path d="M 187.875 36.382812 C 104.824219 36.382812 37.5 103.707031 37.5 186.757812 C 37.5 269.808594 104.824219 337.132812 187.875 337.132812 C 270.925781 337.132812 338.25 269.808594 338.25 186.757812 C 338.25 103.707031 270.925781 36.382812 187.875 36.382812 Z M 187.875 36.382812 "/></clipPath><clipPath id="5c2d778d78"><path d="M 54.171875 184.328125 L 63.234375 184.328125 L 63.234375 193.390625 L 54.171875 193.390625 Z M 54.171875 184.328125 "/></clipPath><clipPath id="44b39ebb5b"><path d="M 58.703125 184.328125 C 56.199219 184.328125 54.171875 186.355469 54.171875 188.859375 C 54.171875 191.363281 56.199219 193.390625 58.703125 193.390625 C 61.203125 193.390625 63.234375 191.363281 63.234375 188.859375 C 63.234375 186.355469 61.203125 184.328125 58.703125 184.328125 Z M 58.703125 184.328125 "/></clipPath><clipPath id="62d56d60f3"><path d="M 312.550781 184.328125 L 321.613281 184.328125 L 321.613281 193.390625 L 312.550781 193.390625 Z M 312.550781 184.328125 "/></clipPath><clipPath id="01473784bd"><path d="M 317.082031 184.328125 C 314.578125 184.328125 312.550781 186.355469 312.550781 188.859375 C 312.550781 191.363281 314.578125 193.390625 317.082031 193.390625 C 319.585938 193.390625 321.613281 191.363281 321.613281 188.859375 C 321.613281 186.355469 319.585938 184.328125 317.082031 184.328125 Z M 317.082031 184.328125 "/></clipPath><filter x="0%" y="0%" width="100%" filterUnits="objectBoundingBox" id="8e230a944e" height="100%"><feColorMatrix values="0 0 0 0 1 0 0 0 0 1 0 0 0 0 1 0 0 0 1 0" type="matrix" in="SourceGraphic"/></filter><clipPath id="92773101fa"><path d="M 30 7 L 80 7 L 80 94 L 30 94 Z M 30 7 "/></clipPath><clipPath id="d5758d17ee"><path d="M 98.808594 57.765625 L 40.941406 108.945312 L -11.726562 49.390625 L 46.140625 -1.785156 Z M 98.808594 57.765625 "/></clipPath><clipPath id="576e05bede"><path d="M 98.808594 57.765625 L 40.941406 108.945312 L -11.726562 49.390625 L 46.140625 -1.785156 Z M 98.808594 57.765625 "/></clipPath><clipPath id="f3ddefa587"><rect x="0" width="97" y="0" height="99"/></clipPath><clipPath id="ee9f283e4a"><path d="M 0.121094 0 L 59 0 L 59 59.761719 L 0.121094 59.761719 Z M 0.121094 0 "/></clipPath><clipPath id="ecc765a340"><rect x="0" width="60" y="0" height="60"/></clipPath></defs><g id="c1c32f7b14"><g clip-rule="nonzero" clip-path="url(#2bdfa19988)"><g clip-rule="nonzero" clip-path="url(#86fd1f93ba)"><path style=" stroke:none;fill-rule:nonzero;fill:#480045;fill-opacity:1;" d="M 37.5 36.382812 L 338.617188 36.382812 L 338.617188 337.5 L 37.5 337.5 Z M 37.5 36.382812 "/></g></g><g clip-rule="nonzero" clip-path="url(#d9ee165b6f)"><g clip-rule="nonzero" clip-path="url(#12f937c05f)"><path style="fill:none;stroke-width:4;stroke-linecap:butt;stroke-linejoin:miter;stroke:#ddb65b;stroke-opacity:1;stroke-miterlimit:4;" d="M 200.742192 -0.000987739 C 89.874055 -0.000987739 -0.00000271995 89.87307 -0.00000271995 200.741207 C -0.00000271995 311.609344 89.874055 401.483402 200.742192 401.483402 C 311.610329 401.483402 401.484387 311.609344 401.484387 200.741207 C 401.484387 89.87307 311.610329 -0.000987739 200.742192 -0.000987739 Z M 200.742192 -0.000987739 " transform="matrix(0.749095,0,0,0.749095,37.500002,36.383552)"/></g></g><g clip-rule="nonzero" clip-path="url(#5c2d778d78)"><g clip-rule="nonzero" clip-path="url(#44b39ebb5b)"><path style=" stroke:none;fill-rule:nonzero;fill:#ddb65b;fill-opacity:1;" d="M 54.171875 184.328125 L 63.234375 184.328125 L 63.234375 193.390625 L 54.171875 193.390625 Z M 54.171875 184.328125 "/></g></g><g style="fill:#ddb65b;fill-opacity:1;"><g transform="translate(82.082285, 139.701023)"><path style="stroke:none" d="M -6.859375 -29.5 L 10.484375 -20.734375 L 9.046875 -17.890625 L -2.15625 -23.546875 C -2.59375 -23.773438 -3.0625 -24.039062 -3.5625 -24.34375 L 3.640625 -14.140625 C 3.972656 -13.660156 4.007812 -13.164062 3.75 -12.65625 L 3.515625 -12.1875 C 3.253906 -11.675781 2.832031 -11.414062 2.25 -11.40625 L -10.3125 -11.109375 C -10.039062 -11.003906 -9.769531 -10.890625 -9.5 -10.765625 C -9.238281 -10.648438 -9.003906 -10.535156 -8.796875 -10.421875 L 2.40625 -4.765625 L 0.96875 -1.921875 L -16.375 -10.6875 L -15.140625 -13.125 C -15.066406 -13.28125 -15 -13.40625 -14.9375 -13.5 C -14.875 -13.601562 -14.800781 -13.6875 -14.71875 -13.75 C -14.644531 -13.8125 -14.554688 -13.859375 -14.453125 -13.890625 C -14.347656 -13.929688 -14.222656 -13.953125 -14.078125 -13.953125 L -1.8125 -14.28125 C -1.476562 -14.269531 -1.148438 -14.253906 -0.828125 -14.234375 C -0.503906 -14.222656 -0.171875 -14.195312 0.171875 -14.15625 C -0.0664062 -14.425781 -0.289062 -14.6875 -0.5 -14.9375 C -0.707031 -15.195312 -0.910156 -15.46875 -1.109375 -15.75 L -8.125 -25.71875 C -8.207031 -25.832031 -8.265625 -25.941406 -8.296875 -26.046875 C -8.335938 -26.160156 -8.351562 -26.269531 -8.34375 -26.375 C -8.332031 -26.488281 -8.304688 -26.59375 -8.265625 -26.6875 C -8.222656 -26.789062 -8.164062 -26.914062 -8.09375 -27.0625 Z M -6.859375 -29.5 "/></g></g><g style="fill:#ddb65b;fill-opacity:1;"><g transform="translate(93.911134, 117.288607)"><path style="stroke:none" d="M 6.984375 -12.703125 L 8.671875 -11.40625 L 1.484375 -1.953125 L -13.84375 -13.59375 L -6.65625 -23.046875 L -4.984375 -21.78125 L -10.59375 -14.40625 L -5.484375 -10.53125 L -0.953125 -16.5 L 0.671875 -15.25 L -3.859375 -9.28125 L 1.375 -5.3125 Z M 6.984375 -12.703125 "/></g></g><g style="fill:#ddb65b;fill-opacity:1;"><g transform="translate(103.388115, 104.677952)"><path style="stroke:none" d="M 4.125 -13.96875 L -3.484375 -17.484375 C -3.703125 -17.585938 -3.953125 -17.71875 -4.234375 -17.875 C -4.523438 -18.03125 -4.828125 -18.203125 -5.140625 -18.390625 C -4.765625 -17.722656 -4.476562 -17.148438 -4.28125 -16.671875 L -1.03125 -8.96875 Z M 13.015625 -12.59375 L 11.5625 -11.1875 C 11.394531 -11.03125 11.21875 -10.941406 11.03125 -10.921875 C 10.851562 -10.910156 10.675781 -10.945312 10.5 -11.03125 L 5.96875 -13.109375 L -0.234375 -7.09375 L 1.703125 -2.515625 C 1.773438 -2.359375 1.800781 -2.179688 1.78125 -1.984375 C 1.757812 -1.785156 1.664062 -1.609375 1.5 -1.453125 L 0.0625 -0.046875 L -7.796875 -19.234375 L -5.90625 -21.078125 Z M 13.015625 -12.59375 "/></g></g><g style="fill:#ddb65b;fill-opacity:1;"><g transform="translate(116.444235, 91.906012)"><path style="stroke:none" d="M 4.125 -26.078125 L 14.9375 -10.15625 L 13.859375 -9.40625 C 13.691406 -9.300781 13.53125 -9.238281 13.375 -9.21875 C 13.21875 -9.207031 13.035156 -9.226562 12.828125 -9.28125 L -4.546875 -15.03125 C -4.398438 -14.851562 -4.257812 -14.675781 -4.125 -14.5 C -4 -14.332031 -3.882812 -14.171875 -3.78125 -14.015625 L 3.921875 -2.671875 L 2.03125 -1.375 L -8.78125 -17.296875 L -7.671875 -18.0625 C -7.566406 -18.125 -7.476562 -18.171875 -7.40625 -18.203125 C -7.34375 -18.242188 -7.273438 -18.265625 -7.203125 -18.265625 C -7.140625 -18.273438 -7.066406 -18.273438 -6.984375 -18.265625 C -6.898438 -18.253906 -6.800781 -18.234375 -6.6875 -18.203125 L 10.6875 -12.46875 C 10.539062 -12.644531 10.394531 -12.820312 10.25 -13 C 10.113281 -13.1875 9.992188 -13.359375 9.890625 -13.515625 L 2.234375 -24.796875 Z M 4.125 -26.078125 "/></g></g><g style="fill:#ddb65b;fill-opacity:1;"><g transform="translate(133.638939, 80.467759)"><path style="stroke:none" d="M 6.875 -22 L 1.21875 -19.375 L 8.390625 -3.890625 L 6.046875 -2.796875 L -1.125 -18.28125 L -6.796875 -15.65625 L -7.71875 -17.640625 L 5.953125 -23.984375 Z M 6.875 -22 "/></g></g><g style="fill:#ddb65b;fill-opacity:1;"><g transform="translate(148.750686, 73.771706)"><path style="stroke:none" d=""/></g></g><g style="fill:#ddb65b;fill-opacity:1;"><g transform="translate(155.846473, 71.15097)"><path style="stroke:none" d="M 11.390625 -20.03125 L 5.3125 -18.671875 L 9.03125 -2.015625 L 6.5 -1.453125 L 2.78125 -18.109375 L -3.328125 -16.75 L -3.796875 -18.875 L 10.921875 -22.15625 Z M 11.390625 -20.03125 "/></g></g><g style="fill:#ddb65b;fill-opacity:1;"><g transform="translate(171.412194, 67.445901)"><path style="stroke:none" d="M 19.71875 -10.671875 C 19.789062 -9.222656 19.628906 -7.882812 19.234375 -6.65625 C 18.835938 -5.4375 18.25 -4.367188 17.46875 -3.453125 C 16.6875 -2.546875 15.722656 -1.820312 14.578125 -1.28125 C 13.441406 -0.738281 12.164062 -0.429688 10.75 -0.359375 C 9.332031 -0.285156 8.03125 -0.457031 6.84375 -0.875 C 5.664062 -1.289062 4.632812 -1.910156 3.75 -2.734375 C 2.875 -3.566406 2.175781 -4.566406 1.65625 -5.734375 C 1.132812 -6.910156 0.835938 -8.222656 0.765625 -9.671875 C 0.679688 -11.109375 0.835938 -12.441406 1.234375 -13.671875 C 1.628906 -14.910156 2.21875 -15.984375 3 -16.890625 C 3.789062 -17.796875 4.753906 -18.519531 5.890625 -19.0625 C 7.023438 -19.613281 8.300781 -19.925781 9.71875 -20 C 11.132812 -20.070312 12.4375 -19.894531 13.625 -19.46875 C 14.8125 -19.050781 15.84375 -18.429688 16.71875 -17.609375 C 17.59375 -16.785156 18.289062 -15.78125 18.8125 -14.59375 C 19.332031 -13.414062 19.632812 -12.109375 19.71875 -10.671875 Z M 17.046875 -10.53125 C 16.984375 -11.707031 16.765625 -12.757812 16.390625 -13.6875 C 16.023438 -14.613281 15.53125 -15.382812 14.90625 -16 C 14.28125 -16.625 13.535156 -17.082031 12.671875 -17.375 C 11.816406 -17.675781 10.867188 -17.800781 9.828125 -17.75 C 8.796875 -17.695312 7.867188 -17.472656 7.046875 -17.078125 C 6.222656 -16.691406 5.53125 -16.15625 4.96875 -15.46875 C 4.414062 -14.789062 4.003906 -13.972656 3.734375 -13.015625 C 3.460938 -12.054688 3.359375 -10.988281 3.421875 -9.8125 C 3.484375 -8.625 3.695312 -7.570312 4.0625 -6.65625 C 4.4375 -5.75 4.9375 -4.984375 5.5625 -4.359375 C 6.1875 -3.742188 6.925781 -3.285156 7.78125 -2.984375 C 8.644531 -2.691406 9.59375 -2.570312 10.625 -2.625 C 11.664062 -2.675781 12.597656 -2.894531 13.421875 -3.28125 C 14.242188 -3.675781 14.929688 -4.210938 15.484375 -4.890625 C 16.046875 -5.578125 16.460938 -6.390625 16.734375 -7.328125 C 17.003906 -8.273438 17.109375 -9.34375 17.046875 -10.53125 Z M 17.046875 -10.53125 "/></g></g><g style="fill:#ddb65b;fill-opacity:1;"><g transform="translate(193.341753, 66.7969)"><path style="stroke:none" d=""/></g></g><g style="fill:#ddb65b;fill-opacity:1;"><g transform="translate(200.803723, 67.060747)"><path style="stroke:none" d="M 13.640625 -4.78125 L 12.5625 -11.5625 C 12.507812 -11.882812 12.457031 -12.242188 12.40625 -12.640625 C 12.351562 -13.046875 12.316406 -13.488281 12.296875 -13.96875 C 12.085938 -13.539062 11.878906 -13.144531 11.671875 -12.78125 C 11.472656 -12.414062 11.285156 -12.101562 11.109375 -11.84375 L 7.5625 -5.984375 Z M 18.453125 3.671875 L 15.703125 3.125 C 15.398438 3.0625 15.164062 2.9375 15 2.75 C 14.84375 2.5625 14.738281 2.34375 14.6875 2.09375 L 14.046875 -2.078125 L 6.140625 -3.65625 L 3.9375 -0.046875 C 3.820312 0.140625 3.644531 0.296875 3.40625 0.421875 C 3.175781 0.546875 2.914062 0.578125 2.625 0.515625 L -0.140625 -0.03125 L 11.15625 -17.59375 L 14.765625 -16.875 Z M 18.453125 3.671875 "/></g></g><g style="fill:#ddb65b;fill-opacity:1;"><g transform="translate(219.236172, 70.764568)"><path style="stroke:none" d="M 16.359375 1.890625 C 16.492188 1.941406 16.59375 2.050781 16.65625 2.21875 L 17.234375 3.609375 C 16.160156 4.179688 15.003906 4.507812 13.765625 4.59375 C 12.535156 4.675781 11.175781 4.4375 9.6875 3.875 C 8.40625 3.394531 7.316406 2.726562 6.421875 1.875 C 5.535156 1.03125 4.867188 0.0664062 4.421875 -1.015625 C 3.984375 -2.109375 3.773438 -3.296875 3.796875 -4.578125 C 3.816406 -5.859375 4.082031 -7.179688 4.59375 -8.546875 C 5.101562 -9.910156 5.78125 -11.078125 6.625 -12.046875 C 7.476562 -13.015625 8.445312 -13.757812 9.53125 -14.28125 C 10.625 -14.800781 11.789062 -15.082031 13.03125 -15.125 C 14.28125 -15.164062 15.5625 -14.941406 16.875 -14.453125 C 18.15625 -13.960938 19.207031 -13.328125 20.03125 -12.546875 C 20.851562 -11.773438 21.507812 -10.898438 22 -9.921875 L 20.765625 -9.09375 C 20.691406 -9.03125 20.601562 -8.984375 20.5 -8.953125 C 20.394531 -8.929688 20.28125 -8.941406 20.15625 -8.984375 C 20 -9.046875 19.84375 -9.203125 19.6875 -9.453125 C 19.53125 -9.703125 19.3125 -9.988281 19.03125 -10.3125 C 18.75 -10.644531 18.375 -10.992188 17.90625 -11.359375 C 17.445312 -11.722656 16.832031 -12.050781 16.0625 -12.34375 C 15.125 -12.695312 14.207031 -12.851562 13.3125 -12.8125 C 12.425781 -12.78125 11.59375 -12.566406 10.8125 -12.171875 C 10.03125 -11.773438 9.316406 -11.191406 8.671875 -10.421875 C 8.023438 -9.648438 7.492188 -8.710938 7.078125 -7.609375 C 6.660156 -6.492188 6.445312 -5.429688 6.4375 -4.421875 C 6.425781 -3.421875 6.582031 -2.507812 6.90625 -1.6875 C 7.238281 -0.863281 7.722656 -0.15625 8.359375 0.4375 C 8.992188 1.03125 9.753906 1.492188 10.640625 1.828125 C 11.179688 2.035156 11.675781 2.1875 12.125 2.28125 C 12.570312 2.382812 13.003906 2.4375 13.421875 2.4375 C 13.835938 2.445312 14.238281 2.410156 14.625 2.328125 C 15.019531 2.242188 15.425781 2.113281 15.84375 1.9375 C 16.039062 1.851562 16.210938 1.835938 16.359375 1.890625 Z M 16.359375 1.890625 "/></g></g><g style="fill:#ddb65b;fill-opacity:1;"><g transform="translate(236.147758, 77.022089)"><path style="stroke:none" d="M 25.328125 -7.4375 L 15.578125 9.15625 L 13.328125 7.828125 L 17.765625 0.265625 L 8.796875 -5 L 4.359375 2.5625 L 2.109375 1.25 L 11.859375 -15.34375 L 14.109375 -14.03125 L 9.765625 -6.640625 L 18.734375 -1.375 L 23.078125 -8.765625 Z M 25.328125 -7.4375 "/></g></g><g style="fill:#ddb65b;fill-opacity:1;"><g transform="translate(253.98668, 88.028175)"><path style="stroke:none" d="M 4 3.109375 L 1.9375 1.5 L 13.75 -13.703125 L 15.8125 -12.09375 Z M 4 3.109375 "/></g></g><g style="fill:#ddb65b;fill-opacity:1;"><g transform="translate(260.568617, 92.912143)"><path style="stroke:none" d="M 11.796875 8.4375 L 10.296875 9.953125 L 1.765625 1.703125 L 15.140625 -12.140625 L 23.671875 -3.890625 L 22.21875 -2.375 L 15.5625 -8.8125 L 11.109375 -4.203125 L 16.5 1.015625 L 15.078125 2.484375 L 9.6875 -2.734375 L 5.125 1.984375 Z M 11.796875 8.4375 "/></g></g><g style="fill:#ddb65b;fill-opacity:1;"><g transform="translate(271.966572, 103.817847)"><path style="stroke:none" d="M 26.296875 2.765625 L 6.21875 8.171875 L 4.796875 6.3125 L 15.375 -11.59375 L 16.640625 -9.9375 C 16.773438 -9.75 16.835938 -9.5625 16.828125 -9.375 C 16.828125 -9.1875 16.78125 -9.015625 16.6875 -8.859375 L 9.15625 3.6875 C 8.976562 3.96875 8.78125 4.257812 8.5625 4.5625 C 8.34375 4.875 8.101562 5.1875 7.84375 5.5 C 8.21875 5.332031 8.578125 5.175781 8.921875 5.03125 C 9.265625 4.882812 9.59375 4.769531 9.90625 4.6875 L 24.015625 0.765625 C 24.160156 0.710938 24.332031 0.707031 24.53125 0.75 C 24.726562 0.800781 24.894531 0.921875 25.03125 1.109375 Z M 26.296875 2.765625 "/></g></g><g style="fill:#ddb65b;fill-opacity:1;"><g transform="translate(283.029088, 118.564626)"><path style="stroke:none" d="M 8.71875 11.578125 L 6.84375 12.59375 L 1.171875 2.15625 L 18.078125 -7.046875 L 23.75 3.390625 L 21.90625 4.40625 L 17.484375 -3.734375 L 11.84375 -0.671875 L 15.421875 5.90625 L 13.625 6.875 L 10.046875 0.296875 L 4.28125 3.4375 Z M 8.71875 11.578125 "/></g></g><g style="fill:#ddb65b;fill-opacity:1;"><g transform="translate(290.535903, 132.911653)"><path style="stroke:none" d=""/></g></g><g style="fill:#ddb65b;fill-opacity:1;"><g transform="translate(62.821692, 255.364911)"><path style="stroke:none" d="M 15.328125 8.796875 C 14.367188 9.429688 13.378906 9.851562 12.359375 10.0625 C 11.335938 10.28125 10.335938 10.289062 9.359375 10.09375 C 8.390625 9.90625 7.472656 9.503906 6.609375 8.890625 C 5.742188 8.285156 4.976562 7.488281 4.3125 6.5 L 0.984375 1.46875 L 14.171875 -7.296875 L 17.5 -2.265625 C 18.164062 -1.273438 18.601562 -0.257812 18.8125 0.78125 C 19.03125 1.820312 19.046875 2.828125 18.859375 3.796875 C 18.671875 4.765625 18.28125 5.675781 17.6875 6.53125 C 17.09375 7.394531 16.304688 8.148438 15.328125 8.796875 Z M 13.65625 6.28125 C 14.382812 5.789062 14.972656 5.257812 15.421875 4.6875 C 15.867188 4.113281 16.171875 3.507812 16.328125 2.875 C 16.484375 2.25 16.5 1.609375 16.375 0.953125 C 16.25 0.304688 15.972656 -0.332031 15.546875 -0.96875 L 13.84375 -3.53125 L 4.5625 2.640625 L 6.265625 5.203125 C 6.691406 5.835938 7.179688 6.335938 7.734375 6.703125 C 8.285156 7.078125 8.878906 7.3125 9.515625 7.40625 C 10.160156 7.507812 10.832031 7.46875 11.53125 7.28125 C 12.226562 7.09375 12.9375 6.757812 13.65625 6.28125 Z M 13.65625 6.28125 "/></g></g><g style="fill:#ddb65b;fill-opacity:1;"><g transform="translate(73.549852, 271.04524)"><path style="stroke:none" d="M 8.890625 7.765625 L 7.5625 8.890625 L 1.296875 1.53125 L 13.25 -8.625 L 19.515625 -1.265625 L 18.203125 -0.140625 L 13.3125 -5.890625 L 9.34375 -2.515625 L 13.296875 2.140625 L 12.015625 3.21875 L 8.0625 -1.4375 L 4 2.015625 Z M 8.890625 7.765625 "/></g></g><g style="fill:#ddb65b;fill-opacity:1;"><g transform="translate(83.263043, 282.279799)"><path style="stroke:none" d="M 16.40625 -2.578125 C 16.269531 -2.535156 16.15625 -2.519531 16.0625 -2.53125 C 15.976562 -2.550781 15.894531 -2.601562 15.8125 -2.6875 C 15.726562 -2.769531 15.671875 -2.910156 15.640625 -3.109375 C 15.609375 -3.316406 15.550781 -3.5625 15.46875 -3.84375 C 15.382812 -4.125 15.257812 -4.429688 15.09375 -4.765625 C 14.925781 -5.109375 14.660156 -5.457031 14.296875 -5.8125 C 13.953125 -6.132812 13.609375 -6.375 13.265625 -6.53125 C 12.921875 -6.6875 12.582031 -6.769531 12.25 -6.78125 C 11.925781 -6.789062 11.617188 -6.734375 11.328125 -6.609375 C 11.035156 -6.484375 10.769531 -6.296875 10.53125 -6.046875 C 10.21875 -5.734375 10.035156 -5.398438 9.984375 -5.046875 C 9.941406 -4.691406 9.976562 -4.316406 10.09375 -3.921875 C 10.207031 -3.523438 10.375 -3.117188 10.59375 -2.703125 C 10.8125 -2.285156 11.035156 -1.851562 11.265625 -1.40625 C 11.492188 -0.96875 11.695312 -0.519531 11.875 -0.0625 C 12.0625 0.394531 12.175781 0.851562 12.21875 1.3125 C 12.257812 1.78125 12.203125 2.25 12.046875 2.71875 C 11.898438 3.195312 11.601562 3.664062 11.15625 4.125 C 10.675781 4.625 10.140625 5.003906 9.546875 5.265625 C 8.953125 5.535156 8.34375 5.675781 7.71875 5.6875 C 7.09375 5.707031 6.457031 5.582031 5.8125 5.3125 C 5.164062 5.039062 4.539062 4.613281 3.9375 4.03125 C 3.195312 3.320312 2.65625 2.546875 2.3125 1.703125 C 1.976562 0.859375 1.8125 0.0078125 1.8125 -0.84375 L 2.953125 -1.140625 C 3.054688 -1.160156 3.15625 -1.160156 3.25 -1.140625 C 3.34375 -1.117188 3.425781 -1.070312 3.5 -1 C 3.570312 -0.9375 3.625 -0.835938 3.65625 -0.703125 C 3.6875 -0.566406 3.71875 -0.398438 3.75 -0.203125 C 3.78125 -0.015625 3.816406 0.191406 3.859375 0.421875 C 3.910156 0.660156 3.984375 0.910156 4.078125 1.171875 C 4.179688 1.429688 4.320312 1.695312 4.5 1.96875 C 4.6875 2.25 4.925781 2.53125 5.21875 2.8125 C 5.570312 3.164062 5.9375 3.425781 6.3125 3.59375 C 6.695312 3.769531 7.078125 3.859375 7.453125 3.859375 C 7.828125 3.867188 8.1875 3.800781 8.53125 3.65625 C 8.875 3.507812 9.195312 3.285156 9.5 2.984375 C 9.832031 2.640625 10.023438 2.28125 10.078125 1.90625 C 10.128906 1.53125 10.097656 1.148438 9.984375 0.765625 C 9.878906 0.378906 9.710938 -0.0195312 9.484375 -0.4375 C 9.253906 -0.851562 9.023438 -1.28125 8.796875 -1.71875 C 8.566406 -2.15625 8.359375 -2.597656 8.171875 -3.046875 C 7.984375 -3.503906 7.867188 -3.96875 7.828125 -4.4375 C 7.796875 -4.90625 7.863281 -5.378906 8.03125 -5.859375 C 8.195312 -6.347656 8.523438 -6.84375 9.015625 -7.34375 C 9.398438 -7.738281 9.847656 -8.050781 10.359375 -8.28125 C 10.878906 -8.507812 11.421875 -8.625 11.984375 -8.625 C 12.554688 -8.632812 13.144531 -8.515625 13.75 -8.265625 C 14.351562 -8.015625 14.9375 -7.617188 15.5 -7.078125 C 16.132812 -6.472656 16.613281 -5.820312 16.9375 -5.125 C 17.269531 -4.425781 17.445312 -3.695312 17.46875 -2.9375 Z M 16.40625 -2.578125 "/></g></g><g style="fill:#ddb65b;fill-opacity:1;"><g transform="translate(93.47301, 292.001059)"><path style="stroke:none" d="M 18.515625 -3.140625 L 14.515625 -6.28125 L 5.921875 4.65625 L 4.265625 3.34375 L 12.859375 -7.59375 L 8.859375 -10.734375 L 9.953125 -12.140625 L 19.609375 -4.546875 Z M 18.515625 -3.140625 "/></g></g><g style="fill:#ddb65b;fill-opacity:1;"><g transform="translate(105.376891, 301.076528)"><path style="stroke:none" d="M 3.4375 2.28125 L 1.671875 1.109375 L 10.34375 -11.96875 L 12.109375 -10.796875 Z M 3.4375 2.28125 "/></g></g><g style="fill:#ddb65b;fill-opacity:1;"><g transform="translate(112.213613, 305.79044)"><path style="stroke:none" d="M 20.359375 -6.875 L 12.953125 6.953125 L 12.03125 6.453125 C 11.875 6.367188 11.757812 6.273438 11.6875 6.171875 C 11.625 6.066406 11.578125 5.925781 11.546875 5.75 L 9.125 -8.953125 C 9.0625 -8.785156 8.988281 -8.617188 8.90625 -8.453125 C 8.832031 -8.296875 8.757812 -8.148438 8.6875 -8.015625 L 3.40625 1.828125 L 1.765625 0.9375 L 9.171875 -12.890625 L 10.140625 -12.359375 C 10.210938 -12.316406 10.273438 -12.273438 10.328125 -12.234375 C 10.390625 -12.191406 10.4375 -12.144531 10.46875 -12.09375 C 10.507812 -12.050781 10.539062 -12 10.5625 -11.9375 C 10.59375 -11.875 10.613281 -11.796875 10.625 -11.703125 L 13.03125 3 C 13.101562 2.820312 13.175781 2.648438 13.25 2.484375 C 13.320312 2.328125 13.394531 2.175781 13.46875 2.03125 L 18.71875 -7.765625 Z M 20.359375 -6.875 "/></g></g><g style="fill:#ddb65b;fill-opacity:1;"><g transform="translate(129.137704, 314.571009)"><path style="stroke:none" d="M 11.5 2.65625 L 10.859375 4.265625 L 1.859375 0.734375 L 7.59375 -13.859375 L 16.59375 -10.328125 L 15.96875 -8.71875 L 8.953125 -11.46875 L 7.046875 -6.625 L 12.734375 -4.390625 L 12.125 -2.84375 L 6.4375 -5.078125 L 4.484375 -0.09375 Z M 11.5 2.65625 "/></g></g><g style="fill:#ddb65b;fill-opacity:1;"><g transform="translate(143.111152, 320.040196)"><path style="stroke:none" d="M 17.078125 -3.609375 C 16.773438 -2.472656 16.320312 -1.484375 15.71875 -0.640625 C 15.125 0.191406 14.40625 0.847656 13.5625 1.328125 C 12.726562 1.816406 11.804688 2.125 10.796875 2.25 C 9.785156 2.375 8.71875 2.289062 7.59375 2 L 1.9375 0.515625 L 5.921875 -14.65625 L 11.578125 -13.171875 C 12.703125 -12.878906 13.675781 -12.429688 14.5 -11.828125 C 15.320312 -11.222656 15.972656 -10.5 16.453125 -9.65625 C 16.941406 -8.8125 17.238281 -7.875 17.34375 -6.84375 C 17.457031 -5.820312 17.367188 -4.742188 17.078125 -3.609375 Z M 14.984375 -4.171875 C 15.222656 -5.097656 15.304688 -5.960938 15.234375 -6.765625 C 15.171875 -7.578125 14.972656 -8.296875 14.640625 -8.921875 C 14.316406 -9.546875 13.859375 -10.078125 13.265625 -10.515625 C 12.671875 -10.960938 11.960938 -11.296875 11.140625 -11.515625 L 7.53125 -12.46875 L 4.421875 -0.609375 L 8.03125 0.34375 C 8.851562 0.5625 9.628906 0.617188 10.359375 0.515625 C 11.085938 0.421875 11.75 0.1875 12.34375 -0.1875 C 12.945312 -0.570312 13.472656 -1.097656 13.921875 -1.765625 C 14.378906 -2.441406 14.734375 -3.242188 14.984375 -4.171875 Z M 14.984375 -4.171875 "/></g></g><g style="fill:#ddb65b;fill-opacity:1;"><g transform="translate(161.360898, 324.47587)"><path style="stroke:none" d=""/></g></g><g style="fill:#ddb65b;fill-opacity:1;"><g transform="translate(168.887661, 325.797163)"><path style="stroke:none" d="M 13.78125 -12.765625 L 8.71875 -13.203125 L 7.5 0.65625 L 5.40625 0.46875 L 6.625 -13.390625 L 1.546875 -13.828125 L 1.703125 -15.59375 L 13.9375 -14.53125 Z M 13.78125 -12.765625 "/></g></g><g style="fill:#ddb65b;fill-opacity:1;"><g transform="translate(184.157173, 327.129755)"><path style="stroke:none" d="M 16.21875 -8.40625 C 16.257812 -7.226562 16.109375 -6.140625 15.765625 -5.140625 C 15.421875 -4.148438 14.921875 -3.285156 14.265625 -2.546875 C 13.617188 -1.816406 12.828125 -1.238281 11.890625 -0.8125 C 10.953125 -0.394531 9.90625 -0.164062 8.75 -0.125 C 7.601562 -0.0820312 6.550781 -0.238281 5.59375 -0.59375 C 4.632812 -0.957031 3.800781 -1.484375 3.09375 -2.171875 C 2.382812 -2.859375 1.828125 -3.6875 1.421875 -4.65625 C 1.023438 -5.625 0.804688 -6.695312 0.765625 -7.875 C 0.722656 -9.039062 0.867188 -10.125 1.203125 -11.125 C 1.546875 -12.125 2.046875 -12.984375 2.703125 -13.703125 C 3.359375 -14.429688 4.148438 -15.007812 5.078125 -15.4375 C 6.015625 -15.863281 7.054688 -16.097656 8.203125 -16.140625 C 9.359375 -16.179688 10.414062 -16.019531 11.375 -15.65625 C 12.34375 -15.289062 13.175781 -14.769531 13.875 -14.09375 C 14.582031 -13.414062 15.140625 -12.585938 15.546875 -11.609375 C 15.953125 -10.640625 16.175781 -9.570312 16.21875 -8.40625 Z M 14.03125 -8.328125 C 14 -9.285156 13.835938 -10.144531 13.546875 -10.90625 C 13.265625 -11.664062 12.875 -12.296875 12.375 -12.796875 C 11.875 -13.304688 11.273438 -13.691406 10.578125 -13.953125 C 9.890625 -14.210938 9.117188 -14.328125 8.265625 -14.296875 C 7.429688 -14.265625 6.675781 -14.097656 6 -13.796875 C 5.320312 -13.492188 4.75 -13.070312 4.28125 -12.53125 C 3.820312 -11.988281 3.472656 -11.328125 3.234375 -10.546875 C 3.003906 -9.773438 2.90625 -8.910156 2.9375 -7.953125 C 2.96875 -6.984375 3.125 -6.125 3.40625 -5.375 C 3.695312 -4.625 4.09375 -3.988281 4.59375 -3.46875 C 5.09375 -2.957031 5.691406 -2.570312 6.390625 -2.3125 C 7.085938 -2.050781 7.851562 -1.9375 8.6875 -1.96875 C 9.539062 -2 10.300781 -2.164062 10.96875 -2.46875 C 11.644531 -2.769531 12.210938 -3.195312 12.671875 -3.75 C 13.140625 -4.300781 13.488281 -4.957031 13.71875 -5.71875 C 13.957031 -6.488281 14.0625 -7.359375 14.03125 -8.328125 Z M 14.03125 -8.328125 "/></g></g><g style="fill:#ddb65b;fill-opacity:1;"><g transform="translate(203.810441, 326.072561)"><path style="stroke:none" d=""/></g></g><g style="fill:#ddb65b;fill-opacity:1;"><g transform="translate(211.385246, 325.146105)"><path style="stroke:none" d="M 1.875 -14.171875 L 2.765625 -9.875 L 8.171875 -11 L 8.640625 -8.78125 L 3.234375 -7.65625 L 4.140625 -3.28125 L 11.015625 -4.71875 L 11.5 -2.40625 L 1.734375 -0.359375 L -1.5 -15.859375 L 8.265625 -17.90625 L 8.75 -15.609375 Z M 1.875 -14.171875 "/></g></g><g style="fill:#ddb65b;fill-opacity:1;"><g transform="translate(226.158165, 322.15443)"><path style="stroke:none" d="M 12.125 -20.859375 L 17.296875 -6.046875 L 15.546875 -5.4375 L 11.734375 -16.328125 C 11.691406 -16.460938 11.644531 -16.613281 11.59375 -16.78125 C 11.539062 -16.957031 11.492188 -17.128906 11.453125 -17.296875 L 9.59375 -6.265625 C 9.539062 -5.898438 9.351562 -5.660156 9.03125 -5.546875 L 8.75 -5.453125 C 8.425781 -5.335938 8.132812 -5.40625 7.875 -5.65625 L -0.578125 -13.140625 C -0.410156 -12.796875 -0.273438 -12.472656 -0.171875 -12.171875 L 3.640625 -1.28125 L 1.890625 -0.65625 L -3.28125 -15.46875 L -1.8125 -15.984375 C -1.625 -16.054688 -1.476562 -16.085938 -1.375 -16.078125 C -1.269531 -16.078125 -1.144531 -16.015625 -1 -15.890625 L 7.296875 -8.5625 C 7.441406 -8.425781 7.585938 -8.285156 7.734375 -8.140625 C 7.878906 -7.992188 8.015625 -7.835938 8.140625 -7.671875 C 8.148438 -7.878906 8.15625 -8.085938 8.15625 -8.296875 C 8.164062 -8.503906 8.191406 -8.707031 8.234375 -8.90625 L 10.0625 -19.765625 C 10.09375 -19.941406 10.148438 -20.066406 10.234375 -20.140625 C 10.328125 -20.210938 10.460938 -20.28125 10.640625 -20.34375 Z M 12.125 -20.859375 "/></g></g><g style="fill:#ddb65b;fill-opacity:1;"><g transform="translate(247.541197, 314.248129)"><path style="stroke:none" d="M 2.515625 -9.734375 C 3.054688 -10.003906 3.492188 -10.316406 3.828125 -10.671875 C 4.171875 -11.023438 4.414062 -11.398438 4.5625 -11.796875 C 4.71875 -12.203125 4.769531 -12.617188 4.71875 -13.046875 C 4.675781 -13.484375 4.550781 -13.914062 4.34375 -14.34375 C 3.882812 -15.238281 3.253906 -15.796875 2.453125 -16.015625 C 1.648438 -16.234375 0.691406 -16.0625 -0.421875 -15.5 L -2.671875 -14.359375 L 0.265625 -8.59375 Z M -1.171875 -17 C -0.285156 -17.445312 0.535156 -17.734375 1.296875 -17.859375 C 2.054688 -17.984375 2.742188 -17.960938 3.359375 -17.796875 C 3.984375 -17.628906 4.535156 -17.332031 5.015625 -16.90625 C 5.503906 -16.488281 5.914062 -15.953125 6.25 -15.296875 C 6.570312 -14.648438 6.753906 -13.992188 6.796875 -13.328125 C 6.847656 -12.671875 6.75 -12.035156 6.5 -11.421875 C 6.257812 -10.804688 5.867188 -10.222656 5.328125 -9.671875 C 4.796875 -9.128906 4.109375 -8.644531 3.265625 -8.21875 L 1.015625 -7.078125 L 3.671875 -1.859375 L 1.78125 -0.90625 L -5.3125 -14.90625 Z M -1.171875 -17 "/></g></g><g style="fill:#ddb65b;fill-opacity:1;"><g transform="translate(261.407847, 307.205412)"><path style="stroke:none" d="M 9.328125 -15.71875 C 9.984375 -14.738281 10.425781 -13.734375 10.65625 -12.703125 C 10.894531 -11.679688 10.929688 -10.6875 10.765625 -9.71875 C 10.597656 -8.75 10.226562 -7.835938 9.65625 -6.984375 C 9.082031 -6.128906 8.316406 -5.378906 7.359375 -4.734375 C 6.410156 -4.097656 5.429688 -3.675781 4.421875 -3.46875 C 3.410156 -3.257812 2.425781 -3.257812 1.46875 -3.46875 C 0.507812 -3.675781 -0.394531 -4.085938 -1.25 -4.703125 C -2.101562 -5.316406 -2.859375 -6.113281 -3.515625 -7.09375 C -4.160156 -8.0625 -4.601562 -9.054688 -4.84375 -10.078125 C -5.09375 -11.097656 -5.132812 -12.085938 -4.96875 -13.046875 C -4.800781 -14.015625 -4.429688 -14.925781 -3.859375 -15.78125 C -3.285156 -16.644531 -2.523438 -17.394531 -1.578125 -18.03125 C -0.617188 -18.675781 0.363281 -19.097656 1.375 -19.296875 C 2.382812 -19.503906 3.367188 -19.503906 4.328125 -19.296875 C 5.285156 -19.097656 6.195312 -18.691406 7.0625 -18.078125 C 7.925781 -17.472656 8.679688 -16.6875 9.328125 -15.71875 Z M 7.5 -14.5 C 6.96875 -15.289062 6.378906 -15.929688 5.734375 -16.421875 C 5.097656 -16.910156 4.429688 -17.238281 3.734375 -17.40625 C 3.035156 -17.582031 2.320312 -17.597656 1.59375 -17.453125 C 0.875 -17.304688 0.160156 -16.992188 -0.546875 -16.515625 C -1.242188 -16.054688 -1.796875 -15.515625 -2.203125 -14.890625 C -2.617188 -14.273438 -2.878906 -13.609375 -2.984375 -12.890625 C -3.085938 -12.179688 -3.035156 -11.4375 -2.828125 -10.65625 C -2.617188 -9.875 -2.25 -9.085938 -1.71875 -8.296875 C -1.175781 -7.484375 -0.585938 -6.832031 0.046875 -6.34375 C 0.691406 -5.863281 1.363281 -5.539062 2.0625 -5.375 C 2.757812 -5.207031 3.46875 -5.195312 4.1875 -5.34375 C 4.914062 -5.5 5.628906 -5.804688 6.328125 -6.265625 C 7.035156 -6.742188 7.59375 -7.289062 8 -7.90625 C 8.414062 -8.519531 8.675781 -9.179688 8.78125 -9.890625 C 8.882812 -10.597656 8.832031 -11.335938 8.625 -12.109375 C 8.414062 -12.890625 8.039062 -13.6875 7.5 -14.5 Z M 7.5 -14.5 "/></g></g><g style="fill:#ddb65b;fill-opacity:1;"><g transform="translate(278.198424, 295.910286)"><path style="stroke:none" d="M 5.671875 -26.6875 L 12.765625 -11.875 L 11.375 -10.578125 L 0.328125 -16.640625 C 0.210938 -16.691406 0.101562 -16.753906 0 -16.828125 C -0.113281 -16.898438 -0.238281 -16.976562 -0.375 -17.0625 C -0.289062 -16.925781 -0.21875 -16.796875 -0.15625 -16.671875 C -0.101562 -16.554688 -0.046875 -16.445312 0.015625 -16.34375 L 5.234375 -4.859375 L 3.828125 -3.5625 L -10.4375 -11.71875 L -9.15625 -12.90625 C -9.007812 -13.039062 -8.851562 -13.113281 -8.6875 -13.125 C -8.53125 -13.144531 -8.390625 -13.117188 -8.265625 -13.046875 L 1.515625 -7.265625 C 1.691406 -7.160156 1.875 -7.039062 2.0625 -6.90625 C 2.25 -6.769531 2.445312 -6.617188 2.65625 -6.453125 C 2.519531 -6.679688 2.394531 -6.898438 2.28125 -7.109375 C 2.164062 -7.316406 2.0625 -7.507812 1.96875 -7.6875 L -2.75 -18.1875 C -2.800781 -18.3125 -2.8125 -18.453125 -2.78125 -18.609375 C -2.757812 -18.773438 -2.6875 -18.914062 -2.5625 -19.03125 L -2.109375 -19.46875 C -1.960938 -19.59375 -1.8125 -19.660156 -1.65625 -19.671875 C -1.507812 -19.679688 -1.367188 -19.65625 -1.234375 -19.59375 L 8.875 -14.109375 C 9.0625 -14.015625 9.25 -13.90625 9.4375 -13.78125 C 9.625 -13.65625 9.816406 -13.523438 10.015625 -13.390625 C 9.867188 -13.585938 9.738281 -13.78125 9.625 -13.96875 C 9.519531 -14.164062 9.421875 -14.347656 9.328125 -14.515625 L 4.28125 -24.71875 C 4.21875 -24.832031 4.195312 -24.96875 4.21875 -25.125 C 4.25 -25.289062 4.328125 -25.4375 4.453125 -25.5625 Z M 5.671875 -26.6875 "/></g></g><g style="fill:#ddb65b;fill-opacity:1;"><g transform="translate(296.287736, 278.379513)"><path style="stroke:none" d="M 6.015625 -10.15625 L 7.359375 -9.0625 L 1.265625 -1.546875 L -10.90625 -11.4375 L -4.8125 -18.953125 L -3.46875 -17.859375 L -8.21875 -12 L -4.1875 -8.71875 L -0.34375 -13.453125 L 0.953125 -12.40625 L -2.890625 -7.671875 L 1.265625 -4.296875 Z M 6.015625 -10.15625 "/></g></g><g style="fill:#ddb65b;fill-opacity:1;"><g transform="translate(305.622583, 266.753959)"><path style="stroke:none" d="M -3.328125 -9.734375 C -2.992188 -10.242188 -2.757812 -10.734375 -2.625 -11.203125 C -2.5 -11.671875 -2.460938 -12.113281 -2.515625 -12.53125 C -2.578125 -12.957031 -2.722656 -13.34375 -2.953125 -13.6875 C -3.191406 -14.03125 -3.503906 -14.328125 -3.890625 -14.578125 C -4.671875 -15.085938 -5.421875 -15.210938 -6.140625 -14.953125 C -6.867188 -14.703125 -7.570312 -14.0625 -8.25 -13.03125 L -9.515625 -11.078125 L -4.546875 -7.859375 Z M 7.40625 -11.40625 L 6.375 -9.828125 C 6.164062 -9.492188 5.882812 -9.335938 5.53125 -9.359375 L -1.390625 -8.984375 C -1.597656 -8.972656 -1.769531 -8.925781 -1.90625 -8.84375 C -2.050781 -8.769531 -2.207031 -8.609375 -2.375 -8.359375 L -3.25 -7.015625 L 2.234375 -3.453125 L 1.09375 -1.671875 L -12.0625 -10.21875 L -9.65625 -13.953125 C -9.113281 -14.773438 -8.554688 -15.4375 -7.984375 -15.9375 C -7.421875 -16.4375 -6.851562 -16.773438 -6.28125 -16.953125 C -5.707031 -17.140625 -5.132812 -17.179688 -4.5625 -17.078125 C -3.988281 -16.984375 -3.425781 -16.753906 -2.875 -16.390625 C -2.40625 -16.085938 -2.015625 -15.734375 -1.703125 -15.328125 C -1.398438 -14.921875 -1.175781 -14.472656 -1.03125 -13.984375 C -0.894531 -13.492188 -0.84375 -12.976562 -0.875 -12.4375 C -0.914062 -11.894531 -1.039062 -11.320312 -1.25 -10.71875 C -0.976562 -10.875 -0.671875 -10.953125 -0.328125 -10.953125 Z M 7.40625 -11.40625 "/></g></g><g clip-rule="nonzero" clip-path="url(#62d56d60f3)"><g clip-rule="nonzero" clip-path="url(#01473784bd)"><path style=" stroke:none;fill-rule:nonzero;fill:#ddb65b;fill-opacity:1;" d="M 312.550781 184.328125 L 321.613281 184.328125 L 321.613281 193.390625 L 312.550781 193.390625 Z M 312.550781 184.328125 "/></g></g><g style="fill:#ddb65b;fill-opacity:1;"><g transform="translate(150.296757, 233.52449)"><path style="stroke:none" d="M 69.171875 -46.914062 C 69.285156 -45.074219 69.191406 -42.667969 68.894531 -39.691406 C 68.605469 -36.757812 68.175781 -33.433594 67.613281 -29.722656 C 67.050781 -26.019531 66.398438 -22.109375 65.652344 -17.992188 L 63.402344 -5.589844 L 61.828125 3.28125 C 61.285156 6.296875 60.789062 9.1875 60.335938 11.949219 C 59.886719 14.699219 59.539062 17.125 59.285156 19.222656 C 59.039062 21.277344 58.933594 22.796875 58.96875 23.785156 L 57.75 23.828125 L 56.6875 23.21875 C 56.839844 22.953125 57.011719 22.667969 57.199219 22.363281 L 58.238281 23.011719 L 57.175781 22.40625 C 57.488281 21.859375 57.945312 21.503906 58.546875 21.34375 C 59.140625 21.183594 59.710938 21.261719 60.253906 21.570312 C 60.800781 21.886719 61.15625 22.34375 61.316406 22.941406 C 61.476562 23.535156 61.398438 24.105469 61.089844 24.648438 C 60.609375 25.445312 60.097656 26.167969 59.546875 26.816406 C 59.144531 27.292969 58.679688 27.613281 58.160156 27.777344 C 57.613281 27.953125 57.046875 27.945312 56.457031 27.757812 L 56.386719 27.738281 L 56.320312 27.707031 C 55.597656 27.378906 55.082031 26.746094 54.773438 25.8125 C 54.527344 25.074219 54.433594 23.953125 54.492188 22.449219 C 54.546875 21.050781 54.742188 19.132812 55.074219 16.6875 C 55.398438 14.269531 55.882812 11.171875 56.515625 7.394531 C 57.152344 3.625 57.976562 -0.960938 58.992188 -6.359375 L 61.105469 -18.394531 C 61.828125 -22.441406 62.476562 -26.304688 63.054688 -29.984375 C 63.628906 -33.65625 64.070312 -36.945312 64.375 -39.855469 C 64.675781 -42.71875 64.773438 -44.964844 64.671875 -46.597656 C 64.609375 -47.5 64.496094 -48.128906 64.339844 -48.488281 C 64.277344 -48.628906 64.226562 -48.722656 64.1875 -48.765625 C 64.273438 -48.664062 64.414062 -48.597656 64.601562 -48.566406 L 64.804688 -49.769531 L 64.804688 -48.546875 L 64.75 -48.546875 C 64.796875 -48.546875 64.835938 -48.550781 64.871094 -48.558594 C 64.816406 -48.539062 64.738281 -48.496094 64.644531 -48.4375 C 64.382812 -48.277344 64.050781 -48.023438 63.648438 -47.675781 C 62.824219 -46.96875 61.761719 -45.664062 60.46875 -43.761719 C 59.140625 -41.816406 57.566406 -39.039062 55.746094 -35.433594 C 53.878906 -31.703125 51.5625 -26.371094 48.789062 -19.4375 C 46.015625 -12.511719 43.0625 -3.601562 39.925781 7.285156 C 39.75 7.914062 39.421875 8.375 38.9375 8.667969 C 38.453125 8.964844 37.882812 9.042969 37.238281 8.898438 C 36.597656 8.757812 36.121094 8.453125 35.804688 7.988281 C 35.484375 7.519531 35.378906 6.960938 35.484375 6.3125 C 38.007812 -8.539062 39.359375 -19.679688 39.539062 -27.113281 C 39.609375 -29.375 39.578125 -31.140625 39.4375 -32.40625 C 39.304688 -33.628906 39.144531 -34.492188 38.960938 -34.996094 C 38.867188 -35.25 38.785156 -35.453125 38.710938 -35.601562 C 38.683594 -35.65625 38.660156 -35.695312 38.640625 -35.726562 L 38.640625 -35.730469 C 38.648438 -35.71875 38.660156 -35.707031 38.675781 -35.691406 L 38.378906 -35.988281 L 39.242188 -36.851562 L 39.242188 -35.632812 C 39.335938 -35.632812 39.421875 -35.640625 39.496094 -35.660156 C 39.492188 -35.660156 39.476562 -35.65625 39.453125 -35.648438 C 39.378906 -35.625 39.273438 -35.585938 39.132812 -35.539062 C 38.988281 -35.488281 38.652344 -35.214844 38.125 -34.714844 C 37.539062 -34.164062 36.753906 -33.164062 35.773438 -31.714844 C 34.769531 -30.234375 33.554688 -28.125 32.128906 -25.378906 C 30.695312 -22.617188 29.003906 -19.023438 27.0625 -14.597656 C 25.082031 -10.023438 23.089844 -5.078125 21.089844 0.238281 C 19.085938 5.5625 17.164062 11.019531 15.324219 16.609375 C 13.484375 22.203125 11.808594 27.683594 10.292969 33.058594 L 9.117188 32.726562 L 10.339844 32.726562 L 10.339844 33.011719 L 10.257812 33.222656 C 9.984375 33.921875 9.703125 34.546875 9.40625 35.09375 C 8.90625 36.03125 8.195312 36.5 7.273438 36.5 C 7.0625 36.5 6.839844 36.46875 6.597656 36.410156 L 6.539062 36.394531 L 6.480469 36.375 C 5.976562 36.195312 5.585938 35.894531 5.304688 35.480469 C 5.039062 35.089844 4.902344 34.628906 4.886719 34.09375 C 4.863281 33.425781 4.949219 32.425781 5.140625 31.089844 C 5.398438 29.367188 5.835938 26.90625 6.453125 23.703125 C 7.542969 18.226562 9.136719 10.726562 11.234375 1.203125 C 12.175781 -3.175781 13.128906 -7.492188 14.085938 -11.746094 L 16.773438 -23.582031 L 18.945312 -32.949219 L 20.25 -38.4375 C 20.808594 -40.84375 21.097656 -42.648438 21.113281 -43.84375 C 21.128906 -44.941406 21.058594 -45.660156 20.902344 -46 C 20.804688 -46.207031 20.71875 -46.371094 20.652344 -46.480469 C 20.628906 -46.515625 20.613281 -46.539062 20.605469 -46.550781 C 20.625 -46.523438 20.660156 -46.492188 20.707031 -46.460938 L 21.4375 -47.4375 L 20.78125 -46.40625 C 20.804688 -46.390625 20.824219 -46.382812 20.84375 -46.378906 C 20.828125 -46.382812 20.796875 -46.382812 20.757812 -46.378906 C 20.585938 -46.371094 20.359375 -46.308594 20.074219 -46.195312 C 19.363281 -45.910156 18.523438 -45.402344 17.5625 -44.671875 C 16.222656 -43.640625 14.839844 -42.289062 13.410156 -40.617188 C 11.964844 -38.925781 10.597656 -37.070312 9.304688 -35.054688 C 8.019531 -33.046875 6.929688 -31.011719 6.03125 -28.957031 C 5.148438 -26.929688 4.542969 -24.984375 4.214844 -23.125 C 3.90625 -21.378906 3.972656 -19.863281 4.414062 -18.578125 C 5.277344 -16.007812 7.902344 -14.691406 12.285156 -14.628906 C 12.917969 -14.628906 13.457031 -14.386719 13.898438 -13.90625 C 14.3125 -13.453125 14.519531 -12.925781 14.519531 -12.320312 C 14.519531 -11.671875 14.277344 -11.128906 13.796875 -10.6875 C 13.347656 -10.273438 12.835938 -10.066406 12.265625 -10.066406 L 12.179688 -10.066406 C 10.757812 -10.105469 9.265625 -10.308594 7.703125 -10.667969 C 6.058594 -11.050781 4.5625 -11.734375 3.214844 -12.71875 C 1.796875 -13.753906 0.757812 -15.226562 0.09375 -17.128906 C -0.390625 -18.632812 -0.585938 -20.199219 -0.488281 -21.839844 C -0.390625 -23.414062 -0.113281 -24.980469 0.347656 -26.535156 C 0.796875 -28.046875 1.3125 -29.46875 1.894531 -30.800781 C 2.46875 -32.117188 3.015625 -33.257812 3.539062 -34.230469 C 5.058594 -37.007812 6.816406 -39.65625 8.8125 -42.171875 C 10.828125 -44.707031 12.832031 -46.75 14.828125 -48.292969 C 16.867188 -49.851562 18.570312 -50.6875 19.929688 -50.796875 C 21.320312 -50.910156 22.417969 -50.714844 23.226562 -50.207031 C 24.625 -49.316406 25.410156 -47.707031 25.585938 -45.382812 C 25.742188 -43.339844 25.425781 -40.671875 24.632812 -37.382812 L 23.089844 -30.792969 L 20.972656 -21.546875 L 18.503906 -10.667969 L 15.925781 0.835938 L 13.488281 12.011719 C 12.710938 15.601562 12.035156 18.875 11.457031 21.835938 L 10.257812 21.601562 L 9.09375 21.234375 C 10.472656 16.84375 11.921875 12.457031 13.445312 8.066406 C 14.96875 3.675781 16.53125 -0.589844 18.128906 -4.726562 C 19.726562 -8.867188 21.324219 -12.773438 22.925781 -16.445312 C 25.035156 -21.285156 26.894531 -25.214844 28.503906 -28.226562 C 30.121094 -31.261719 31.527344 -33.597656 32.71875 -35.238281 C 33.941406 -36.921875 35 -38.109375 35.890625 -38.796875 C 36.851562 -39.539062 37.683594 -39.964844 38.382812 -40.070312 C 39.03125 -40.164062 39.578125 -40.15625 40.023438 -40.046875 L 39.730469 -38.859375 L 39.984375 -40.054688 C 40.757812 -39.890625 41.46875 -39.433594 42.117188 -38.683594 C 42.71875 -37.992188 43.195312 -36.90625 43.550781 -35.425781 C 43.875 -34.058594 44.070312 -32.164062 44.125 -29.742188 C 44.179688 -27.367188 44.050781 -24.328125 43.742188 -20.628906 C 43.433594 -16.957031 42.914062 -12.449219 42.1875 -7.109375 L 40.976562 -7.273438 L 39.816406 -7.65625 C 42.035156 -14.375 44.277344 -20.507812 46.550781 -26.054688 C 48.828125 -31.609375 51.042969 -36.390625 53.199219 -40.390625 C 55.378906 -44.433594 57.421875 -47.539062 59.328125 -49.707031 C 61.449219 -52.121094 63.410156 -53.234375 65.203125 -53.046875 C 66.46875 -52.914062 67.441406 -52.25 68.128906 -51.058594 C 68.703125 -50.0625 69.050781 -48.683594 69.171875 -46.921875 Z M 66.734375 -46.753906 C 66.5625 -49.222656 65.96875 -50.507812 64.949219 -50.617188 C 64.53125 -50.660156 64.039062 -50.511719 63.46875 -50.164062 C 62.773438 -49.742188 62.003906 -49.050781 61.164062 -48.09375 C 59.378906 -46.066406 57.441406 -43.113281 55.351562 -39.230469 C 53.234375 -35.308594 51.054688 -30.605469 48.808594 -25.128906 C 46.558594 -19.636719 44.335938 -13.558594 42.136719 -6.890625 L 39.765625 -7.4375 C 40.488281 -12.734375 41 -17.203125 41.308594 -20.835938 C 41.609375 -24.445312 41.738281 -27.398438 41.683594 -29.6875 C 41.632812 -31.933594 41.460938 -33.65625 41.171875 -34.859375 C 40.914062 -35.949219 40.613281 -36.691406 40.273438 -37.082031 C 39.980469 -37.421875 39.714844 -37.613281 39.472656 -37.667969 L 39.433594 -37.675781 C 39.300781 -37.710938 39.070312 -37.703125 38.742188 -37.652344 C 38.464844 -37.613281 38.011719 -37.347656 37.382812 -36.863281 C 36.679688 -36.320312 35.78125 -35.296875 34.691406 -33.800781 C 33.566406 -32.253906 32.222656 -30.011719 30.65625 -27.078125 C 29.082031 -24.121094 27.25 -20.25 25.164062 -15.46875 C 23.578125 -11.832031 21.992188 -7.957031 20.40625 -3.847656 C 18.820312 0.265625 17.269531 4.503906 15.753906 8.867188 C 14.238281 13.234375 12.792969 17.601562 11.421875 21.96875 L 9.058594 21.367188 C 9.640625 18.390625 10.320312 15.101562 11.101562 11.488281 L 13.542969 0.304688 L 16.121094 -11.207031 L 18.59375 -22.089844 L 20.710938 -31.351562 L 22.257812 -37.953125 C 22.988281 -40.992188 23.285156 -43.410156 23.152344 -45.199219 C 23.039062 -46.710938 22.628906 -47.691406 21.929688 -48.136719 C 21.582031 -48.355469 20.980469 -48.429688 20.125 -48.363281 C 19.242188 -48.292969 17.976562 -47.625 16.324219 -46.363281 C 14.484375 -44.9375 12.617188 -43.035156 10.726562 -40.652344 C 8.816406 -38.246094 7.136719 -35.71875 5.6875 -33.070312 C 5.199219 -32.160156 4.679688 -31.078125 4.132812 -29.824219 C 3.589844 -28.585938 3.109375 -27.257812 2.691406 -25.839844 C 2.28125 -24.464844 2.035156 -23.082031 1.953125 -21.691406 C 1.871094 -20.359375 2.019531 -19.109375 2.402344 -17.933594 C 2.898438 -16.507812 3.648438 -15.425781 4.65625 -14.691406 C 5.734375 -13.902344 6.933594 -13.355469 8.253906 -13.046875 C 9.65625 -12.722656 10.988281 -12.542969 12.246094 -12.511719 L 12.210938 -11.289062 L 12.210938 -12.511719 L 12.265625 -12.511719 C 12.226562 -12.511719 12.191406 -12.503906 12.15625 -12.488281 L 12.144531 -12.488281 C 12.097656 -12.445312 12.074219 -12.390625 12.074219 -12.320312 C 12.074219 -12.292969 12.082031 -12.269531 12.097656 -12.253906 C 12.140625 -12.207031 12.191406 -12.183594 12.25 -12.183594 C 9.574219 -12.222656 7.398438 -12.6875 5.722656 -13.574219 C 3.9375 -14.523438 2.726562 -15.925781 2.101562 -17.789062 C 1.527344 -19.46875 1.429688 -21.390625 1.808594 -23.550781 C 2.171875 -25.597656 2.832031 -27.726562 3.792969 -29.933594 C 4.742188 -32.109375 5.894531 -34.253906 7.25 -36.371094 C 8.597656 -38.480469 10.035156 -40.425781 11.554688 -42.203125 C 13.09375 -44.007812 14.605469 -45.476562 16.085938 -46.617188 C 17.222656 -47.480469 18.25 -48.09375 19.167969 -48.460938 C 20.367188 -48.941406 21.34375 -48.945312 22.09375 -48.464844 L 22.132812 -48.441406 L 22.171875 -48.414062 C 22.480469 -48.183594 22.792969 -47.71875 23.117188 -47.027344 C 23.429688 -46.351562 23.574219 -45.28125 23.554688 -43.808594 C 23.535156 -42.4375 23.226562 -40.457031 22.625 -37.871094 L 21.324219 -32.398438 L 19.15625 -23.039062 L 16.46875 -11.210938 C 15.511719 -6.960938 14.5625 -2.648438 13.621094 1.726562 C 11.523438 11.234375 9.933594 18.714844 8.851562 24.167969 C 8.238281 27.332031 7.808594 29.757812 7.558594 31.433594 C 7.386719 32.632812 7.3125 33.492188 7.328125 34.019531 C 7.328125 34.070312 7.332031 34.105469 7.339844 34.132812 C 7.339844 34.128906 7.335938 34.125 7.328125 34.113281 C 7.316406 34.09375 7.300781 34.082031 7.285156 34.070312 C 7.28125 34.066406 7.28125 34.066406 7.28125 34.0625 C 7.285156 34.066406 7.292969 34.070312 7.304688 34.074219 L 6.894531 35.222656 L 7.1875 34.039062 C 7.238281 34.050781 7.265625 34.058594 7.273438 34.058594 C 7.226562 34.058594 7.1875 34.070312 7.152344 34.097656 C 7.171875 34.082031 7.207031 34.027344 7.253906 33.941406 C 7.503906 33.480469 7.746094 32.945312 7.980469 32.339844 L 9.117188 32.78125 L 7.898438 32.78125 L 7.898438 32.558594 L 7.941406 32.394531 C 9.46875 26.988281 11.15625 21.472656 13.003906 15.847656 C 14.855469 10.222656 16.789062 4.734375 18.804688 -0.621094 C 20.816406 -5.976562 22.824219 -10.960938 24.824219 -15.578125 C 26.789062 -20.054688 28.5 -23.695312 29.960938 -26.507812 C 31.429688 -29.335938 32.695312 -31.527344 33.753906 -33.085938 C 34.832031 -34.679688 35.730469 -35.816406 36.449219 -36.492188 C 37.226562 -37.226562 37.847656 -37.675781 38.320312 -37.839844 C 38.757812 -37.996094 39.066406 -38.074219 39.242188 -38.074219 L 39.746094 -38.074219 L 40.402344 -37.417969 C 40.691406 -37.128906 40.976562 -36.597656 41.257812 -35.832031 C 41.507812 -35.140625 41.710938 -34.089844 41.867188 -32.671875 C 42.015625 -31.292969 42.054688 -29.421875 41.980469 -27.054688 C 41.800781 -19.503906 40.4375 -8.25 37.894531 6.714844 C 37.890625 6.738281 37.886719 6.757812 37.886719 6.773438 L 37.886719 6.765625 C 37.878906 6.714844 37.855469 6.664062 37.820312 6.613281 C 37.785156 6.5625 37.746094 6.523438 37.707031 6.5 L 37.707031 6.496094 C 37.722656 6.503906 37.742188 6.507812 37.769531 6.515625 C 37.792969 6.519531 37.8125 6.523438 37.828125 6.523438 L 37.824219 6.527344 C 37.773438 6.53125 37.722656 6.550781 37.667969 6.582031 C 37.617188 6.613281 37.578125 6.648438 37.554688 6.6875 C 37.558594 6.683594 37.566406 6.65625 37.578125 6.609375 C 40.738281 -4.355469 43.71875 -13.34375 46.519531 -20.34375 C 49.316406 -27.34375 51.667969 -32.738281 53.566406 -36.535156 C 55.433594 -40.238281 57.0625 -43.105469 58.449219 -45.140625 C 59.867188 -47.21875 61.066406 -48.679688 62.054688 -49.527344 C 62.554688 -49.960938 62.992188 -50.289062 63.363281 -50.519531 C 63.875 -50.832031 64.339844 -50.992188 64.75 -50.992188 L 64.90625 -50.992188 L 65.003906 -50.976562 C 65.652344 -50.867188 66.175781 -50.367188 66.570312 -49.480469 C 66.847656 -48.859375 67.027344 -47.949219 67.109375 -46.753906 C 67.222656 -44.984375 67.121094 -42.601562 66.804688 -39.601562 C 66.496094 -36.648438 66.050781 -33.320312 65.46875 -29.609375 C 64.886719 -25.910156 64.234375 -22.03125 63.511719 -17.972656 L 61.390625 -5.90625 C 60.378906 -0.523438 59.558594 4.046875 58.925781 7.800781 C 58.292969 11.550781 57.816406 14.621094 57.492188 17.015625 C 57.171875 19.382812 56.984375 21.226562 56.933594 22.546875 C 56.886719 23.753906 56.9375 24.585938 57.089844 25.042969 C 57.175781 25.300781 57.257812 25.449219 57.332031 25.484375 L 56.824219 26.59375 L 57.195312 25.429688 C 57.292969 25.460938 57.367188 25.46875 57.417969 25.449219 C 57.496094 25.425781 57.582031 25.355469 57.683594 25.234375 C 58.148438 24.6875 58.578125 24.089844 58.96875 23.4375 C 58.945312 23.476562 58.941406 23.519531 58.957031 23.570312 C 58.972656 23.628906 59 23.667969 59.042969 23.691406 C 59.078125 23.714844 59.125 23.71875 59.175781 23.703125 C 59.234375 23.6875 59.273438 23.660156 59.296875 23.617188 L 59.285156 23.640625 L 59.273438 23.660156 C 59.101562 23.9375 58.945312 24.191406 58.808594 24.433594 L 56.675781 28.164062 L 56.527344 23.867188 C 56.488281 22.757812 56.601562 21.113281 56.859375 18.933594 C 57.117188 16.796875 57.472656 14.339844 57.925781 11.554688 C 58.378906 8.777344 58.878906 5.878906 59.421875 2.851562 L 60.996094 -6.027344 L 63.25 -18.425781 C 63.988281 -22.523438 64.636719 -26.410156 65.199219 -30.089844 C 65.753906 -33.757812 66.179688 -37.039062 66.464844 -39.929688 C 66.75 -42.777344 66.835938 -45.058594 66.734375 -46.765625 Z M 66.734375 -46.753906 "/></g></g><g style="fill:#ddb65b;fill-opacity:1;"><g transform="translate(227.142609, 233.52449)"><path style="stroke:none" d="M 23.222656 -13.171875 C 23.8125 -12.917969 24.210938 -12.484375 24.414062 -11.867188 C 24.605469 -11.300781 24.582031 -10.75 24.351562 -10.210938 L 24.328125 -10.15625 C 23.628906 -8.71875 22.863281 -7.285156 22.035156 -5.847656 C 21.195312 -4.394531 20.316406 -3.058594 19.402344 -1.84375 C 18.445312 -0.574219 17.453125 0.445312 16.417969 1.222656 C 15.261719 2.089844 14.074219 2.523438 12.863281 2.523438 C 12.613281 2.523438 12.347656 2.5 12.066406 2.453125 L 12.035156 2.445312 C 10.410156 2.132812 9.136719 0.972656 8.210938 -1.035156 C 7.402344 -2.789062 6.847656 -5.246094 6.546875 -8.40625 L 7.761719 -8.519531 L 8.742188 -7.796875 C 8.121094 -6.953125 7.398438 -6.011719 6.574219 -4.96875 C 5.746094 -3.917969 4.871094 -2.878906 3.949219 -1.847656 L 3.925781 -1.820312 L 3.902344 -1.796875 C 3.75 -1.644531 3.507812 -1.410156 3.171875 -1.09375 C 2.738281 -0.683594 2.234375 -0.359375 1.664062 -0.121094 C 0.886719 0.203125 0.113281 0.171875 -0.65625 -0.210938 L -0.109375 -1.300781 L -0.539062 -0.160156 C -1.949219 -0.6875 -2.628906 -2.019531 -2.578125 -4.152344 L -1.355469 -4.125 L -2.578125 -4.125 C -2.578125 -5.132812 -2.394531 -6.355469 -2.023438 -7.792969 C -1.660156 -9.207031 -1.148438 -10.625 -0.484375 -12.050781 C 0.191406 -13.496094 0.988281 -14.785156 1.902344 -15.910156 C 2.898438 -17.140625 4.03125 -17.976562 5.300781 -18.414062 L 5.699219 -17.257812 L 5.257812 -18.398438 C 6.117188 -18.734375 7.132812 -18.800781 8.296875 -18.597656 C 9.527344 -18.386719 10.746094 -17.570312 11.949219 -16.148438 C 12.34375 -15.679688 12.519531 -15.136719 12.480469 -14.523438 C 12.441406 -13.882812 12.175781 -13.363281 11.691406 -12.957031 C 11.226562 -12.566406 10.6875 -12.394531 10.074219 -12.429688 C 9.433594 -12.472656 8.910156 -12.734375 8.503906 -13.222656 C 8.15625 -13.628906 7.847656 -13.917969 7.570312 -14.09375 C 7.429688 -14.183594 7.335938 -14.226562 7.296875 -14.222656 C 6.894531 -14.191406 6.570312 -14.078125 6.324219 -13.894531 C 5.652344 -13.40625 5.03125 -12.691406 4.464844 -11.746094 C 3.855469 -10.726562 3.347656 -9.660156 2.9375 -8.539062 C 2.527344 -7.410156 2.238281 -6.367188 2.070312 -5.40625 C 1.914062 -4.507812 1.859375 -3.886719 1.914062 -3.550781 L 0.707031 -3.363281 L 0.0273438 -4.382812 C 0.0976562 -4.425781 0.175781 -4.488281 0.261719 -4.5625 C 0.332031 -4.621094 0.414062 -4.710938 0.511719 -4.832031 L 0.535156 -4.863281 L 0.5625 -4.890625 C 1.625 -6.0625 2.597656 -7.222656 3.484375 -8.371094 C 4.378906 -9.535156 5.148438 -10.566406 5.792969 -11.460938 C 5.96875 -11.707031 6.136719 -11.945312 6.296875 -12.175781 C 6.476562 -12.433594 6.644531 -12.664062 6.808594 -12.867188 C 7.113281 -13.25 7.488281 -13.503906 7.929688 -13.628906 C 8.351562 -13.75 8.792969 -13.738281 9.261719 -13.597656 L 8.902344 -12.429688 L 9.175781 -13.617188 C 9.679688 -13.503906 10.085938 -13.261719 10.386719 -12.894531 C 10.679688 -12.539062 10.84375 -12.105469 10.878906 -11.59375 L 10.878906 -11.578125 L 10.882812 -11.5625 C 10.988281 -9.269531 11.171875 -7.433594 11.429688 -6.0625 C 11.683594 -4.730469 11.953125 -3.757812 12.234375 -3.144531 C 12.488281 -2.597656 12.695312 -2.253906 12.851562 -2.113281 C 12.9375 -2.039062 13.003906 -1.988281 13.042969 -1.964844 C 12.960938 -2.011719 12.847656 -2.035156 12.699219 -2.035156 L 12.828125 -2.035156 L 12.953125 -2.007812 C 12.921875 -2.015625 12.894531 -2.019531 12.875 -2.015625 C 12.882812 -2.015625 12.902344 -2.023438 12.929688 -2.03125 C 13.050781 -2.066406 13.203125 -2.144531 13.386719 -2.265625 C 13.859375 -2.566406 14.441406 -3.074219 15.136719 -3.785156 C 16.5625 -5.246094 18.261719 -8.015625 20.230469 -12.089844 C 20.53125 -12.691406 20.976562 -13.09375 21.566406 -13.289062 C 22.183594 -13.496094 22.777344 -13.433594 23.347656 -13.109375 L 22.742188 -12.050781 Z M 22.261719 -10.925781 L 22.195312 -10.953125 L 22.136719 -10.988281 C 22.199219 -10.953125 22.265625 -10.945312 22.339844 -10.972656 C 22.367188 -10.980469 22.394531 -10.996094 22.417969 -11.019531 L 22.429688 -11.03125 C 20.347656 -6.710938 18.496094 -3.726562 16.882812 -2.078125 C 16.058594 -1.234375 15.332031 -0.609375 14.703125 -0.207031 C 13.871094 0.328125 13.117188 0.523438 12.449219 0.382812 L 12.699219 -0.8125 L 12.699219 0.40625 C 12.25 0.40625 11.765625 0.179688 11.246094 -0.273438 C 10.824219 -0.640625 10.414062 -1.257812 10.015625 -2.121094 C 9.648438 -2.917969 9.320312 -4.078125 9.03125 -5.605469 C 8.75 -7.09375 8.550781 -9.039062 8.441406 -11.449219 L 9.660156 -11.507812 L 8.441406 -11.417969 C 8.441406 -11.433594 8.441406 -11.441406 8.4375 -11.449219 C 8.4375 -11.449219 8.441406 -11.445312 8.441406 -11.441406 C 8.453125 -11.40625 8.472656 -11.375 8.5 -11.339844 C 8.550781 -11.28125 8.59375 -11.246094 8.625 -11.238281 L 8.582031 -11.25 L 8.542969 -11.261719 C 8.523438 -11.265625 8.515625 -11.269531 8.511719 -11.269531 C 8.539062 -11.269531 8.566406 -11.273438 8.597656 -11.28125 C 8.660156 -11.300781 8.699219 -11.320312 8.714844 -11.339844 C 8.585938 -11.179688 8.449219 -10.996094 8.304688 -10.785156 C 8.136719 -10.542969 7.960938 -10.292969 7.777344 -10.03125 C 7.117188 -9.117188 6.332031 -8.066406 5.417969 -6.882812 C 4.492188 -5.679688 3.476562 -4.46875 2.367188 -3.25 L 1.464844 -4.070312 L 2.417969 -3.308594 C 2.226562 -3.066406 2.039062 -2.867188 1.851562 -2.710938 C 1.6875 -2.570312 1.53125 -2.449219 1.382812 -2.347656 L -0.210938 -1.285156 L -0.5 -3.179688 C -0.59375 -3.78125 -0.539062 -4.664062 -0.335938 -5.828125 C -0.140625 -6.929688 0.183594 -8.113281 0.644531 -9.371094 C 1.105469 -10.640625 1.679688 -11.851562 2.371094 -13.003906 C 3.109375 -14.230469 3.9375 -15.179688 4.859375 -15.847656 C 5.476562 -16.3125 6.222656 -16.582031 7.085938 -16.65625 C 8.136719 -16.746094 9.234375 -16.125 10.382812 -14.785156 C 10.339844 -14.835938 10.285156 -14.863281 10.226562 -14.867188 C 10.191406 -14.871094 10.160156 -14.859375 10.128906 -14.832031 C 10.074219 -14.789062 10.046875 -14.738281 10.042969 -14.675781 C 10.039062 -14.640625 10.054688 -14.605469 10.085938 -14.570312 C 9.265625 -15.539062 8.527344 -16.078125 7.878906 -16.191406 C 7.160156 -16.316406 6.582031 -16.292969 6.140625 -16.121094 L 6.121094 -16.113281 L 6.097656 -16.105469 C 5.269531 -15.820312 4.5 -15.242188 3.796875 -14.375 C 3.011719 -13.402344 2.320312 -12.28125 1.730469 -11.015625 C 1.128906 -9.730469 0.667969 -8.453125 0.339844 -7.1875 C 0.0234375 -5.945312 -0.136719 -4.925781 -0.136719 -4.125 L -0.136719 -4.097656 C -0.160156 -3.117188 -0.0078125 -2.570312 0.320312 -2.445312 L 0.378906 -2.421875 L 0.4375 -2.394531 C 0.539062 -2.34375 0.632812 -2.339844 0.722656 -2.375 C 1.019531 -2.5 1.277344 -2.664062 1.496094 -2.867188 C 1.8125 -3.167969 2.039062 -3.386719 2.175781 -3.523438 L 3.039062 -2.660156 L 2.128906 -3.472656 C 3.015625 -4.46875 3.859375 -5.472656 4.660156 -6.484375 C 5.464844 -7.503906 6.171875 -8.425781 6.777344 -9.246094 L 8.671875 -11.808594 L 8.976562 -8.636719 C 9.253906 -5.753906 9.738281 -3.5625 10.429688 -2.058594 C 11.007812 -0.808594 11.695312 -0.105469 12.5 0.0507812 L 12.265625 1.25 L 12.46875 0.0429688 C 12.617188 0.0703125 12.75 0.0820312 12.863281 0.0820312 C 13.53125 0.0820312 14.230469 -0.191406 14.953125 -0.734375 C 15.800781 -1.371094 16.632812 -2.230469 17.449219 -3.3125 C 18.308594 -4.449219 19.128906 -5.703125 19.917969 -7.070312 C 20.71875 -8.457031 21.457031 -9.839844 22.132812 -11.226562 L 23.230469 -10.691406 L 22.105469 -11.171875 C 22.09375 -11.140625 22.089844 -11.113281 22.097656 -11.09375 C 22.125 -11.015625 22.175781 -10.960938 22.261719 -10.925781 Z M 22.261719 -10.925781 "/></g></g><g style="fill:#ddb65b;fill-opacity:1;"><g transform="translate(255.418202, 233.52449)"><path style="stroke:none" d="M 23.851562 -46.335938 C 24.171875 -46.121094 24.433594 -45.761719 24.636719 -45.257812 C 24.800781 -44.839844 24.886719 -44.21875 24.886719 -43.394531 C 24.886719 -42.632812 24.730469 -41.566406 24.421875 -40.191406 C 24.125 -38.875 23.625 -37.128906 22.925781 -34.957031 L 22.917969 -34.929688 L 22.90625 -34.902344 C 22.808594 -34.640625 22.71875 -34.371094 22.636719 -34.09375 C 22.539062 -33.757812 22.429688 -33.429688 22.3125 -33.113281 L 21.167969 -33.542969 L 22.332031 -33.171875 C 21.492188 -30.546875 20.472656 -27.609375 19.273438 -24.355469 C 18.0625 -21.066406 16.429688 -17.476562 14.378906 -13.59375 L 13.296875 -14.164062 L 14.496094 -13.925781 C 14.023438 -11.578125 13.539062 -9.074219 13.03125 -6.421875 C 12.527344 -3.769531 12.019531 -0.960938 11.515625 1.996094 C 10.867188 6 10.351562 9.300781 9.972656 11.898438 C 9.597656 14.484375 9.335938 16.535156 9.195312 18.050781 C 9.050781 19.570312 8.960938 20.71875 8.925781 21.492188 L 7.707031 21.4375 L 7.277344 20.296875 C 7.855469 20.078125 8.429688 20.078125 9.003906 20.296875 L 9.097656 20.328125 L 9.179688 20.378906 C 9.703125 20.675781 10.0625 21.109375 10.25 21.675781 C 10.4375 22.242188 10.417969 22.792969 10.1875 23.332031 C 9.972656 23.804688 9.683594 24.3125 9.320312 24.855469 C 8.753906 25.707031 8.015625 26.132812 7.109375 26.132812 C 6.863281 26.132812 6.621094 26.101562 6.378906 26.042969 L 6.324219 26.027344 C 5.601562 25.808594 5.074219 25.320312 4.742188 24.558594 C 4.492188 23.980469 4.375 23.015625 4.394531 21.664062 C 4.414062 20.445312 4.570312 18.621094 4.867188 16.191406 C 5.300781 12.410156 6.027344 7.4375 7.042969 1.265625 C 7.625 -2.113281 8.226562 -5.398438 8.839844 -8.589844 L 10.039062 -8.359375 L 11.078125 -7.710938 C 10.527344 -6.835938 9.953125 -5.9375 9.351562 -5.027344 C 8.75 -4.113281 8.121094 -3.183594 7.460938 -2.234375 C 6.414062 -0.683594 5.4375 0.433594 4.53125 1.113281 C 3.539062 1.855469 2.625 2.253906 1.785156 2.304688 C 0.953125 2.355469 0.234375 2.214844 -0.367188 1.886719 L -0.386719 1.875 L -0.402344 1.867188 C -1.519531 1.207031 -2.21875 0.0976562 -2.503906 -1.464844 C -2.746094 -2.804688 -2.71875 -4.296875 -2.421875 -5.941406 C -2.132812 -7.542969 -1.660156 -9.074219 -1.007812 -10.539062 C 0.363281 -13.4375 1.964844 -15.5 3.796875 -16.726562 C 5.757812 -18.039062 7.496094 -18.484375 9.015625 -18.054688 L 9.089844 -18.035156 L 9.164062 -18.003906 C 9.496094 -17.859375 9.964844 -17.574219 10.578125 -17.148438 C 11.425781 -16.554688 11.921875 -15.546875 12.070312 -14.128906 L 10.855469 -14.003906 L 9.820312 -14.648438 C 9.980469 -14.90625 10.125 -15.164062 10.25 -15.417969 L 11.34375 -14.871094 L 10.148438 -15.128906 C 11.496094 -21.378906 12.820312 -26.769531 14.132812 -31.304688 C 15.449219 -35.863281 16.691406 -39.429688 17.855469 -41.996094 C 18.457031 -43.324219 19.023438 -44.363281 19.550781 -45.117188 C 20.191406 -46.035156 20.84375 -46.597656 21.503906 -46.808594 L 21.871094 -45.644531 L 21.460938 -46.796875 C 21.949219 -46.96875 22.417969 -47 22.875 -46.882812 C 23.332031 -46.769531 23.730469 -46.523438 24.078125 -46.140625 L 23.175781 -45.320312 Z M 22.496094 -44.304688 L 22.371094 -44.386719 L 22.273438 -44.496094 C 22.253906 -44.515625 22.242188 -44.527344 22.234375 -44.535156 C 22.246094 -44.527344 22.261719 -44.519531 22.28125 -44.515625 C 22.300781 -44.507812 22.320312 -44.507812 22.332031 -44.507812 C 22.324219 -44.507812 22.308594 -44.503906 22.285156 -44.496094 L 22.261719 -44.488281 L 22.242188 -44.480469 C 22.21875 -44.472656 22.160156 -44.429688 22.074219 -44.347656 C 21.917969 -44.203125 21.742188 -43.992188 21.550781 -43.71875 C 21.109375 -43.085938 20.621094 -42.175781 20.082031 -40.988281 C 18.964844 -38.527344 17.765625 -35.074219 16.480469 -30.625 C 15.183594 -26.148438 13.871094 -20.808594 12.539062 -14.613281 L 12.503906 -14.464844 L 12.4375 -14.324219 C 12.273438 -14 12.09375 -13.679688 11.890625 -13.355469 L 10.007812 -10.339844 L 9.640625 -13.878906 C 9.570312 -14.554688 9.414062 -14.980469 9.175781 -15.144531 C 8.703125 -15.476562 8.378906 -15.679688 8.203125 -15.757812 L 8.683594 -16.878906 L 8.351562 -15.703125 C 7.558594 -15.925781 6.492188 -15.59375 5.15625 -14.699219 C 3.699219 -13.71875 2.386719 -12 1.222656 -9.542969 C 0.648438 -8.257812 0.234375 -6.914062 -0.0195312 -5.507812 C -0.265625 -4.152344 -0.292969 -2.949219 -0.101562 -1.902344 C 0.0507812 -1.074219 0.363281 -0.519531 0.839844 -0.238281 L 0.21875 0.8125 L 0.800781 -0.257812 C 0.996094 -0.152344 1.273438 -0.113281 1.636719 -0.132812 C 1.988281 -0.15625 2.464844 -0.390625 3.066406 -0.839844 C 3.753906 -1.355469 4.550781 -2.285156 5.453125 -3.625 C 6.101562 -4.558594 6.71875 -5.472656 7.3125 -6.371094 C 7.902344 -7.269531 8.46875 -8.144531 9.003906 -9.003906 L 11.238281 -8.125 C 10.625 -4.949219 10.03125 -1.6875 9.453125 1.664062 C 8.445312 7.796875 7.722656 12.734375 7.292969 16.484375 C 7.007812 18.828125 6.855469 20.570312 6.839844 21.703125 C 6.824219 22.703125 6.871094 23.328125 6.980469 23.582031 C 7.007812 23.644531 7.03125 23.683594 7.050781 23.703125 C 7.042969 23.695312 7.035156 23.691406 7.027344 23.6875 L 6.675781 24.859375 L 6.972656 23.671875 C 7.019531 23.683594 7.066406 23.691406 7.109375 23.691406 C 7.144531 23.691406 7.203125 23.628906 7.289062 23.5 C 7.578125 23.066406 7.792969 22.691406 7.941406 22.367188 C 7.929688 22.398438 7.925781 22.425781 7.933594 22.449219 C 7.941406 22.472656 7.953125 22.488281 7.96875 22.5 L 8.574219 21.4375 L 8.148438 22.582031 C 8.144531 22.582031 8.140625 22.582031 8.136719 22.582031 L 6.402344 23.230469 L 6.488281 21.382812 C 6.523438 20.566406 6.617188 19.378906 6.761719 17.824219 C 6.910156 16.265625 7.175781 14.171875 7.558594 11.546875 C 7.9375 8.933594 8.453125 5.613281 9.109375 1.585938 C 9.617188 -1.390625 10.125 -4.210938 10.632812 -6.878906 C 11.140625 -9.539062 11.628906 -12.050781 12.101562 -14.40625 L 12.132812 -14.578125 L 12.21875 -14.734375 C 14.21875 -18.523438 15.804688 -22.011719 16.980469 -25.199219 C 18.167969 -28.421875 19.175781 -31.324219 20.003906 -33.914062 L 20.011719 -33.941406 L 20.023438 -33.96875 C 20.121094 -34.230469 20.210938 -34.503906 20.292969 -34.78125 C 20.394531 -35.117188 20.5 -35.445312 20.621094 -35.761719 L 21.765625 -35.332031 L 20.601562 -35.707031 C 21.277344 -37.808594 21.757812 -39.480469 22.039062 -40.730469 C 22.308594 -41.925781 22.441406 -42.8125 22.441406 -43.394531 C 22.441406 -43.90625 22.417969 -44.222656 22.367188 -44.351562 C 22.339844 -44.417969 22.320312 -44.460938 22.304688 -44.484375 C 22.34375 -44.421875 22.40625 -44.363281 22.496094 -44.304688 Z M 3.769531 -4.816406 C 4.628906 -6.070312 5.445312 -7.304688 6.214844 -8.523438 C 6.980469 -9.738281 7.707031 -10.9375 8.386719 -12.117188 L 9.445312 -11.507812 L 9.058594 -10.347656 C 8.5 -10.535156 8.089844 -10.847656 7.828125 -11.285156 C 7.554688 -11.734375 7.480469 -12.25 7.59375 -12.832031 L 8.792969 -12.589844 L 7.570312 -12.589844 C 7.570312 -12.832031 7.5625 -13.226562 7.542969 -13.773438 C 7.542969 -13.820312 7.539062 -13.855469 7.53125 -13.878906 C 7.535156 -13.871094 7.542969 -13.859375 7.554688 -13.839844 C 7.597656 -13.773438 7.644531 -13.730469 7.699219 -13.710938 L 7.617188 -13.738281 L 7.539062 -13.777344 C 7.613281 -13.742188 7.683594 -13.71875 7.75 -13.707031 L 7.761719 -13.703125 C 7.617188 -13.703125 7.410156 -13.632812 7.140625 -13.492188 C 6.773438 -13.296875 6.351562 -12.996094 5.867188 -12.585938 C 4.898438 -11.757812 3.976562 -10.429688 3.113281 -8.597656 C 2.546875 -7.402344 2.183594 -6.273438 2.019531 -5.214844 C 1.859375 -4.15625 1.824219 -3.285156 1.914062 -2.605469 C 1.957031 -2.316406 2.003906 -2.105469 2.0625 -1.96875 L 2.058594 -1.960938 C 2.007812 -2.023438 1.9375 -2.078125 1.847656 -2.125 L 1.917969 -2.089844 L 1.980469 -2.046875 C 1.757812 -2.195312 1.523438 -2.257812 1.28125 -2.226562 C 1.253906 -2.222656 1.226562 -2.21875 1.207031 -2.214844 C 1.207031 -2.214844 1.210938 -2.214844 1.21875 -2.21875 C 1.332031 -2.257812 1.503906 -2.34375 1.734375 -2.476562 C 2.152344 -2.710938 2.835938 -3.496094 3.777344 -4.832031 Z M 5.773438 -3.417969 C 4.617188 -1.785156 3.671875 -0.761719 2.933594 -0.347656 C 2.585938 -0.152344 2.296875 -0.0117188 2.0625 0.0742188 C 1.503906 0.28125 1.023438 0.25 0.625 -0.015625 L 1.300781 -1.03125 L 0.757812 0.0625 C 0.0820312 -0.277344 -0.339844 -1.054688 -0.503906 -2.277344 C -0.628906 -3.191406 -0.59375 -4.292969 -0.394531 -5.585938 C -0.195312 -6.878906 0.238281 -8.230469 0.902344 -9.640625 C 1.917969 -11.789062 3.046875 -13.390625 4.28125 -14.445312 C 5.613281 -15.578125 6.773438 -16.148438 7.761719 -16.148438 C 8.097656 -16.148438 8.390625 -16.085938 8.632812 -15.964844 L 8.085938 -14.871094 L 8.472656 -16.03125 C 8.964844 -15.867188 9.34375 -15.574219 9.609375 -15.15625 C 9.84375 -14.792969 9.96875 -14.355469 9.984375 -13.851562 C 10.003906 -13.277344 10.015625 -12.859375 10.015625 -12.589844 L 10.015625 -12.472656 L 9.988281 -12.351562 L 9.984375 -12.363281 C 9.976562 -12.421875 9.957031 -12.484375 9.921875 -12.542969 C 9.886719 -12.597656 9.851562 -12.640625 9.808594 -12.667969 C 9.800781 -12.675781 9.796875 -12.679688 9.792969 -12.679688 C 9.800781 -12.675781 9.8125 -12.671875 9.828125 -12.664062 L 11.246094 -12.191406 L 10.503906 -10.898438 C 9.804688 -9.6875 9.066406 -8.460938 8.277344 -7.21875 C 7.492188 -5.972656 6.660156 -4.714844 5.785156 -3.433594 Z M 18.601562 -36.378906 C 19.023438 -37.617188 19.347656 -38.679688 19.578125 -39.570312 C 19.808594 -40.480469 19.996094 -41.253906 20.136719 -41.894531 L 21.328125 -41.628906 L 22.429688 -41.09375 C 21.761719 -39.726562 20.949219 -37.640625 19.988281 -34.828125 C 19.023438 -32 17.964844 -28.359375 16.8125 -23.902344 L 15.632812 -24.207031 L 14.5 -24.671875 C 15.25 -26.492188 15.902344 -28.222656 16.453125 -29.859375 C 17.015625 -31.519531 17.527344 -33.074219 17.996094 -34.515625 C 18.101562 -34.832031 18.199219 -35.140625 18.285156 -35.433594 C 18.382812 -35.769531 18.492188 -36.097656 18.613281 -36.414062 L 19.757812 -35.984375 Z M 20.910156 -35.589844 L 20.90625 -35.570312 L 20.898438 -35.554688 C 20.800781 -35.292969 20.710938 -35.023438 20.628906 -34.742188 C 20.535156 -34.421875 20.433594 -34.09375 20.320312 -33.761719 C 19.847656 -32.308594 19.332031 -30.75 18.769531 -29.082031 C 18.199219 -27.390625 17.53125 -25.613281 16.761719 -23.742188 L 14.449219 -24.511719 C 15.613281 -29.027344 16.691406 -32.730469 17.675781 -35.621094 C 18.671875 -38.527344 19.523438 -40.707031 20.230469 -42.164062 L 22.523438 -41.363281 C 22.375 -40.699219 22.183594 -39.902344 21.945312 -38.964844 C 21.699219 -38.011719 21.355469 -36.886719 20.910156 -35.589844 Z M 20.910156 -35.589844 "/></g></g><g style="fill:#ddb65b;fill-opacity:1;"><g transform="translate(280.491961, 233.52449)"><path style="stroke:none" d="M 18.949219 -13.164062 C 19.558594 -12.816406 19.902344 -12.296875 19.992188 -11.601562 C 20.066406 -11.011719 19.945312 -10.484375 19.632812 -10.015625 L 19.621094 -9.996094 L 19.609375 -9.980469 C 17.445312 -6.972656 15.460938 -4.484375 13.65625 -2.511719 C 11.824219 -0.515625 9.988281 1.144531 8.144531 2.460938 C 6.589844 3.550781 5.035156 4.097656 3.472656 4.097656 C 2.199219 4.097656 1.078125 3.75 0.105469 3.054688 C -0.558594 2.582031 -1.179688 1.800781 -1.757812 0.707031 C -2.335938 -0.386719 -2.644531 -1.90625 -2.6875 -3.855469 C -2.726562 -5.746094 -2.273438 -8.183594 -1.328125 -11.167969 L -0.164062 -10.800781 L -1.382812 -10.800781 L -1.382812 -11.042969 L -1.328125 -11.21875 C -0.195312 -14.839844 1.148438 -17.625 2.710938 -19.570312 C 4.410156 -21.6875 5.972656 -22.773438 7.394531 -22.820312 C 8.066406 -22.851562 8.652344 -22.703125 9.144531 -22.375 C 9.648438 -22.039062 10.007812 -21.546875 10.222656 -20.902344 L 9.0625 -20.515625 L 10.207031 -20.949219 C 10.753906 -19.5 10.238281 -17.632812 8.65625 -15.34375 C 7.253906 -13.316406 5.210938 -11.183594 2.519531 -8.941406 L 1.738281 -9.878906 L 2.902344 -9.511719 C 2.148438 -7.109375 1.785156 -5.257812 1.816406 -3.964844 C 1.847656 -2.742188 1.996094 -1.902344 2.253906 -1.445312 C 2.542969 -0.941406 2.738281 -0.644531 2.84375 -0.558594 L 2.0625 0.378906 L 2.785156 -0.605469 C 3.390625 -0.160156 4.304688 -0.378906 5.527344 -1.261719 C 7.128906 -2.375 8.746094 -3.832031 10.386719 -5.625 C 12.054688 -7.453125 13.886719 -9.773438 15.882812 -12.59375 L 15.910156 -12.632812 L 15.941406 -12.667969 C 16.308594 -13.109375 16.78125 -13.386719 17.359375 -13.492188 C 18.027344 -13.617188 18.613281 -13.46875 19.125 -13.042969 L 18.34375 -12.101562 Z M 17.738281 -11.042969 L 17.644531 -11.097656 L 17.5625 -11.164062 C 17.640625 -11.101562 17.722656 -11.078125 17.808594 -11.09375 L 17.800781 -11.09375 C 17.808594 -11.097656 17.816406 -11.101562 17.816406 -11.105469 L 16.878906 -11.886719 L 17.875 -11.179688 C 15.820312 -8.28125 13.925781 -5.878906 12.191406 -3.980469 C 10.429688 -2.050781 8.683594 -0.484375 6.957031 0.71875 C 5.949219 1.449219 5 1.882812 4.109375 2.019531 C 3.078125 2.179688 2.15625 1.960938 1.339844 1.363281 L 1.308594 1.34375 L 1.28125 1.316406 C 0.949219 1.042969 0.566406 0.527344 0.132812 -0.234375 C -0.328125 -1.046875 -0.582031 -2.269531 -0.625 -3.902344 C -0.664062 -5.46875 -0.265625 -7.582031 0.570312 -10.246094 L 0.679688 -10.585938 L 0.953125 -10.816406 C 3.476562 -12.917969 5.371094 -14.886719 6.648438 -16.734375 C 7.246094 -17.601562 7.648438 -18.347656 7.84375 -18.976562 C 7.996094 -19.453125 8.019531 -19.820312 7.921875 -20.082031 L 7.90625 -20.128906 C 7.867188 -20.246094 7.828125 -20.316406 7.789062 -20.339844 C 7.738281 -20.375 7.636719 -20.386719 7.476562 -20.378906 C 7.207031 -20.371094 6.859375 -20.210938 6.433594 -19.894531 C 5.886719 -19.492188 5.28125 -18.875 4.617188 -18.042969 C 3.246094 -16.335938 2.042969 -13.816406 1.003906 -10.492188 L -0.164062 -10.855469 L 1.058594 -10.855469 L 1.058594 -10.613281 L 1 -10.433594 C 0.136719 -7.703125 -0.277344 -5.527344 -0.246094 -3.90625 C -0.210938 -2.34375 0.00390625 -1.1875 0.402344 -0.4375 C 0.800781 0.316406 1.175781 0.820312 1.523438 1.070312 C 2.070312 1.460938 2.722656 1.65625 3.472656 1.65625 C 4.519531 1.65625 5.601562 1.261719 6.726562 0.472656 C 8.429688 -0.746094 10.136719 -2.289062 11.855469 -4.164062 C 13.59375 -6.0625 15.519531 -8.476562 17.625 -11.40625 L 18.617188 -10.691406 L 17.601562 -11.371094 C 17.585938 -11.347656 17.578125 -11.324219 17.570312 -11.300781 L 17.566406 -11.300781 C 17.582031 -11.1875 17.640625 -11.101562 17.738281 -11.042969 Z M 7.710938 -18.292969 C 7.417969 -18.105469 6.96875 -17.652344 6.359375 -16.933594 C 5.742188 -16.203125 5.097656 -15.109375 4.417969 -13.652344 L 3.3125 -14.164062 L 2.460938 -15.042969 C 3.6875 -16.238281 4.546875 -17.234375 5.039062 -18.03125 C 5.519531 -18.820312 5.800781 -19.355469 5.878906 -19.644531 L 7.054688 -19.320312 Z M 6.398438 -20.351562 L 9.066406 -22.046875 L 8.234375 -19 C 8.09375 -18.492188 7.722656 -17.742188 7.121094 -16.757812 C 6.523438 -15.785156 5.539062 -14.628906 4.160156 -13.289062 L 2.203125 -14.679688 C 2.972656 -16.335938 3.738281 -17.613281 4.496094 -18.507812 C 5.261719 -19.417969 5.898438 -20.03125 6.398438 -20.351562 Z M 6.398438 -20.351562 "/></g></g><g style="fill:#ddb65b;fill-opacity:1;"><g transform="translate(150.296757, 233.52449)"><path style="stroke:none" d="M 67.953125 -46.84375 C 68.066406 -45.070312 67.976562 -42.726562 67.6875 -39.8125 C 67.394531 -36.90625 66.96875 -33.601562 66.40625 -29.90625 C 65.851562 -26.21875 65.203125 -22.316406 64.453125 -18.203125 C 63.710938 -14.097656 62.960938 -9.96875 62.203125 -5.8125 C 61.703125 -2.914062 61.175781 0.0390625 60.625 3.0625 C 60.082031 6.082031 59.582031 8.976562 59.125 11.75 C 58.675781 14.519531 58.328125 16.960938 58.078125 19.078125 C 57.828125 21.191406 57.71875 22.773438 57.75 23.828125 C 57.894531 23.578125 58.0625 23.304688 58.25 23.015625 C 58.382812 22.765625 58.585938 22.601562 58.859375 22.53125 C 59.140625 22.457031 59.40625 22.492188 59.65625 22.640625 C 59.90625 22.785156 60.066406 22.992188 60.140625 23.265625 C 60.210938 23.535156 60.175781 23.796875 60.03125 24.046875 C 59.601562 24.765625 59.132812 25.421875 58.625 26.015625 C 58.113281 26.617188 57.515625 26.8125 56.828125 26.59375 C 56.429688 26.414062 56.132812 26.023438 55.9375 25.421875 C 55.738281 24.828125 55.664062 23.851562 55.71875 22.5 C 55.769531 21.144531 55.957031 19.265625 56.28125 16.859375 C 56.613281 14.453125 57.09375 11.363281 57.71875 7.59375 C 58.351562 3.832031 59.179688 -0.742188 60.203125 -6.140625 C 60.890625 -10.117188 61.59375 -14.132812 62.3125 -18.1875 C 63.039062 -22.238281 63.691406 -26.109375 64.265625 -29.796875 C 64.847656 -33.492188 65.289062 -36.804688 65.59375 -39.734375 C 65.90625 -42.660156 66.003906 -44.976562 65.890625 -46.6875 C 65.816406 -47.726562 65.671875 -48.492188 65.453125 -48.984375 C 65.242188 -49.472656 65.03125 -49.738281 64.8125 -49.78125 C 64.8125 -49.78125 64.789062 -49.78125 64.75 -49.78125 C 64.394531 -49.78125 63.765625 -49.390625 62.859375 -48.609375 C 61.953125 -47.828125 60.816406 -46.441406 59.453125 -44.453125 C 58.097656 -42.460938 56.5 -39.640625 54.65625 -35.984375 C 52.78125 -32.222656 50.445312 -26.859375 47.65625 -19.890625 C 44.875 -12.921875 41.90625 -3.972656 38.75 6.953125 C 38.570312 7.597656 38.160156 7.847656 37.515625 7.703125 C 36.859375 7.554688 36.582031 7.160156 36.6875 6.515625 C 39.226562 -8.390625 40.585938 -19.59375 40.765625 -27.09375 C 40.835938 -29.40625 40.800781 -31.21875 40.65625 -32.53125 C 40.507812 -33.851562 40.328125 -34.8125 40.109375 -35.40625 C 39.890625 -36.007812 39.695312 -36.390625 39.53125 -36.546875 C 39.375 -36.710938 39.28125 -36.816406 39.25 -36.859375 C 39.207031 -36.859375 39.03125 -36.800781 38.71875 -36.6875 C 38.414062 -36.582031 37.9375 -36.222656 37.28125 -35.609375 C 36.632812 -34.992188 35.796875 -33.925781 34.765625 -32.40625 C 33.734375 -30.882812 32.492188 -28.726562 31.046875 -25.9375 C 29.597656 -23.15625 27.898438 -19.539062 25.953125 -15.09375 C 23.960938 -10.5 21.960938 -5.53125 19.953125 -0.1875 C 17.941406 5.144531 16.015625 10.613281 14.171875 16.21875 C 12.328125 21.832031 10.644531 27.335938 9.125 32.734375 C 9.125 32.734375 9.125 32.75 9.125 32.78125 C 8.863281 33.4375 8.597656 34.015625 8.328125 34.515625 C 8.054688 35.023438 7.707031 35.28125 7.28125 35.28125 C 7.164062 35.28125 7.035156 35.265625 6.890625 35.234375 C 6.390625 35.046875 6.128906 34.65625 6.109375 34.0625 C 6.085938 33.46875 6.164062 32.535156 6.34375 31.265625 C 6.601562 29.566406 7.039062 27.125 7.65625 23.9375 C 8.738281 18.46875 10.332031 10.976562 12.4375 1.46875 C 13.375 -2.914062 14.320312 -7.234375 15.28125 -11.484375 C 16.238281 -15.734375 17.132812 -19.675781 17.96875 -23.3125 C 18.800781 -26.945312 19.523438 -30.066406 20.140625 -32.671875 C 20.753906 -35.273438 21.1875 -37.101562 21.4375 -38.15625 C 22.019531 -40.65625 22.316406 -42.546875 22.328125 -43.828125 C 22.347656 -45.117188 22.238281 -46.015625 22 -46.515625 C 21.769531 -47.023438 21.582031 -47.332031 21.4375 -47.4375 C 21.039062 -47.695312 20.4375 -47.660156 19.625 -47.328125 C 18.8125 -47.003906 17.878906 -46.445312 16.828125 -45.65625 C 15.410156 -44.5625 13.960938 -43.144531 12.484375 -41.40625 C 11.003906 -39.675781 9.601562 -37.78125 8.28125 -35.71875 C 6.957031 -33.65625 5.832031 -31.5625 4.90625 -29.4375 C 3.988281 -27.320312 3.359375 -25.285156 3.015625 -23.328125 C 2.671875 -21.378906 2.75 -19.664062 3.25 -18.1875 C 4.300781 -15.070312 7.304688 -13.476562 12.265625 -13.40625 C 12.554688 -13.40625 12.800781 -13.296875 13 -13.078125 C 13.195312 -12.859375 13.296875 -12.609375 13.296875 -12.328125 C 13.296875 -12.035156 13.1875 -11.789062 12.96875 -11.59375 C 12.75 -11.394531 12.515625 -11.296875 12.265625 -11.296875 C 12.265625 -11.296875 12.253906 -11.296875 12.234375 -11.296875 C 12.222656 -11.296875 12.21875 -11.296875 12.21875 -11.296875 C 10.875 -11.328125 9.457031 -11.515625 7.96875 -11.859375 C 6.488281 -12.203125 5.140625 -12.816406 3.921875 -13.703125 C 2.710938 -14.585938 1.820312 -15.863281 1.25 -17.53125 C 0.8125 -18.875 0.640625 -20.285156 0.734375 -21.765625 C 0.828125 -23.253906 1.085938 -24.726562 1.515625 -26.1875 C 1.953125 -27.65625 2.453125 -29.03125 3.015625 -30.3125 C 3.578125 -31.601562 4.109375 -32.71875 4.609375 -33.65625 C 6.097656 -36.363281 7.816406 -38.945312 9.765625 -41.40625 C 11.722656 -43.875 13.660156 -45.847656 15.578125 -47.328125 C 17.421875 -48.742188 18.90625 -49.492188 20.03125 -49.578125 C 21.15625 -49.671875 22.003906 -49.535156 22.578125 -49.171875 C 24.679688 -47.835938 24.972656 -44.003906 23.453125 -37.671875 C 23.054688 -36.003906 22.539062 -33.804688 21.90625 -31.078125 C 21.269531 -28.347656 20.5625 -25.265625 19.78125 -21.828125 C 19.007812 -18.390625 18.1875 -14.757812 17.3125 -10.9375 C 16.445312 -7.125 15.585938 -3.289062 14.734375 0.5625 C 13.890625 4.414062 13.078125 8.144531 12.296875 11.75 C 11.515625 15.351562 10.835938 18.640625 10.265625 21.609375 C 11.640625 17.222656 13.082031 12.84375 14.59375 8.46875 C 16.113281 4.09375 17.671875 -0.15625 19.265625 -4.28125 C 20.859375 -8.40625 22.453125 -12.296875 24.046875 -15.953125 C 26.140625 -20.765625 27.984375 -24.664062 29.578125 -27.65625 C 31.171875 -30.644531 32.546875 -32.929688 33.703125 -34.515625 C 34.867188 -36.109375 35.847656 -37.210938 36.640625 -37.828125 C 37.429688 -38.441406 38.070312 -38.785156 38.5625 -38.859375 C 39.050781 -38.929688 39.441406 -38.929688 39.734375 -38.859375 C 40.242188 -38.753906 40.734375 -38.429688 41.203125 -37.890625 C 41.671875 -37.347656 42.054688 -36.429688 42.359375 -35.140625 C 42.671875 -33.859375 42.851562 -32.050781 42.90625 -29.71875 C 42.957031 -27.382812 42.828125 -24.390625 42.515625 -20.734375 C 42.210938 -17.078125 41.703125 -12.59375 40.984375 -7.28125 C 43.191406 -13.96875 45.425781 -20.070312 47.6875 -25.59375 C 49.945312 -31.113281 52.144531 -35.851562 54.28125 -39.8125 C 56.414062 -43.78125 58.40625 -46.8125 60.25 -48.90625 C 62.09375 -51.007812 63.703125 -51.988281 65.078125 -51.84375 C 66.785156 -51.65625 67.742188 -49.988281 67.953125 -46.84375 Z M 67.953125 -46.84375 "/></g></g><g style="fill:#ddb65b;fill-opacity:1;"><g transform="translate(227.142609, 233.52449)"><path style="stroke:none" d="M 22.75 -12.046875 C 23 -11.941406 23.164062 -11.753906 23.25 -11.484375 C 23.34375 -11.210938 23.335938 -10.945312 23.234375 -10.6875 C 22.546875 -9.28125 21.796875 -7.867188 20.984375 -6.453125 C 20.171875 -5.046875 19.316406 -3.753906 18.421875 -2.578125 C 17.535156 -1.398438 16.625 -0.460938 15.6875 0.234375 C 14.75 0.941406 13.804688 1.296875 12.859375 1.296875 C 12.679688 1.296875 12.484375 1.28125 12.265625 1.25 C 9.835938 0.78125 8.335938 -2.472656 7.765625 -8.515625 C 7.148438 -7.691406 6.429688 -6.757812 5.609375 -5.71875 C 4.796875 -4.6875 3.941406 -3.664062 3.046875 -2.65625 C 2.898438 -2.507812 2.660156 -2.28125 2.328125 -1.96875 C 2.003906 -1.664062 1.625 -1.425781 1.1875 -1.25 C 0.757812 -1.070312 0.328125 -1.085938 -0.109375 -1.296875 C -0.972656 -1.628906 -1.390625 -2.570312 -1.359375 -4.125 C -1.359375 -5.03125 -1.1875 -6.148438 -0.84375 -7.484375 C -0.5 -8.828125 -0.0078125 -10.175781 0.625 -11.53125 C 1.257812 -12.882812 2 -14.085938 2.84375 -15.140625 C 3.695312 -16.191406 4.648438 -16.898438 5.703125 -17.265625 C 6.347656 -17.515625 7.140625 -17.554688 8.078125 -17.390625 C 9.023438 -17.234375 10.003906 -16.554688 11.015625 -15.359375 C 11.203125 -15.140625 11.285156 -14.882812 11.265625 -14.59375 C 11.242188 -14.3125 11.125 -14.078125 10.90625 -13.890625 C 10.6875 -13.710938 10.429688 -13.628906 10.140625 -13.640625 C 9.859375 -13.660156 9.625 -13.78125 9.4375 -14 C 8.570312 -15.019531 7.820312 -15.5 7.1875 -15.4375 C 6.5625 -15.382812 6.03125 -15.195312 5.59375 -14.875 C 4.789062 -14.289062 4.0625 -13.457031 3.40625 -12.375 C 2.757812 -11.289062 2.21875 -10.148438 1.78125 -8.953125 C 1.351562 -7.765625 1.046875 -6.65625 0.859375 -5.625 C 0.679688 -4.59375 0.628906 -3.835938 0.703125 -3.359375 C 0.816406 -3.429688 0.9375 -3.519531 1.0625 -3.625 C 1.1875 -3.738281 1.320312 -3.890625 1.46875 -4.078125 C 2.550781 -5.265625 3.546875 -6.445312 4.453125 -7.625 C 5.359375 -8.800781 6.132812 -9.84375 6.78125 -10.75 C 6.96875 -11 7.140625 -11.238281 7.296875 -11.46875 C 7.460938 -11.707031 7.617188 -11.921875 7.765625 -12.109375 C 8.054688 -12.460938 8.4375 -12.570312 8.90625 -12.4375 C 9.375 -12.320312 9.625 -12.007812 9.65625 -11.5 C 9.769531 -9.15625 9.960938 -7.265625 10.234375 -5.828125 C 10.503906 -4.398438 10.800781 -3.332031 11.125 -2.625 C 11.445312 -1.925781 11.753906 -1.445312 12.046875 -1.1875 C 12.335938 -0.9375 12.554688 -0.8125 12.703125 -0.8125 C 13.390625 -0.664062 14.492188 -1.367188 16.015625 -2.921875 C 17.535156 -4.484375 19.304688 -7.363281 21.328125 -11.5625 C 21.472656 -11.851562 21.679688 -12.039062 21.953125 -12.125 C 22.222656 -12.21875 22.488281 -12.191406 22.75 -12.046875 Z M 22.75 -12.046875 "/></g></g><g style="fill:#ddb65b;fill-opacity:1;"><g transform="translate(255.418202, 233.52449)"><path style="stroke:none" d="M 23.171875 -45.328125 C 23.285156 -45.253906 23.394531 -45.082031 23.5 -44.8125 C 23.613281 -44.539062 23.671875 -44.066406 23.671875 -43.390625 C 23.671875 -42.722656 23.523438 -41.75 23.234375 -40.46875 C 22.941406 -39.1875 22.453125 -37.476562 21.765625 -35.34375 C 21.660156 -35.050781 21.5625 -34.75 21.46875 -34.4375 C 21.375 -34.132812 21.273438 -33.835938 21.171875 -33.546875 C 20.335938 -30.941406 19.320312 -28.019531 18.125 -24.78125 C 16.9375 -21.539062 15.328125 -18.003906 13.296875 -14.171875 C 12.828125 -11.816406 12.335938 -9.304688 11.828125 -6.640625 C 11.328125 -3.984375 10.820312 -1.171875 10.3125 1.796875 C 9.664062 5.804688 9.148438 9.113281 8.765625 11.71875 C 8.390625 14.332031 8.128906 16.40625 7.984375 17.9375 C 7.835938 19.476562 7.742188 20.644531 7.703125 21.4375 C 7.992188 21.332031 8.285156 21.332031 8.578125 21.4375 C 8.828125 21.582031 9 21.789062 9.09375 22.0625 C 9.1875 22.332031 9.175781 22.597656 9.0625 22.859375 C 8.882812 23.253906 8.628906 23.695312 8.296875 24.1875 C 7.972656 24.675781 7.578125 24.921875 7.109375 24.921875 C 6.960938 24.921875 6.816406 24.898438 6.671875 24.859375 C 6.316406 24.753906 6.046875 24.492188 5.859375 24.078125 C 5.679688 23.660156 5.597656 22.863281 5.609375 21.6875 C 5.628906 20.507812 5.785156 18.726562 6.078125 16.34375 C 6.515625 12.570312 7.238281 7.613281 8.25 1.46875 C 8.832031 -1.894531 9.429688 -5.171875 10.046875 -8.359375 C 9.503906 -7.492188 8.929688 -6.609375 8.328125 -5.703125 C 7.734375 -4.796875 7.109375 -3.875 6.453125 -2.9375 C 5.484375 -1.488281 4.597656 -0.46875 3.796875 0.125 C 3.003906 0.726562 2.304688 1.046875 1.703125 1.078125 C 1.109375 1.117188 0.613281 1.03125 0.21875 0.8125 C -0.582031 0.34375 -1.085938 -0.484375 -1.296875 -1.671875 C -1.515625 -2.867188 -1.488281 -4.21875 -1.21875 -5.71875 C -0.945312 -7.226562 -0.503906 -8.671875 0.109375 -10.046875 C 1.378906 -12.722656 2.835938 -14.613281 4.484375 -15.71875 C 6.128906 -16.820312 7.53125 -17.207031 8.6875 -16.875 C 8.9375 -16.769531 9.332031 -16.523438 9.875 -16.140625 C 10.414062 -15.765625 10.742188 -15.050781 10.859375 -14 C 11.035156 -14.289062 11.195312 -14.582031 11.34375 -14.875 C 12.6875 -21.09375 14.007812 -26.453125 15.3125 -30.953125 C 16.613281 -35.460938 17.832031 -38.972656 18.96875 -41.484375 C 20.113281 -44.003906 21.082031 -45.394531 21.875 -45.65625 C 22.382812 -45.832031 22.816406 -45.722656 23.171875 -45.328125 Z M 4.78125 -4.125 C 5.644531 -5.394531 6.460938 -6.644531 7.234375 -7.875 C 8.015625 -9.101562 8.75 -10.3125 9.4375 -11.5 C 8.894531 -11.6875 8.679688 -12.050781 8.796875 -12.59375 C 8.796875 -12.84375 8.785156 -13.25 8.765625 -13.8125 C 8.742188 -14.375 8.519531 -14.726562 8.09375 -14.875 C 8.019531 -14.90625 7.910156 -14.921875 7.765625 -14.921875 C 7.078125 -14.921875 6.179688 -14.453125 5.078125 -13.515625 C 3.972656 -12.578125 2.953125 -11.113281 2.015625 -9.125 C 1.390625 -7.820312 0.988281 -6.582031 0.8125 -5.40625 C 0.632812 -4.226562 0.597656 -3.238281 0.703125 -2.4375 C 0.816406 -1.644531 1.015625 -1.175781 1.296875 -1.03125 C 1.410156 -0.957031 1.753906 -1.082031 2.328125 -1.40625 C 2.910156 -1.738281 3.726562 -2.644531 4.78125 -4.125 Z M 19.765625 -35.984375 C 20.191406 -37.253906 20.519531 -38.347656 20.75 -39.265625 C 20.988281 -40.191406 21.179688 -40.984375 21.328125 -41.640625 C 20.640625 -40.222656 19.804688 -38.082031 18.828125 -35.21875 C 17.859375 -32.363281 16.796875 -28.691406 15.640625 -24.203125 C 16.390625 -26.054688 17.046875 -27.8125 17.609375 -29.46875 C 18.171875 -31.132812 18.6875 -32.691406 19.15625 -34.140625 C 19.269531 -34.460938 19.367188 -34.773438 19.453125 -35.078125 C 19.546875 -35.390625 19.648438 -35.691406 19.765625 -35.984375 Z M 19.765625 -35.984375 "/></g></g><g style="fill:#ddb65b;fill-opacity:1;"><g transform="translate(280.491961, 233.52449)"><path style="stroke:none" d="M 18.34375 -12.109375 C 18.601562 -11.960938 18.75 -11.742188 18.78125 -11.453125 C 18.8125 -11.160156 18.757812 -10.90625 18.625 -10.6875 C 16.488281 -7.726562 14.53125 -5.28125 12.75 -3.34375 C 10.976562 -1.40625 9.207031 0.195312 7.4375 1.46875 C 6.09375 2.40625 4.769531 2.875 3.46875 2.875 C 2.457031 2.875 1.570312 2.601562 0.8125 2.0625 C 0.300781 1.695312 -0.191406 1.050781 -0.671875 0.125 C -1.160156 -0.789062 -1.421875 -2.125 -1.453125 -3.875 C -1.492188 -5.632812 -1.0625 -7.941406 -0.15625 -10.796875 C -0.15625 -10.796875 -0.15625 -10.816406 -0.15625 -10.859375 C 0.925781 -14.328125 2.195312 -16.972656 3.65625 -18.796875 C 5.125 -20.628906 6.382812 -21.566406 7.4375 -21.609375 C 8.269531 -21.640625 8.8125 -21.273438 9.0625 -20.515625 C 9.457031 -19.460938 8.984375 -17.96875 7.640625 -16.03125 C 6.304688 -14.101562 4.335938 -12.050781 1.734375 -9.875 C 0.941406 -7.34375 0.5625 -5.363281 0.59375 -3.9375 C 0.632812 -2.507812 0.832031 -1.476562 1.1875 -0.84375 C 1.550781 -0.207031 1.84375 0.195312 2.0625 0.375 C 3.144531 1.175781 4.539062 0.960938 6.25 -0.265625 C 7.90625 -1.429688 9.582031 -2.941406 11.28125 -4.796875 C 12.988281 -6.660156 14.851562 -9.023438 16.875 -11.890625 C 17.0625 -12.109375 17.296875 -12.242188 17.578125 -12.296875 C 17.867188 -12.347656 18.125 -12.285156 18.34375 -12.109375 Z M 7.0625 -19.328125 C 6.65625 -19.066406 6.109375 -18.53125 5.421875 -17.71875 C 4.734375 -16.90625 4.03125 -15.722656 3.3125 -14.171875 C 4.613281 -15.429688 5.535156 -16.503906 6.078125 -17.390625 C 6.617188 -18.285156 6.945312 -18.929688 7.0625 -19.328125 Z M 7.0625 -19.328125 "/></g></g><g mask="url(#e7b201036c)" transform="matrix(1,0,0,1,90,90)"><g clip-path="url(#f3ddefa587)"><g clip-rule="nonzero" clip-path="url(#92773101fa)"><g clip-rule="nonzero" clip-path="url(#d5758d17ee)"><g clip-rule="nonzero" clip-path="url(#576e05bede)"><path style=" stroke:none;fill-rule:nonzero;fill:#ddb65b;fill-opacity:1;" d="M 35.832031 9.285156 C 37.949219 5.839844 41.742188 7.191406 45.222656 8.511719 C 58.054688 13.761719 71.015625 26.339844 76.589844 39.707031 C 81.429688 51.117188 78.785156 64.070312 72.855469 74.671875 C 69.300781 81.152344 64.351562 88.210938 58.574219 91.433594 C 36.59375 104.027344 31.90625 56.363281 30.875 42.515625 C 30.175781 31.714844 29.574219 17.910156 35.828125 9.289062 Z M 35.832031 9.285156 "/></g></g></g></g><mask id="e7b201036c"><g filter="url(#8e230a944e)"><rect x="0" width="375" y="0" height="374.999991" style="fill:#000000;fill-opacity:0.89;stroke:none;"/></g></mask></g><g mask="url(#ebd8af8f8c)" transform="matrix(1,0,0,1,93,144)"><g clip-path="url(#ecc765a340)"><g clip-rule="nonzero" clip-path="url(#ee9f283e4a)"><path style=" stroke:none;fill-rule:nonzero;fill:#ddb65b;fill-opacity:1;" d="M 0.359375 48.984375 C -0.0429688 44.246094 2.0625 39.066406 3.808594 34.445312 C 5.488281 30.105469 7.050781 25.851562 8.605469 21.601562 C 9.777344 18.363281 10.890625 15.273438 11.957031 12.058594 C 12.792969 9.625 13.589844 6.753906 14.492188 4.605469 C 15.9375 0.816406 18.789062 -0.320312 22.492188 0.351562 C 27.410156 1.242188 31.933594 3.664062 36.347656 6.285156 C 47.808594 13.410156 62.832031 25.296875 58.039062 39.132812 C 55.296875 46.785156 48.042969 51.648438 40.617188 54.792969 C 32.261719 58.328125 21.464844 60.410156 13.042969 59.171875 C 6.105469 58.015625 1.144531 55.382812 0.363281 49.027344 Z M 0.359375 48.984375 "/></g></g><mask id="ebd8af8f8c"><g filter="url(#8e230a944e)"><rect x="0" width="375" y="0" height="374.999991" style="fill:#000000;fill-opacity:0.59;stroke:none;"/></g></mask></g><path style=" stroke:none;fill-rule:nonzero;fill:#ddb65b;fill-opacity:1;" d="M 194.347656 149.679688 C 194.792969 152.589844 195.070312 148.792969 196.234375 146.683594 C 197.039062 145.214844 197.535156 144.160156 199.535156 142.828125 C 208.273438 138.25 201.535156 148.570312 198.785156 149.902344 C 189.605469 156.945312 178.703125 161.4375 170.824219 170.207031 C 172.964844 163.769531 178.757812 156.113281 183.835938 150.59375 C 200.894531 133.644531 180.089844 132.59375 179.367188 148.761719 C 179.785156 149.34375 180.144531 149.398438 179.980469 148.816406 C 179.425781 147.125 180.453125 144.992188 181.253906 143.546875 C 182.335938 141.554688 183.640625 139.859375 185.800781 138.972656 C 186.660156 138.636719 187.714844 138.363281 188.632812 138.332031 C 189.105469 138.332031 189.574219 138.527344 189.714844 139 C 189.882812 139.582031 189.605469 140.273438 189.378906 140.804688 C 189.019531 141.71875 188.492188 142.609375 187.96875 143.4375 C 184.140625 149.570312 175.347656 159.277344 174.265625 161.277344 C 171.601562 165.574219 169.691406 170.707031 167.304688 175.476562 C 166.335938 175.230469 165.75 175.0625 165.75 175.0625 C 177.8125 112.175781 112.296875 85.273438 131.382812 124.078125 C 118.261719 122.71875 129.855469 135.703125 128.441406 140.972656 C 126.195312 144.410156 115.238281 143.550781 111.273438 146.710938 C 110.464844 147.351562 109.828125 148.320312 109.636719 149.316406 C 109.46875 150.371094 109.714844 151.34375 110.246094 152.453125 C 111.273438 154.699219 113.878906 156.78125 117.847656 157.277344 C 109.691406 159.941406 86.722656 173.53125 104.171875 179.328125 C 70.886719 205.070312 138.011719 214.5 152.433594 179.746094 C 154.710938 174.253906 155.097656 167.707031 154.710938 159.855469 C 154.460938 155.195312 154.570312 150.011719 153.878906 144.738281 C 151.9375 130.007812 146.613281 114.589844 135.988281 107.875 C 142.703125 109.097656 148.027344 113.476562 152.410156 118.886719 C 164.199219 133.421875 168 158.71875 164.667969 174.835938 C 160.757812 173.585938 156.375 176.363281 159.816406 180.660156 C 143.117188 190.925781 130.882812 216 131.300781 229.980469 C 117.625 235.558594 98.621094 242.882812 85.335938 245.347656 C 101.480469 243.574219 115.792969 236.917969 131.382812 231.007812 C 134.625 246.125 157.371094 250.953125 171.046875 245.515625 C 185.25 239.886719 177.148438 226.515625 165 224.460938 C 152.101562 222.273438 142.976562 225.351562 132.546875 229.316406 C 134.515625 196.199219 154.488281 200.882812 162.917969 181.664062 C 151.15625 174.976562 171.519531 173.671875 169.214844 180.027344 C 168.296875 181.414062 167.660156 181.882812 165.554688 182.714844 C 167.941406 184.078125 173.433594 177.085938 168.246094 175.835938 C 175.234375 162.992188 188.273438 159.304688 199.367188 150.648438 C 213.015625 139.5 196.84375 136.53125 194.347656 149.679688 Z M 136.597656 109.570312 C 147.167969 118.308594 151.464844 133.535156 152.796875 148.152344 C 153.601562 156.917969 154.515625 165.433594 153.296875 172.148438 C 152.105469 178.746094 150.023438 183.742188 145.890625 187.984375 C 128.191406 206.15625 83.171875 206.019531 99.980469 184.410156 C 102.367188 181.332031 105.777344 179.722656 105.777344 179.722656 C 105.777344 179.722656 112.632812 180.832031 112.910156 178.558594 C 113.15625 176.753906 106.28125 178.253906 106.054688 178.53125 C 86.777344 174.703125 112.378906 160.417969 118.84375 157.890625 C 119.011719 158.003906 121.257812 158.226562 123.226562 157.949219 C 124.945312 157.699219 126.441406 157.089844 126.195312 155.730469 C 125.53125 153.84375 123.808594 154.316406 121.921875 155.066406 C 120.703125 155.589844 118.429688 156.507812 118.429688 156.507812 C 118.429688 156.507812 117.097656 156.367188 116.625 156.121094 C 114.933594 155.621094 113.074219 154.511719 111.910156 153.011719 C 111.160156 152.015625 110.496094 150.824219 110.882812 149.601562 C 111.191406 148.632812 112.019531 147.992188 112.769531 147.4375 C 117.125 144.222656 124.949219 146.136719 129.082031 142.390625 C 132.6875 139.285156 123.117188 127.605469 127.167969 125.496094 C 128.578125 124.777344 130.214844 124.886719 131.464844 125.164062 C 131.964844 126.21875 132.519531 127.410156 132.992188 128.074219 C 136.042969 132.316406 138.429688 129.15625 135.378906 125.996094 C 134.15625 124.773438 132.242188 124.023438 132.242188 124.023438 C 132.242188 124.023438 131.246094 122.277344 130.46875 120.25 C 128.164062 114.3125 126.609375 104.300781 136.597656 109.570312 Z M 107.496094 178.832031 C 107.664062 178.636719 111.878906 178.082031 112.160156 178.695312 C 112.019531 179.332031 107.191406 179.054688 107.496094 178.832031 Z M 120.203125 156.976562 C 120.203125 156.976562 124.867188 154.785156 125.03125 156.007812 C 125.226562 157.390625 120.203125 156.976562 120.203125 156.976562 Z M 132.988281 125.769531 C 133.351562 125.355469 136.648438 128.40625 135.710938 129.074219 C 134.792969 129.070312 133.019531 126.40625 132.988281 125.769531 Z M 142.28125 227.261719 C 147.46875 225.765625 152.074219 224.960938 156.539062 224.960938 C 169.796875 224.960938 177.566406 230.980469 177.507812 236.808594 C 177.480469 241.605469 170.378906 246.738281 155.566406 246.488281 C 148.578125 246.378906 134.039062 240.496094 132.570312 230.539062 C 132.574219 230.535156 135.652344 229.207031 142.28125 227.261719 Z M 160.652344 183.929688 C 157.941406 189.648438 147.96875 196.507812 143 200.234375 C 141.695312 199.347656 162.429688 175.664062 160.652344 183.929688 Z M 160.652344 183.929688 "/></g></svg>